<mxfile host="app.diagrams.net" agent="Mozilla/5.0 (Windows NT 10.0; Win64; x64) AppleWebKit/537.36 (KHTML, like Gecko) Chrome/131.0.0.0 Safari/537.36" version="24.8.6">
  <diagram name="Página-1" id="wLjZlUXcrk8D2DHM8TBe">
    <mxGraphModel dx="1434" dy="780" grid="1" gridSize="10" guides="1" tooltips="1" connect="1" arrows="1" fold="1" page="1" pageScale="1" pageWidth="827" pageHeight="1169" math="0" shadow="0">
      <root>
        <mxCell id="0" />
        <mxCell id="1" parent="0" />
        <mxCell id="Kd3mkhthC68FKFCFAMVX-5" value="Alumno" style="shape=table;startSize=30;container=1;collapsible=1;childLayout=tableLayout;fixedRows=1;rowLines=0;fontStyle=1;align=center;resizeLast=1;html=1;" vertex="1" parent="1">
          <mxGeometry x="100" y="170" width="220" height="150" as="geometry" />
        </mxCell>
        <mxCell id="Kd3mkhthC68FKFCFAMVX-6" value="" style="shape=tableRow;horizontal=0;startSize=0;swimlaneHead=0;swimlaneBody=0;fillColor=none;collapsible=0;dropTarget=0;points=[[0,0.5],[1,0.5]];portConstraint=eastwest;top=0;left=0;right=0;bottom=1;" vertex="1" parent="Kd3mkhthC68FKFCFAMVX-5">
          <mxGeometry y="30" width="220" height="30" as="geometry" />
        </mxCell>
        <mxCell id="Kd3mkhthC68FKFCFAMVX-7" value="PK" style="shape=partialRectangle;connectable=0;fillColor=none;top=0;left=0;bottom=0;right=0;fontStyle=1;overflow=hidden;whiteSpace=wrap;html=1;" vertex="1" parent="Kd3mkhthC68FKFCFAMVX-6">
          <mxGeometry width="60" height="30" as="geometry">
            <mxRectangle width="60" height="30" as="alternateBounds" />
          </mxGeometry>
        </mxCell>
        <mxCell id="Kd3mkhthC68FKFCFAMVX-8" value="IDAlumno" style="shape=partialRectangle;connectable=0;fillColor=none;top=0;left=0;bottom=0;right=0;align=left;spacingLeft=6;fontStyle=5;overflow=hidden;whiteSpace=wrap;html=1;" vertex="1" parent="Kd3mkhthC68FKFCFAMVX-6">
          <mxGeometry x="60" width="160" height="30" as="geometry">
            <mxRectangle width="160" height="30" as="alternateBounds" />
          </mxGeometry>
        </mxCell>
        <mxCell id="Kd3mkhthC68FKFCFAMVX-9" value="" style="shape=tableRow;horizontal=0;startSize=0;swimlaneHead=0;swimlaneBody=0;fillColor=none;collapsible=0;dropTarget=0;points=[[0,0.5],[1,0.5]];portConstraint=eastwest;top=0;left=0;right=0;bottom=0;" vertex="1" parent="Kd3mkhthC68FKFCFAMVX-5">
          <mxGeometry y="60" width="220" height="30" as="geometry" />
        </mxCell>
        <mxCell id="Kd3mkhthC68FKFCFAMVX-10" value="PK,(NN)" style="shape=partialRectangle;connectable=0;fillColor=none;top=0;left=0;bottom=0;right=0;editable=1;overflow=hidden;whiteSpace=wrap;html=1;" vertex="1" parent="Kd3mkhthC68FKFCFAMVX-9">
          <mxGeometry width="60" height="30" as="geometry">
            <mxRectangle width="60" height="30" as="alternateBounds" />
          </mxGeometry>
        </mxCell>
        <mxCell id="Kd3mkhthC68FKFCFAMVX-11" value="IDrepresentante" style="shape=partialRectangle;connectable=0;fillColor=none;top=0;left=0;bottom=0;right=0;align=left;spacingLeft=6;overflow=hidden;whiteSpace=wrap;html=1;" vertex="1" parent="Kd3mkhthC68FKFCFAMVX-9">
          <mxGeometry x="60" width="160" height="30" as="geometry">
            <mxRectangle width="160" height="30" as="alternateBounds" />
          </mxGeometry>
        </mxCell>
        <mxCell id="Kd3mkhthC68FKFCFAMVX-12" value="" style="shape=tableRow;horizontal=0;startSize=0;swimlaneHead=0;swimlaneBody=0;fillColor=none;collapsible=0;dropTarget=0;points=[[0,0.5],[1,0.5]];portConstraint=eastwest;top=0;left=0;right=0;bottom=0;" vertex="1" parent="Kd3mkhthC68FKFCFAMVX-5">
          <mxGeometry y="90" width="220" height="30" as="geometry" />
        </mxCell>
        <mxCell id="Kd3mkhthC68FKFCFAMVX-13" value="" style="shape=partialRectangle;connectable=0;fillColor=none;top=0;left=0;bottom=0;right=0;editable=1;overflow=hidden;whiteSpace=wrap;html=1;" vertex="1" parent="Kd3mkhthC68FKFCFAMVX-12">
          <mxGeometry width="60" height="30" as="geometry">
            <mxRectangle width="60" height="30" as="alternateBounds" />
          </mxGeometry>
        </mxCell>
        <mxCell id="Kd3mkhthC68FKFCFAMVX-14" value="Row 2" style="shape=partialRectangle;connectable=0;fillColor=none;top=0;left=0;bottom=0;right=0;align=left;spacingLeft=6;overflow=hidden;whiteSpace=wrap;html=1;" vertex="1" parent="Kd3mkhthC68FKFCFAMVX-12">
          <mxGeometry x="60" width="160" height="30" as="geometry">
            <mxRectangle width="160" height="30" as="alternateBounds" />
          </mxGeometry>
        </mxCell>
        <mxCell id="Kd3mkhthC68FKFCFAMVX-15" value="" style="shape=tableRow;horizontal=0;startSize=0;swimlaneHead=0;swimlaneBody=0;fillColor=none;collapsible=0;dropTarget=0;points=[[0,0.5],[1,0.5]];portConstraint=eastwest;top=0;left=0;right=0;bottom=0;" vertex="1" parent="Kd3mkhthC68FKFCFAMVX-5">
          <mxGeometry y="120" width="220" height="30" as="geometry" />
        </mxCell>
        <mxCell id="Kd3mkhthC68FKFCFAMVX-16" value="" style="shape=partialRectangle;connectable=0;fillColor=none;top=0;left=0;bottom=0;right=0;editable=1;overflow=hidden;whiteSpace=wrap;html=1;" vertex="1" parent="Kd3mkhthC68FKFCFAMVX-15">
          <mxGeometry width="60" height="30" as="geometry">
            <mxRectangle width="60" height="30" as="alternateBounds" />
          </mxGeometry>
        </mxCell>
        <mxCell id="Kd3mkhthC68FKFCFAMVX-17" value="Row 3" style="shape=partialRectangle;connectable=0;fillColor=none;top=0;left=0;bottom=0;right=0;align=left;spacingLeft=6;overflow=hidden;whiteSpace=wrap;html=1;" vertex="1" parent="Kd3mkhthC68FKFCFAMVX-15">
          <mxGeometry x="60" width="160" height="30" as="geometry">
            <mxRectangle width="160" height="30" as="alternateBounds" />
          </mxGeometry>
        </mxCell>
        <mxCell id="Kd3mkhthC68FKFCFAMVX-18" value="" style="edgeStyle=entityRelationEdgeStyle;fontSize=12;html=1;endArrow=ERoneToMany;startArrow=ERmandOne;rounded=0;entryX=1;entryY=0.5;entryDx=0;entryDy=0;exitX=1;exitY=0.5;exitDx=0;exitDy=0;" edge="1" parent="Kd3mkhthC68FKFCFAMVX-5" source="Kd3mkhthC68FKFCFAMVX-6" target="Kd3mkhthC68FKFCFAMVX-9">
          <mxGeometry width="100" height="100" relative="1" as="geometry">
            <mxPoint x="40" y="130" as="sourcePoint" />
            <mxPoint x="140" y="30" as="targetPoint" />
          </mxGeometry>
        </mxCell>
        <mxCell id="Kd3mkhthC68FKFCFAMVX-19" value="Relación 1 a muchos&lt;div&gt;representante-alumno&lt;/div&gt;" style="text;html=1;align=center;verticalAlign=middle;resizable=0;points=[];autosize=1;strokeColor=none;fillColor=none;" vertex="1" parent="1">
          <mxGeometry x="320" y="210" width="140" height="40" as="geometry" />
        </mxCell>
        <mxCell id="Kd3mkhthC68FKFCFAMVX-20" value="" style="shape=image;verticalLabelPosition=bottom;labelBackgroundColor=default;verticalAlign=top;aspect=fixed;imageAspect=0;image=data:image/png,iVBORw0KGgoAAAANSUhEUgAAAiEAAAGxCAYAAAC0mWZZAAAAAXNSR0IArs4c6QAAAARnQU1BAACxjwv8YQUAAAAJcEhZcwAADsMAAA7DAcdvqGQAAP+lSURBVHhe7F0FgBW3Fj3P1xcW11IoUlooTlvqTpW6u8uv/cqvC3UvdaWuVKkBFaCltFBocXeHdX028/49yZvdt8tuWXxhc3bzZiaTZJI7Se6JTOJatWpVDBuJWEx7cblc6mhZFtasWQO3260M4dzbmnDb+hh1u+COueFCDDFXVGz47K33/LKyMqSmpqJRo0aw7XgkBE7atynkVajUyjFGmcvRK1Gy3DHY2yE6GwLzTnFxMfx+PwKBQNy2jiCWkGdcEflxS3wDYm1J/oopE43L1EN582TrZbNNBuXr8/mUjLdFOfw3UEa2CImy84hxSfm04BU7n+RZKbPukLiIyLlP3Epct1N08/LykJGRAY/HE7epAxDhKXFIvmTWZP3mtVm/eWC73LBY6Lfv660WLOOrV69G8+bNt3v+q4yolOiQ/CZJJAPw2F5YnrDY22K/fUE5UW45OTlo2LDh1tMlLIO65oqDVypzKax/V7vYGmA9xfK2WSmNRqOVlPC2hi0SoiFE50pFFhPla4vIto7Q6jIoBk/MZvUkMlD1Vp2FQ2LrJpiRdEWPmEfkKhVUPLokIDynsUS+dVXGlO/2lDGf7BiWSW/MUhWZrSpaL52I7KKIucWoq+2v+OtunpR4iazcUrbd0qqwXAExIkchxlrCBrWFNCMQcfvljIqPcg0rudaFYrzt8x+ft/4ztQ0l4pitj40iIVUrN5IQ9oJsLyJiuy2EYhGUScuKGYwVnfqro8pha4JvxWtbiJaWoDAUQnEwqN6L886qvjuDmhAvfOXKMohIOKh6v8qCZSwE0mpRtwyqgZPDeHTO/VYEIZFfYSgsx1KEpN6ISEtPETwla6ca2n55NLF81LVywnrNGxOZBaVsByNStkMoLZPynShkgw2CcnSFQwiWsn4MoSQaUuIjUd6eSMxv2ybvUV/H6zmIzoiKDi0tQ6mYkMhlW2UqJ60bNRyTWEhZKS9btgytW7dGeno6VqxYsc2HY0LRPLz3+VdIa9sPg/r1QgpKEfGG4bJ9It6t17qqW8MxFXJOKSnCAfvvh0b7HAC/HcWBe/fDOeecU6mLebt3z0veyc3NRUpKCpKTk+O2dQRUhjHKigRE8rq7BJOn/oT33/8WLkvyVNTCpddeg93at4fHEqXF9719xVktOLSQlJSkDPPktqnYNPgk/TRW+bp3rmjeLJx17Q1oukd3tIwUoTi5IQZdchUO6thWyqolWThOknX7dLuUo+zsbGRmZqphLEde230oQUUjJjWZC+7SPBxy2CFo0mNfNEpOR7rfjxtvvhENsxrUOVJM+S1cuBDtpZzUpeGYQLQEHw55AJ9NXIbUNp3RsWtHXHnGyUjzS3l3b794JpbPdevWoXHjxluxDLBXMiI8JEU9d97Cv/D1Vz9hxcpsuSdltbgYTzz5pNLphCJuOiNuESSmtaioCF6vt/YkhJ6dcSt6Xrt2LfLz89G1a1dV2Uk4SnCOwtsSmW/9iEm7SSVCjAQ/a9kC/D75L6k8GuPg3vsgKy1VFIOQENWNvvUqsjpBQpRwdBZRwpCztMIcHHnkEbjr0+HI8Lrw4B234eWXX0bA7+MLpAcF5Wc7VQ7MPyQhlB/zTZ2CIyIlGhsrV67GO2+/h5NOPhGdOnVEJBJBSXEJMhuIsvL6VE+gdlu3QPmS4G0/EiL5ksRCjl4hIaUzp+Kpj4bhvLvuQ1OPhUnj/sCHHw7DI889iySRsy9mwVZlR1d324OEsPJv0KBB3SIhhMjP6xJTXIiDDz0Cj342Ap1atEDAlnqOXFnVyXbdiGsclB9JSIcOHeI2dQOBSCmGDXkMrj0PwICjj5e8F1KNNc5X2p7SSyyf1KtNmjTZemVApVWT/rKyUrz4wos44KAD0bdff6nPYlgperx582ZSDnRPMLElZZOY1sLCQkVCapXSRI9UwOz1YAAssMz8FJhTCHjc8gVCPz8W77Z1KTYXxMwFi9CzTz+0SLdQWFqIsDewZSW2ASTKZXvC6Qxx2RF43TGszc3D35OnYr8BB8Cd5JdqnvGsarYPquaNuiJDBTXRj6QyKjIrw9KlS9GuTW907dwNtsQz5vWgUVaWchaxokrRbk9Z1gTKlIay3p7y1URE4mGF4XF7EHX7EZYW/EF7743SpUswe9ESxAIBJUsW3O0pyTqVDyuBcpE6VeLHib3rsvOQk5ePvPwC3pJ3DEU2t3ydu+nY3vmuRqiK0oO8onysXrsaBTm5iIYjcNeB+Drvb2vHgx8v2C52FJShuCgPuTlAt27dYUWLUViwGl6/NORd27aH+l9JCAXiCIVHZwimtLRUEQ/OB3GQ6HZLoaJYxSuzeKlzuSOIRlajNFyClq1bo21WMmYtXoYSqeRirjJxXxGvrYU6U9CUkHQ8/EkuFJfm4OOPP8Y/E6eJtQ9FsZD6UsaBKocVgt0uYA/C1sgvmw01HCMtgFhASEcIJaVFiIQkn0dIeqWweLyI2JIPOaOb+VDJvY6lQcAem8Syua2h5RKHkDq/V2RlU15JeiJgOASvyDE9o4G0RUWeKUkiXN2Y2R69IEQ4HC7PjyzbjlLY/uDMmYDExxYRBfHxB+/ihRdewmuvD0UoJNKTOCfGva4gGAyqY12Kl0uylu2K4sefvsOLr76MH3+drHrNpUKKu9g+SMxvW/tdMuSwmz1nZSgrzEdaagd4XT6UFq3AR+8/jaOPOwsz5mZvtZotMa3UA6ynNljiKRCakpIS1cXGHhAOQVQ3GXWLC0+CY2PTLZrTIwqCRxZKl8+PeUtX4J+ZUzHk9Zfx1vDvMerPMcgpyZEE+nVu28qoG4VL4iDxUA1ykUvE8sIfaIQbrroFt/7nKnz24dtYva5QXPHzR463O2b7V7B1Q35xMCoqb/GE+dqGz5uEZs2ykF88H0EOF9gWkuwixCy57/KKc02LKfe6iu2hSJ0nOp1EzG+chErx+mNRpFghzFy+ApGmLdE6K0OuLfgsKdOKAGq/BhWg3Cx+SURlaftx1TX/wT133Y7/3XJj+Sfudaos1XGw8XDKaWfi3nvuweknHCUy9EmjgnMI60f+Y/lU5c2dhrT0NIQL/kF+aQlSm3fEpddej11btxLKyzoubraBUDaordkyIatdvny5mgvCa47jENVVclu6QPAJLimJNJSH2+1BKGxj2YpcnH3y6bj12hvw35vvQe9ePTBn9hSERcAxcct41IfCqeQjhuOaEXZ5Syt99aIF+OPPP+D2+tAoLUPkxgwlsij/rG/997YtUfW91Kn3pOQkJNvyYNf27bB05XS8887rWLx4MaZMnYVJkybKvYgmI9pD/Fh3sF3zPh9LEcqf/l7NhbDUFwXFBVixcC5mTZ+NJ55/Hqdfcj5SPDb80pjhp6fbG3W5rrClPmMXekzM6uWLsWLZYixbsri8JyTR1BUkxqeuxI21X1QIB3s82RPntfjlW1gNtW5PJMqnusb9lgSrN73GURIaNGmO9h2zMPTN17Fw3jIsmLMc/iSRjV8kpfTtlq/bEvOBc+656aab7lVnVUCyQYGwa5c9IOwmIqoSj6ZNmyq37CHhMfH+lmiJMQRWaOpMJOhyuRGV92RJq79Do5bIjHlFt3rQMDMNVqgMzaWFxR4Tp1rbGq1ByoREjF94JGJrPOvfEZeOvEz2b1juIIJ2CRYvmodlOSW49a770LahD1w7hK17lyth0u62jmoC+PUGW3GcU+Rg28suAVqMCTKJweMOyDt2Y7/9e2PqX+Pxz9S5WJIDHH3kvkj2c4J0PO7bMdo1gRPGuVAZ8+f2qPyZv7h4oFo8TwhdLBbFouUrMG3GbMxbtAannjoIA/p1VRNSmR9ttvJVq0t53i7ghEAuVsZy7chsu+ZJB5SjtE09sbA0KizMFiI3d5rIcfZ87LpbO2RkZqgubSeudSLOgiVLlqBVq1aVZLm948anM5elNW2LZk2aIMkOwqPmRzBu8XKyncXHRT+zsrKULt06oA6NIerywZJGare+PVC4fDX+Hv0bFsxeggNPPFrsuolsnGaECGQryaScM9T0dQwzTEFBgZoDwrkgjsJghmfG4n0eO3furO6tkULslVZ44tcxOtM5wVf7mH9FPPtqo1iZtAiEGHn4gji2rO4zY3F10BginOnsF6VrcRJX/OZmIf7sKuCcGH590KRx43gadVyd820ClT4dP4eEcJVPyt8K++GSyjQqlb8lrXa3CINjyvSkxkDpehtGNRHMM+xV45cI/ELGwdYrdBuLeK7jkJ4IyZZWus+viacLkrfcEUkD0yEtU9VtqZzXKbDM8hM7VmZbu2W1HpT4SNLYepey6bZEakGRkxfBiJATT4oQlDC8bmmB0jGHWUXGJCzK63aS57x589CmTRs1ybMukRD26sLtgz8WkjpNyrM0uri6Chd+sxPmvtWFuDqg/CZOnIg+ffrEbXT8tnccKTF+aRQUUsc8SmJXsUaIqkG3S/5z8hsxZ84c7LbbbuWjDVsc8iwmkR9+20JGKA2uL+Vz+cUuGaWeqHpPPqfTnD8OQdsCSEwrV9VlY7RGEuL0arDLjwLheWIAPGcFRwISlUQsXb5MmLpHkQChKeJeHIlRSVaJ2JSExCum8pyhuRkFKQ+vpEjdZHdCTGxpvXI5981VaVrufIDighUQ+xIhIRmBFDTPaixMWit0J3WV3G5NlMcvHkumnZGWyHjVxEqp5DmsIJU/CYgmIQIlNDHbLKKVwXzDr05IQpxv0YnECmp7V1YORJJiAoh5IrAiUlhp6dZDDEo58CXUjahWAuXLVj2Xf04ss9sE5flSl13bxUm90oqXcsL5WlZMiFxMaggrJGVVXIkcnbleuq6g/22P6khIXQGbGFKtSQswCo8QNq7cqwie1IGspxnfulJmCMZnwoQJ6NevX9xGXqvEb/vHke+VshIdRZmpHMfeOC1jhe0cxdmzZ29lEuIkkaSLqxgLEaMc2OPGLSo8wj7EgZtLQiuUe9ji4LIe65GQ6jIJM1RioUx049hT+Y2f+AdmLJoPK0laPPFWNyfvsbCoOmarw4nj5j+MmZKhJB41dEYNS6v40B57o8eunaWFIvzaw1afFDJ+OaFcbGPE48lMJS9I29VRMM9wfgVJCBVlTRXT9q+wdlxQvpQtZZy4UN22ha7k9DCLtK5UDuXAICcBCikWIsIcq+01YdmeYAt0l112+VcSUpO9QWWw7P76668YMGBAeTmurjybMl4B5i0SyhkzZqBjx44bRUI2SY7ljSiWT55vu3fBtLJeYo+42t9KEi12uleDQy1VDe9xYirvO4Z2NByWIEhC8koKMWbieOSUFCGsPgllAnVa1ZcEWz2NTgWx+Q+qIB9spWk7Dakyxc4nAtx79x7YtXFL6M3idDpJQgw2DOYrp6etJpgKatPBMkr5sYyysPO4vcAnV1AM3fakrX67+m5dAHt8WSFSdpRZdflve8pxRwN1xr8ROlO+K4P1IetFDvtu7MaTmyfLbV8GGV+HW9C4Vq9eXZ5LEjOMc+4k0Dk6Hiudyy22JLr1643k1HRp9zh9BlIhqkQ6ZscBW2j6TyUvDl2JloSK4InYaJCcBp+LY2uSOjGGhNQOnJjKOTVVJ/YabBk4y+JTCVCpGmwYVZfL3ryKvX6DCoa9cXVtxdS6DJZT5j1OkOZK3E4+rA12tLzK/EGizzmnivAnkpBNBedgzJs2G3v17YXUzHTNrdSPCFfJkhc7joLmK1X0w+m+caKub6gtiMlY2d1NElaVqBn8O7hPR1pamlKSBlse3A48cdl2gw2Dk+S4XDYrRYPNAxXqggUL1LCCQe3g6BHOk3C+OK0tdjS946SVJITprDmlSgHHyYOjjKuD3GPvgJooJQHTR8UcCt0jwsmkO5Lh73oEhOC5EC61Zom4MjAwMDAwMNh01EhCnAVcyFp0h64QjFjFfJByo/50j0e5vnZ0NA0t1Y1EyzpuyhMioFU1cD7tIqNzjIGBgYGBgUHtUTMJ4eQ2UbSRcAhPPvU0Vq5aqUjH+iAJ4aegcurM6NTdH5UVOL3uKKYqVNriRklMHMXTZsjH5qP6fGVgYGBgsLOjWhKiVILPgz/H/4F9+vZHRFzxSxgfx6lqUBgkIrpPpAoSFfjOYARMpVGbWwaGgBgYGBjUX1RLQgguftV/n30w8a9JyMpMQ8y2YUX1ty7roVxB1xP1HCcjBgYGBgYGBpuOakkIp5dyy22bqxz6AvBEI9qh28wcNzAwMDAwMNgyqLknxOWCx9Y77kWEe6g5H7Q33QAGBgYGBgYGWwA1khBnzIHzPNS68vHz2qA+jfObOQ2bB/NlkYGBgUH9RQ0khEpBr/3BJTF88KqN2uLWtQKVc31Q0E46DRkxMDAwMDDYOLgTlWiiUVCf3MZw0UUXon379uqz3fXcJMBp1SYaA4NNRWJeM2bjjMHGw8hty2Bj6v2q+ba+GgeJ5zs7nLRWIiGJSLTf0BKyjrv6QjoS02uI1qbh3/Y0ceRrsGlgnlTLIW/E0s8GFZWiyXubh9rUiaaMV0ZifejoldqaHQ2J753xX7+W4v2EvMFTy9Y73tWU+MTzqnAy285kmF6ngq9OHgYbBuVXExExstw8cIMoGoONg5PvTP7bfBgZbhycPYuoXzYWVfVTXTeO7uQ5obby5wkVgq689Hb9lhVV13RoybXyIKasrEydO+4dRVJUVISePXuqjbMc0J3zoJ0JLGBMVyAQQDgcjtuagldbMN8wI7Lg1ZQ/dsZ8s60QjUbL5UsYWW4Y3JCSOw+zPnPkVVVuRo61A/Met/KnLqDMqpObkWUFqDccQ33iKOnaYkeSJdPI9NGwrLGucq1atao8BToxehM6uYjPQZVM5OYS7m79lUzC7nSJiZ89ezb69OmD9PT0uM3OC+7+Rzi76DowJKR24Lbp3EU3kbAabDlwF13uoJuamhq32bEqqu0BbqGelZUFr9f7r+XYyHHDoIzMLrobD8qNuzk3b958p9clTCv1qN/vrzwcoxLOtPPgFsZC1qLsSEgS/sSOxmE0NDUJzXG7sxmDTQfzi8HWR6LCrC4PG1Nhaovq/BpT2bB8G7JmUFtUqw1csMVE9EXMq4zaqt8tGcvoXwMDAwMDA4MtgPVIiOYYHJLxwBsLw2OVwrYDiLn8YpxFy9YHGbCBgYGBgYGBQW1RQ0+IwI7hr4l/oHevbujZrSu+/nYEgpanWgJiYGBgYGBgYLCxqJ6ExGx4rVKUhV2YNHUWfhvxGsb/+QdC7ize1Y4MDAzqLEzPpIGBwY6AakkIl2q3vR7023dfoRxuZPiS4fdwKEavPWCqNwODugsSEH6ea4iIgYFBXUf1JERoRsTlhsfrQjhUhuHfj8PeffvCGys1BMTAYAcA170wMDAwqOuoloTovg4/slctxMcfvo3S9E447PAjkYpisTezQgwMDAwMDAw2H9WSEE8sAn/ZSoz+eQz67ncETjnxSFhuLyzvzr8QmYGBgYGBgcG2QfUTUxFDNFiMH0b9jONOPB3dOrdD9z33wF+Tp8RdGBgY1GVwPohZMMrAwKCuo9pddKMuP1xZu+HlN9/BnJl/Y+GceVgwYxL23mu3uAus54dgxecY53pnRE3pSpSlMTWbnTVf1CUYGRtsTzD/saxvCFXrhvpq6jPW6wkRkahfF7xwuzyIWpZaO5VyStg2phyJgkys+HbmSrC2BcygZhj5bV0wj+7MZXBLw5GVkdnWR6LOMNDgZm5O3tvZ5cL0JabVtWLFikopJgnhnyumFS3lkSgUp4zqe9oQ8+bNQ9++fcs3zUr0szOBwist5Sqyttp109mplHB2FDaoGZRfYWGhkt2/7SFjlMGmIy8vT8mXGwT+207FBhXgxmGNGjVSeZKb2BmZbR4WLlyIdu3aKTlWV5ZNXVkZ3MiNO+hyI8XGjRvv1Ptr+Xw+ldaSkhKVN1zz589XpY2Zxdm6nxnEMbzmdrs8Ovec88Rt7LOzs9GrV6/y7Zt3VlBooVBIZRJu5Z+InTndWwqUUVlZmd49sYaCZgjI5oHbqHMXXYIkxFT4GwYrRO7sTFkZmW06WHYpOzY0GjZsWGOdaOrKyiDx5Wf1rBupV3bmOpBpJacg32BecUkLoDw31JQxEgVSkxtu5d+7d+96sZU/CxiFx638DTYe3Mo/MzNTERGDLY/c3FxVkbE3xBC62mHNmjXlLVAjs80DdQS38t9tt4o5hAYbBuXGHrlmzZrt1D0hBPVnUVGRIvyVUsrCV51JRHX3aeoTmF7D5A3qOkw+rT2MnLYcnHxnZGpQExI5w7/TrY3IRAw0MWADg5pg8sm2AZWAkbWBgUFdxvokRHgHv4Kh8cSC8CKods8N2V5YcqU2ljEw2AxQMZpW0taDI1vTGjUwMKjrWI+EaIrBFpSFr78ejqOPPApnnXAoPvvya5TEAsJBDAkx2HIwSnLrwOkBMT0hBgYGdRk1DMfEYMWC2KvXAHz9xQ/46Nnb8OeEP1DiSWNHiYGBgYGBgYHBZmM9EsLRlhhccMUC2KVVI3g8ISwrS0KX3fdAKiJqSXcDAwMDAwMDg83F+iSE48hy9Lh9WLFsGc674By8/NZraLfLLohFzLfzBgYGBgYGBlsG1Q7H0DJmRdGi1S54+933cecdV+Hzzz9DTk6p3DFjzAYGBgYGBgabj/VIiEv+PC4bdnAtJv/5Byw7BeuKfGAnSEoyCYgZjjEwMDAwMDDYfFTaRVd/qcCl2WPw+ANYuHgJ/nPt9Xjm2VdxzZWXIiOFn1ZWLNtuYLApMF9sGBgYGNRvOBzCtWrVqspsQq44+dS2uXeuBy63BzF3DFY0Brecu1yctqqRqEycZdu5/8LODi43y7XvuTdCVRhytmFwgzVudFh17x2DLYOcnBy1hxONIXy1A5fL5rLtXEbayGzzwQ1NuWz7hmRp6ksNyomyEH2M5s2b7/TLtjOtBQUFah8ZN9dwd4y6KXnGpkBcfiEfbjlKJrGEjoi9KxZVBMUBA6KhX2fzu/oAJ8MkwpGFwYZB+TG/EEZmWwfOHihGvrWDIysjsy2HmuRIe8cYaLA+ZN6rDyBfSEyra9GiRZIXKjKFXX4uxESO5Bwxi5lFZxj2ALArhAE5fohly5ahT+/eeit/hq+spUBXI9f1rHQQGtW4r/H+v/hzbpFDrYfqnrER4G6HlANb8omM1ZGFwb+jtLR0p98pcnuCO8KyF8TpaXIaGAY1Iz8/X21IyTxJY2S26WDrduXKlWjatGncZn2YurIyuL09dQrzITeB3ZnrRuYPli/uGEy4lixZonIDM4UiFuqCBCQiB7dcx3tDbA/vwLZC6ugQEJ2ZYli8eDH69u6jt8N22XDHqJw1CRHeo84JKd7qSCSK2cWw1In4UTZEfOhHhSWowiicSxW/eGjOGY80bglXX3PKLSHplBPnalNAJUqQcCVmFlOwNgzKiN1w3OGVBc9gy4PDhSQhHFow29LXDhwiTCQhpixvHkhCWrdureRYnUI18q0MNmbZG8J8yB3Gd+bhGCetJCGqx7bqnJDyixjHRqNU2WLcosy12lb318tTNubMnoY+PfsjNT0DUbcFL4mD+Im55IHinv7ozS0nmpgII2JG5IUiEdG4C69yS6IQgwUPny5xUWGJvQKd8RC3iLksOSdh4vMcV0J3xJ1XCJXkeLkmiZJzua9ICMOMo5oy8q8oLi5WQmRmqamQGdQMs5X/1oUzJyQpKWmnrsy2JLiVf5MmTYy8thA4J6Rjx47xK4MNwdEjnBOys2/l76SVjdH1tvLXYI8ElbYYEg9R7iQO+o6gJn0r7nQvhyYOWvEzJFvZ6itt+KO4AsNX1/o5vHIJaeDzPDzKLUUWSFQIHmjKAyLkGQlxcs6dVKgfEiJ1LkdxQHKj7lYKx8DAwMDAwGBbonq6xd4Dl544yB4Qr83eAxciws7W09nlSt4XZxZRuGz2aoi1+Im54kM8AsUf4iTCqzolNGlRUGRDDJ8bK1NheGwhJbpLRHl2SVj6Ig7l31a0h/aaXvCZdEybuEdlNNgzE2McFTUSlPecGBgYGBgYGGxLVEtCXKKo2X/hikXgsYKIFuVgbV4hwt7UuIvKUP0ZQiAsFVwEdt4yzJu/CAVBkgIv/KL2/VYp8pfOx6LlBeJCQA5QthYr5kzB3HnzMX9ZLvKDUURiISC8BiuXzMTixeJ+8RysXZcT5xFh5OZlo6RET2hBWMIqyYcEKc8PI2/NEhRKuKQ1+jsexiuCpQtmYcnCJZi9ZC2yi0NCbNyKALkkPBc4xyVOSAwMDAwMDAy2GTw33XTTvfFzBUUolPHCJ6rcL0r67deex7fjpqLfAUchib0UyqWGch1zISc7G81btkLAZ2HYW0/h/KvvhTu9Cfbq0w1JEsaahTNx54034NkPRuCCs05DePUs3Hz/U/jlj38wf85M/D5yGKbMno/ufQ9EcOF4XHL9XZi+KogZk8bg82FfIz2jCdq1b4wXnnsZa9fkYo89u8LlKcPYH3/G2z/NxlF92+H6Ky5G1p7HoHWTJCTHgrBzl+OOR1/EVyPGChGZgz/GfImff/oFe+x9HDJSOOcl3gvj8vJHn9cC4XBYjWtxzJ0wc0I2DpzYS9lxPNBgy4MTvjjpl7PQTd6sHfhFUdWJ5gabjtzcXDRq1Ch+ZVAbMO9xviE/7tjZ8yHTFwqF1NyXGoZjXOrLGM7rWLdmOaZN+QNNm7dENEZlXRmqt0H9c9iFSsUFj12CK6+4HD+OHoc1pTZgh/DPH2PRtUtHhGN+pe4/eXsIIlntcO+zz2HwQ4Px1P3XYPH8uZg5NxvJ0Qh2ab87/nPXHXjokYdx9WUX4ob/XIHcklJErBgsS8JkzO0wvHIsjaUA0ZA8twwRT4rEgxELYfJ372NtYQiDn3sW9wy+B088+l80b5iCb0bOEHrFuHP2ysYREAMDAwMDA4Mtg+pJiChlryeA7HV5eODBB3HSKccjOSmg55qup7D19zOca6ECs2NwWy60aBzA7l07YsqsNew6wKxp09GyWz8hCT5he1GM+3USzjp7INL5lSZHQ5o2w5577IFVM6bDkmdHxJIEIwY/+vbdDb7QUvwyayVC3obwe1P0AApXc425FTGBHQEXU7Pis4pjpRbGj1uIk089BpnssJB4ITkD/fYfgNIlC+EtT0sNIjAwMDAwMDDYqqhWA3sQBooWYNgXw3D82Vegecv2iIqid1fXYUA7F0mIBTcniopyTxLLqCcJXbt2x5/f/4CFS1diTXERunXaBbaEE7NdQlSAgD+DT5JYiKcYv1gRf5Zb7eDrkaA4DzWmJqzyyxnO9XDB5XGJHZ8lFtEwuIx8zOvVYYgjnyWxZ3DslPFEhbAElF/27nCIiQt1lkXLlFv23nAoycDAwMDAwGDbo1oS4hZ1v3TOJLz93nu48vr/4bTTzsdDDz2MN94YGndRFZqEcMExdpe4hEREPOnYt/8+sFfMwnPvfIruAw5CA29YDdgkJXuQlJKMOdMXKN+cImoFLSxcvBwt2+0CrxALrhbifBq8dlUe1hbF0L1je3ijJVixdI4iH/B4sWrtOgkgJM/XX+H4SW6EV7h9PgQaJGHOzDnqmaq7RdjJgvmL0aBVI3BBtfIvcwwMDAwMDAy2OaolIRYC6LDXMRg39k9M/3MUvvp0CG6//b+46NIL4y4qg8qfxnZJcG4XwklCKuwA2mUlo6k1G+9/NAJHHn+xEIuo3LcQTQKuvO1mvPL4/fjhs6/w65ixeOudUbC8Aezeow3Clo28/FUYN+5XjPrhS/zvyVdx3aOvo0tmJs48uB++/+hVfPHtZ/j5x4l4/d2vcdmJhwgp0cudTZ4wAr+P+Qd/TpiJA069CJ+/PxQfv/U2xvz+I7749DtMnPA3Djmsr7gkAXFibmBgYGBgYLCtsd7XMQ5IKPRIRQwunx8NGrdBi8ZN4Y0F9fBGFazL4dcxrZGUlIyUlCw0b90FrZs1QLu2bdDv4IHYa/dd4fcE0LTtrujeeVe0bNECRxxyOGZMm4ac3Bw0yGqCyy6/HA3SfPDI82xfGgryClCUuw7HHHsijjryECQJx8lq2QT77bcf/p47D0X5pbjwokuwx+6t4HN5kJzcEPmFxSjOXYNIuAz99tkbxx87CLNmzkB2djasqBc33HQzmjdLV1NSXeRg4q/aBP0L+HUM4ezNYWbUbxz49QZlZ76O2Tpwvo6hMXmzdjBfx2xZmK9jNh7Me/Xx65j1t/Kvglj8zysK2+P2IGKvP4TB+7PnzEKPPv2RIQWZ8zniN5SxXTF5mAhV7G03h1nEkkKOP1nt2ssJrR7OCbHgFeWkXgHDUcMmJAu0IPi0MCJi51MTP1wIwkKSxJAjNKqHQ+KpEUMkZMGn5ozIldznnBCPl7NLBOy5IdMqD7t2YIXFZdszMjIkTCEzO3mG2dIgIaTszLLtWwdctp178/AzaJM3a4fEZdtZpg02Hcxz8+fPV1v5G9QOZtn2OHijqlGg8haPEWpwQaV7Aip/rmxaHhhv0dBCjLJnuRY7NcWUhER50ue89MgPrcoJCEGP4oY8gd41K+G5XyiHEIt4PAJc54OeHI/xSoR0xReI3xPwcV61Z5oETALCG46fjURiRcXzbWGqQ3Xu6rrhO4tGo2Zjta2IxPJpsGFQXtwdm2AeNdg8GDJXO7AOdIxTP+7sSEwjy51r7ty5yiZRGFWNszgXzwlHWOxO4ZHVXX5ePrr36aVaX15+ASPMgfZq3dL4M0km9CrsYiGWbrlQwz5CCjxiRXtOMFVIqEPpnfdopYPSNx0ntNN7z9BOb4RHO9XrolZHJeFg2GKbEO6mggqU6XYWg9oWFf7OoFQoM4L5hrIjnHTtDOmrK2B5pXxVV+c2yp87OpwF9JhHjQLdPDC/cViBw1vOtUFlOPmLOpXycfJcMBhUQ9UbI7MdLa8ybUw39aiqo1avXl2egsTEOISDjghHKHRT1fDO3Nlz0GPvvkhPS9ckRGw1+ZAfHh2ZypF3SQhIQmIuj+rf0CREjCIKPKuAstenleAEyXvrkRC5UMNADglRz5UnOZ42A9wqnd1IHLsjKIPthR2xgK9du1YNxzgrzhpsWbCbk0NdicMx2zOP7ghwhgg5j8ap8ww2DexRWr58OXbddde4jUFtwDLKurFp06Y7ZL2+saAeVeUtfq3AhDuGSpbGuXbAcxZS3mNrSy0PLcbj9cBNt9TyZDdqjEWfwyOGx7hxybUq6AyfVpzCIUfOEeW8EN6rrfE45/SrwuCz43YSuJvXck8/J26/mYbpJklzSJiBQV0C5ytVzZtOOTameuO0SGkMNg/UDWzlGmwcnHxYX8B6iukV1bw+WHU5ZqsgMWAp89WJnU70yh/KSTWgL214f1Oqjo1Jn3LLH8eTOv77UytXaJsaSx1OTWbjsDEpNjAwMNh4bHy9ZFCfUS0JobKy5c8di8Ijhl+zcLv8qMtXrRpTIyhxJasHVyJq7ofWuZV3qaW9pewteUxQjvEQlR3Po2oFDxrGQfuXOMg9RpYuaHith170ly7KvQqD4AQzS31BU/Fkx69+XkKMxFLC4Vc/tJTbPDDkcjfai4YOREHvxBuUS5eKBVdfZZx4FZGCyDjBxeuQcsvwaE9fXGLexU32lGvOYeEQFVtjXPQtIrLWiXHZkhYuOa//dZgMKcbPhNUAE6JyQ+9MTLecpyP0jU7EnivaK4/COG3alxvdUq7aYt4WMJWUgYGBgQFRaU4I4Sgkzs3IWToPY0aNEAWXCn+Ljjj8mOOQZhcolZkIkpAFs+egW9/eSE/1In/BDIxZGsbAQ/bBykkjMOKPWcIaktTKpX2POA6dO7RCEoox5qsPEPY1Qv8jTkY6P2Kxi5C7bgXe+XoKDjhoH+zZsSl8sVz89vNfmD1rGeDzoHn7jjjy8EPhF3U8dfwYTJ78D8qQjqDPj6OPOQqdWzUSrZyPX8f8jhYDjkebJMATtjHhzwnotnd35OfnY83y1ejRs5eiKFwdFlYZ5v81DeMnTEexkIMGbTvg4KOPQiM/F3rX6eMcEx6Z9JLSElhCWjLSfLBy5uLdEbPRrks/HNRnV1H2hZg9cw4Kk9qj226NJJ4FmDnuJ/zxz1JJcSay2u2JUwf2RYq4Wzbld3w5cQ0GDjoR7ZunSdBC3oIF+P7Lr1Ca1QmnHLo/5oz+FhNmLUfYlawWczvj4jOR5Qnhz5FfYfKitbDcWUJ7AjjzohPRzFWEccO/wLQ1JcKrAvD7k3HI4Ydg17bNJeK2uNVpcAjj9gI/IeV8GjMnZOuAazRQtjQcPjTYMPiJbsOGDdXwsiHJmw/nE13qEyPP2oOf6DZv3rxeyIy6mHPX1quhmHgat6jfxatWY3l+ATp07Y7O7VojEC0RF9TECVAKWtr/9EdNLUp81pQxeOWNt1QrfdKY4Rj790Ls1n1/NE5PwzknnYXfxk9GSMJ//uWX8cBDT2HWvBzllhg57At8JYr01/Hjxc6HLz75AZ9+9gO67NEde+zWAu+++grefvtD1VPx+Xc/4+/p87Fnj05o4cvFJacciVGT10gi3OJmKJYsL4PwDwRDQXz80YcoC5ZgwaL5GDlypESbT2S/Qhh/j/sV9z3+JBp36ISue3TAn7+MwptPv6JSquOVkGaml3SKVpLWvOVz8clbL+PSKy7FSjp2hTFh7Cj89NdMJNvF+O2H73HP0LHYpWMP7N25JSZ9+gief/09hD2p+G3U53j9xefw5tC3hEixFymExVMmY9QX3+CBZ95GSTSC4V8PxR9L1mDPvTpiwg9v4omXPoItcv7ovTcxdy3Qu9tumDr2E7z5yWgVvddeGYIiT1vs3qsf9uzeARkNAxInRiwhDZXONZz3vi2Mg23dA2NgYGBgULdQbTOJqoFqizOcG2ZmonWr1mjbdpcaJs2wX8QlrWxRMCQhoth9dhGiMbcaCnCFS9Bsl47oM2APDDr9dLzxzIN4Z+iryLZcyGjUBr169ME/E/9QIRVm5+O997/ACcccAZ8rhJKSYnz+xVhcevmN2P/g/bHvgQfh6Qfvw+D/3YyVxSUIuQNo1a499t23H844/yTcfvN1+ODD78CN7fxeeb47WVqCEiNuiOdxoaSsWOJE4uFW/QCqF8QO4qEnXsK5l/0HRx59MA489Ajcdt1VGP7Oy1iyKlfRFKavXHErHcofnVZ3sAAD+vZA9+7d8cKr74uzkNwJI+JNVWMk77/6Ns646mYcdsRB2OfgffDwXVfgqUceQ0F2AfzuKK6/5mLMnTcfawqFVkWD+OO3Mdi9R19EfemwRaaRaCFad+yIAfsNwKknHY2/Z82DJeTEY4XQapfdsc8+/XD+OadhxuxFOt0+F3bvtjf226c7+vffW95fFrU9Iy1wjioRBgYGBgYG2xU19NXGEHVFsGeHdihZvhSvPfOEtMBfQ747Na6Q1wfVG3tEOLfCZ3ENU17zx4eYKFs1Z8HrQ789UhHKX4RVBW4UBdOxT69e+OMHafWHV2PUn3+j/9HnonmGHyl2HopyViCnJB0t2+qV9yLeTLRq3QwtUyKYs6oAYQ+3ubPhcfklJano1LM37BXLgJy1Eo0IgoyO+FPzR0QRe/1eueCgkBd6SbQoclevxD+zikRx7yfXDM2NZi0aoVPTGBauWKJ2+WXaXCQv7FEQiVEGDjEJgJvnAU88+hQWjP4LK2bPRNjHcPzIWxbGisW52KNTIy01jxupHXZDp/Q0FM+eI77dSEuNYtf27TFxylrESkowf9VyNO7ZR81vYa+BzxfA7yO+xsOPPY4nX/sEg046Bj6vDV8sgjHff4l7H3sBbw8fjZOOkvhL/Nx2DF+99yoeGvwqXn7hAwTVtBs1qCSGb4VQsTEwMDAwMNiuqIGEkEuE0bl7H9x836O486E7EbDDWDl7VrXqi/MMRC+qdTk4FBKLcTN/raZpFxMioh5Ei4hHFKgbbldYVKIXXTu0QHTddIz75Tf8OmUu9h10mtrOn3MuqDutqA07olvw6jfqEl2eAm7bYrvlHj8FVlRDVHokIsGLJ2+yxEmeyFPeldvRqChgYQsc9KAtz3jDJ5dRuwzhSFjFWMUzFoDlSoMnKVWpbcuSABKGEVSCVWK8sNx+hDxpaNoEOK5/I7z9zqcospojEo7C4w8LzQkhEk3SJIzxjIbFfRKslDQRVQy5Vgo67tEdk8cMx8QZi+GThHVu4YJdVgJPVGJkWWjfrQeOOOYIXHfFeXj3qVdQvLYQQUlHh3590Kt7Z0z+6Tv07N0Z4hkRkUe3/Q/AwEEDcfChe9Mq/pYZX54kpMPAwMDAwGA7Qqmn9SHK2WuhIL9IlLcH0VgU+YV5aNasafx+ZVCtUakrkqCUtUd9WUPYouQDcq52CQmF8dWIP9G01W5onZmsvuBISk3BtTdcgxefe1VuR9GqfTN4PX64RVE3bd4MPjsbS5bMUTSDX55MmDQNBZYfHZo3lnDD8KivRORu0MKIUb9i1y7tgAwOQbiQv3CWilN+aQlKom543V545aEep0fAnYrUBi3RsrEfM6b+qb8kkWjPn7MYK0t92H23juAq7z6vo7x1GhWx4nXMg5hbFL+QkVKxP+3MkzDxz0mYN3MBkrwepDdpgJTMFCycPkuTmYiFqRNnoShUirbtW6tJg77Ulti3X18ULP4dL7z1OfY95FgkxYJI8fngU0NcNlq0bIU99tgdRx15GEqKw8jNK5QUx9CqdSscefjBOHDf/vjow19URweHxTp02AV7dWuDzl3aq6VaVNTlRxMwdWGwk8NMSDUwMNgRUG1NpT4TRTE+fvttPD34CTz20JNoIQo5tWVzTTQSQJVGhawmpvJKHHAwwuexlFtL7P8c+Tkevu1e3HLTdRixsBjnXns7GtmlCIiGLPWkossBx2Plyjzs0rwhmqdodWlZASEyHtxx7TF49dXHcePt9+GB/92Iod+MwOMffInmHi8yw0UY++1nuOfWW3DtbY9g3ppinHn+ccJsknH2Wefgr3dfwb133IzBTzyGvQYcgUaZDZCEECaMH4k7br0Lt93xGH6ZuBRvPnM3Rn35Fm669V7ceetNePrtD3DRfc+iid8FiU4cmoioNLmFhChdzu9r/EIWSErEvnlX/Pfa/+Dbt16AK1IGJCfh1nvuwnfvPIs7b74Zd9zzOF77aAyGPPcI/Bn8ZNaNmJWK9k3T0TZlNSbOXo2e+w+Cx50mIYsM+MmtMIsRw4bh/jvuwQ233oluBx+GDHkPASGJqeEytdfOTffcgx+Gf4M8ISdR4WMfvPQ07rx9MO677yHMnbtQTQnhO9KfEPMd8VxSk2AMdh44n10nTgI2MDAwqIuoYRddEoggSvNCKCkIIuIJI6VJSwSS05AcC1ONlcNRYHPmzkGvXr2QlhaAXZKNZaUetGraDHbRCqxaF4bH45OKMYymrdqD24a4YyGsXV2IrEbp8PltrJHzpAYNkCKKu6wwKMo0jKwGGRKVEqzJLUR+aVgIRAxpjZrIM1JVz0qkJB+52WsRFaXKYZFGzVoiKeCDx+a6HEDOuhIUhQvhkmc3a9YKSaK4I+FSZK/JkfC9iAgJyGzUCI1SAyjKy0dBWRjBshJkNm6KtMxUJFdD0ZjcgpJiuKIxZKYJRYnmIz/oRWpmJnzskQmVYvWqbLgbtUNDue1BBLkFRSguKVEEgJ+mZmSIW48NK38NCj1N0TDdi2D+EqyNZKBNk4aISZyXFdloK7IJZS/DylLKizNIbCS36IAsn42StcsQSRW/Im+uObI610aLLDfyclaIrITAiQKiadS4sXAhryIi6r3F31e836oCalhr24BLZFMOG7tHgkHtQPny81yzNX3tYT7R3bKYN28eOnbsaMjwRoCyWr16db35RDcvL0/rgJUrV5Zro4qEa6toxFLf8Vp2VGy4nLoHsYSt/JV7OhWNP2f2LPTp0wepaen6pgLDUw6gFgNTk0J5TSManpM1lKLnDwdcOIW0whdhy4vxyHM4/EAlHh8IUecVrhKeU37cSIg3pairIR5VUVRcBDtqIUOIx3qZRQVS2Y5rjVHHOzFzjpUg/iwOFSkywFRSHnTHCGnKQBpCe6adf5SJii7HteSa70ktLc9dheOgPz6foTrPVEfGMxHbmIRQQSbubWKw5cB1WJKTk9V2/ga1g0NCWN8ZbD7mzp2LTp06KcVqynjtIfoYLVq0qBcyc0hI9SqXYw0xL9w+r7TjuQ8Fd7m14bZ0LwgF5AiJ8z+pAiNyn1SlEqjolBUJSPyoEH+sWyvaRDBUJxT1hPhz9NqnIXXUNhFxp1cf1e75y3koei4KoQdJHOhn0abiqXKmFLgcGCijRQeJphrwIxl+vRKl37gbhkJlr+MrJ5wTE09/YrB05xwt7UuM/Io/j5qzEScaMX6/I8RCpYc+CCFkFLiyt8RlnI6o92HB6/HFCYh+E45hlBKNQrWW2w4kS6ygDLY8KFcj242DUZZbFiYPbjwoL2dPso2BI+sdxTjgudqzadq0aXKuL7ihjDZR9YmrbUnrXDQrv1SxREvTf1lJiRxtcR93S6HJHxcC69mjJwJJKXLfhyS7TBSpW9RhMmxPiSg6rVjVLrlqTgILPI1cU6uLW8vFAQ1uhMe1NqicxZ3tU+cO3SDxYDJUOHHwTFcfTiWiXMifVtPajyhvV1w5S2XD4Q2f5YJX2ERUbpEE0J3254QmpKn8OU7YpAkSG7mMUZFGJb5q6XaSkjR4XKVyzcmyQio4K1fSFfEwTD6XoeuQ3HKiYiVHpoyrmbqVTCypDKOSbq9Ko+0WsiHh0B99uGJ+sZd0qOXdSVRUyEJO+Fm1UDRJh1feme41EaMqVi0BJXo5468mdRoqbForO7oj0SEkHGWvZaPP5SruQT87DjlVIcfd/BtY2W9oE8Dq7AxqB8qOwwoOql/fxyARrMvYKuOR+dPIbNPBBkYoFCqXJ2HK87+DPXDRqOjdeJ24MYR4R8uranQlXs6Y5kpzQpyMQoXP+Rsutb6ERxQhVZb+ssId46RVuosr1vjfrNmz0LdvH6SnZ8oVFSF7ArQihFvOFdFwhmMYkgiZyk5pNN4jCaHSpDIWO1GyBBVwOeiU3sQobwxTLLVi1YpShUvyQPB5VOTqnpyKex1bDnKQJIhbBqG9K9CqMrRvmpiKvwuFBXkStAsZGQ1UnNQ9+WP8vbyOfxmk06sDtBXR0Y+jimf8nSMDIQnhsZxwiewZc7WfjJKTvqs+N2KQJCpKvryUO3KiiJQYD8XJc7nnpIf3hQup59O/CoLhqz/KPO6IVyrehCMcOWP81blITpyo6MZ9a1KnvdeGhHC76gYNGqhKqiaYSmvTweEYDnepHa45Actgg+BYfFZWlpkTsgVAxbJgwQJ07tzZlONagnmOipn5sGXLljt9HmRaCwsL11+2nQl31LjwDqjt+NU8Dq7zwb+4G1G2Lhd7LDzS8ud2+nIUo31qhW3JtSWK2la9ABKGIjQEQ9HKky197Zo9JCQGukWvxE9FKIZKrdyIV0fJqWvlQyvFiqzOMzokzeCVXFORKwXrpE+fcyM9S1gDFSxtlC2dq7vKpzxHzpRfqmD5k1NW7Fz8TD+dhEPSSZnIuXYqaRXtb4tmZthOhwpvETwy/ny+ttPEgVfqWm469vwjlB851/cZnrYnlCzE0IZkQF3LOQkIiQz/dASUb3VPG01yNJmTSMaHplQA+kSs6Y9kxSF2OigN7ZeSib+1WoEtpQ2xd53PjNkUQ1C+5jPdjQPl5cjPYNOh6se4HBPzZCIce2O0ITwe0an1pMwmprWGFFOx+8XoFrHu/mdvRlwRVQIF6GSyxPPKUApUhK0VqeOuerfEv99NhA5X/yVALkgelL0oVSpOrTwdl4naNH5e7kiTo4peESpakiK5x9sq08RNfBIolT8/KdYX4kyRN8qRN7SX8uASwGewF4Sf/eq48pXQLx/Eg36Olpnuzah4aXFJxt0kPkFFU4xXiJGP5EhsIkIKSXwYF3csInbs1YqTCJWOePzVeybBkAPn7dCPIpGa2CmjiAkXvveqX4av7xgY7HgwLXYDg+2DCn2WABZHLl/O1rE7Fua6oHC5+ev0ZiQirniUYq4eqmVOQ1VV7qxm9xuPfw+Ldyu72PCzqVSpkrkYGoegwi7dW0Mi4vSBKNhB9QUP2/Vu9n7IkWlUHQw8d4udBKTSLXZalet7ivPQrZxrW7bE4r1EysR7RsSBJ1aGYPYyjP1rtsSFduJeDCfDqgmx8VA0dAw5mZi2BXkFGPvrOD1TRSx0zDWJoD9OP5ZUIippVERLORKjjhJjMSRIHCbj4me0VqHIiRqos0sUKWG8HLJksP1QtYVlYGBgUFeh9VEiqEjEWNIatu0QFs6ZjssuvBC3/u9ulIbqT6VGEsK1TJbNm4YLzj0T342bhhClxSEmpXp5YWP5lPG46MILcMIpF+Psky7D+InzVG+DeFfKmn0KkbjYPG6GKWo6qvsc3GpyqRAFISduccgRCs0n1K9S/GqSEl+KKPrs+X/j0Zc/QJHcduzZpVW5C0/seY/PZDjyMpcsXYmHH38KIXmuppFiL344EZhhrJjzDx579kVFUvT3vByfJJ2SWArRYT8HFRp7T9Sn1hK26rChCyFp1so5ePHFF5Ev4euYG2xvGBJiYGCwI2B9EiKgokyyLMyfvxQ33vkQHnvhNTz+6P1omELFVE8g5GDJ9El46K5bhCCEMH3+CqWkI6JoOf9D9Yogiuiauchq1BjvD3sD11/cD/c/NRjr6N9bgHBxCcqKoigOKb0tJgg7Uoyo6PKiUqA0xnk0clGWi2hpAUqC/NRZ3Im9W02AIVdwo6ioCNHiMApjyaq3wiuBua0gooVrUFqQg+LiYj5RkUdSEx23MMKF61BcGETQEurhCYg/eX9CLO3CHJSWhOT5cilZIGfpbPz+6y8olHiGwcmiEURKCpAvcc8poRtCImeXIhouQ0kxd8SJE45YEO7iNZg4cQKKhZ+oHh8DAwMDA4NaoFoSwrkCdjQfY38djQsuvhRff/WJKJkpiEQ2fiEfrXwrG/2z7UHdnBgPGgqAx/Ugjnfp1gsvvTsUWUlu2G7OrhD3qivBae+LnNylsGMR+CSQZk0bIiXAzfuA+TPn4pGHH8TVl12C6y69HKvWLcLMObNx2dV34j9XX49Xnn8WESEev/0xEedcdiX+898bcM6pJ+L33yaAHU6qn8OKYMzwL3Dsmefj6htvxssvPIeIHYNfWMHMCeNw2pXX4fpbbsS5Z56EEaP/QkhN+GC/RSnGjBqNY084G/+9+QY8//QQeIUgeGNh/DB8JG695XZcevbxuPXmh7BowWp88t47mDh1Hh5+YgiyVy/ByG9+wiWX3IBbb7gRV5x6GsaO+A75xdm4/KpbceXVN+O/N92EFUvy9QySGHtT+Al3TJE0RzIGBgYGBgYbQrUkhOMDZcF1+OvviVi+fAU6tGmCjz76HDPmrOBN7aYW0C75W9moP1Hy29zIH6dWJhr1V41bcH4Et68TrRqwpbXPmacCDqlwQIbDNbwZCdj4+ecROPKIU3D+pTdi7179kSZ3Wjdph9tuux1vD30VHRs3wrq1yzF38WKkpLXB80OewU3/vRK+aA6uvv5/uOja2zDk1Tfw1EN34svPP0BOSO+7g8ICvCfE44HnXsErb7yF4w8/UEiQByW5xbjvtptx2nW34flX3sALQ57A6+99jQJ2bZAQBNfijbeH4ZEnh+Kll4bg5GOPQbKQFy5n32n33nj8yecx9NkHMO7nCWjcoBUuvfBidOt/CO6981o0SSoWQvQgbr/nGbzy4nN46Z6b8f2n72LpurX4eexU3HDT3XjxhWckTzRgR5DIKQUxCVvtZqzHegwMDAwMDGqF6kmI6DKuz5Gc2RInnH0l9tv/aPTq3g5jfnxf36w3kLQKGeGEXG8sqoTFoQlKgFSE4vOG3Tj4oOPw7chh+PKnb/Hpp19g6vhlWDvrH/QdsA9atO+KN176BCWuZjjo8KPQ3LMYu3dpiTfefBnFoSByl6zGecedil1btsaAo07BOk74iJAgASUFNpYvC6JZwwbyPAvtu+yFkNuDcMyNlStW4pLTj0WrXVqrnXeDJQVqeXsueBYrKcTKlevkXlsJx4cOu7QQXlkIrzuE8eNGYJddWmGPfodi6Yp1CEckia4IktxRNRBTkr0GS9esQ9M2jVTuaNyqMXwpzZCc1ROfvfM0Tj1yX1x9+Q3IC4oMyNOsICzOL+EEXIrEwMDAwMCglqiWhMQ47yC1Cdo0bYB1CyYhFCrCstW5olQPj7uoDxC6EQspxhFx++GXcwqLH7bqOSGailjwwO3hEvJAWkoGMhpkYl32anz6wbt45plnMWPWXBx/7CDY4TBS3D7c/shjmD5nNr4ZNRorVhdjl9ZZGPntJ1ixZDmWrVqEV197Fo3S9GtJzUpGwxZJWDB9KspKI8qPx5InBrxCElrhh2GfYK2QmIWLluKjj4agIbtgYjF4kzPRunEG5vzzD6LRGH4Z/weCQhCWr1yGRx97BFNmTMeXI35ERnqa2kwwIgQimLdKLQmS3Lwr9ti1KeZM+UfljskLliMWSEaTFBe69+2JaXNnIrc4D6N/n6BJh88jJEb3KbEzxMDAwMDAoLZYn4SIIuKaGHZSQ5x3+vF4/I4rcdyxh8P2pKJrj/3EQX3RNDGsmjcLxx12BD77ZiQeu/8O3HjTHSjlFyBKBHq6Zhn8+O6Hz3HAvvvg4P0Px+67d8RBh/XFgAMPwR233SEE5Ghk569GsiuIr7/4FPv2PAB7H3AoOnbeC5069cGbbz2HwQ/cgn3698M++wzEm6+/qz6ZVawmw4tb770a111+KQ45+AikNGiCpklepKb68eTLL+LxwQ+gX+/+6N1zPzw55H1Y4k0tLpfcCDdddzmuv/xs7Lvf/iiVqKY0Er/NW+C4QYNw+NEDMfixx5CRJmTTY6NZ+86YN3Uyzjj9MszPceOjN5/FDZedgb7998cdL7yOS/5zJfIX/YOe/fZGr/33R35JHvr066WiyK4U9qEEhGAF5DmGhxgYGBgY1Bbr76LrXPHc5iZpcuB6FHLNW5wawVavdqamT6pegVlzZqFP795IU7vo6vUtqJB4vzrUbWXF2NNw0oMc1aRLbg7nEXnEUFJaBCtqoUFGpginTOhIQK2jYltBeNxJDADsVrBFLm4PJehIQ6DmUYgRrhAVnzGE4IpZ8HKxMEv8in2MS+OrxUXEsctCzM0t78WPxCPKIRcVRAjRmAc+8RcT5R8RSy5kxnU81EO4VKtbYqvC8KoddjkcA6SqHg+PWpCM4ymCaKHEI0PRKg/ndfDzXPErSdTLhNCNHUHIlvctZMPPoRexik+TkXgJ+7F9Fau9q/TWDC4rzq38uYuuwZYH5csddLmTrkHtsGrVKjRu3LjSnjsGmw5nK38HVReDU7rGYD3Up1108/PzVXlT+qUmUFlxPxSuX8GVMVyiiCpEozOVohvMYLwUwfE+f52/6lD3xatTAfBrINHCriRR9tzllh+06nkXeikPii9J9DX3eRFnQhbUidLm4kZkF7W4C7EFm0xBOdKGl/TtkWd4JHxFCNQntPRMR+LYmRwr53qZc5fem4bXEi8unU9rxoXLvpOAcJkPtYgHx0b4EHHNZ7slLhCyxNt62CT+6vnu3Cl0pu3phcRJzhUhIfgQW54tFh5xxHwRH41SJuaSODL6tFeWG8aOtunSjgRWYGYF0I1DosyM7Ay2NZz6sD7kvarlzO0sdkXDgsj9YpQRJeT1crxfCqg0eeneJS1qV9wdlZrD1hhUfG1PBeea7fxqjQTGCNRto4UUE4XOoxqD4aRPnpOKcMIqCYbIgXZqgTDe184klRrcU4caWiQqdmIb19680svJi8KPeSQM7ppL/5SpmPiBK64SqpKM//Gf64goMqRukkAwrjpc/io507+iTXQld9hVwcczvyujw1IMgt0afM/xcNQtMSq69C/pYDgq3spTZaP+6FeuNgSmhXsHUH4sfMZsWUO5GmwcdLnWcOo1g02Hs3Ei5ZooWweOvTHaUP/yyPLL48YgMZwdwShdJkenvnLNmjVLpdipvBzFkKgguC2z9qSNE1iwjFvYi3cps0UlRejVsycCgSRtJ/drgiriGyfnOgXKhEjcodRR9NVCa/L101xTXZforgY3jhMnaIUEt3wH+laFJc8c91WDVdaV/FegPPpVPNX07H8D8000Gi3fwIjXBlsWkUik0g7FTn41qBnhcLh8+Mqp30ze3DRQbtQZZri1dmA96CAYDG70kOCOlE9JQJwOD+oB1k2u1atXl6fg3xLjtA5i1ERxZ5psyL9oIzUnpE8fpKfxE41yJ9WCyquWOqtOwlmhlPMaKqGqliaU1b9JY+uAT0yMTlWZVyIQguqivrXAOQvp6enlipL5zrQ+txyqzgkxynTD4BbqnBOS2LAw2DQwvy1atAgdOnSI2xjUBpQb5ybVlzkheXl5NWzlX4NxIFfldhySIatRhnZxF3FXNf/F/e+oplYt+IQ8tPVUwLZULlvuWRQN5ecYA4O6AKd8G2weWD+yhZtYxk053zDqW/5jPlFH9bsloIRnCrCCEkPF3Am1nka5fKqayqh9JtThq1Di5bu6TCw28bMKaLsq9qorZH23KgXqAY5xUL376kBfFTKI+4oHVbVHxsDAwMCg/qBaEsKdXf1cqjymPyIVFYIo/GKSK6mhnRu2/BeJsgypOZxBMc50P4tfpYgq5eZzrlie6FZLEwB6EYly7xeX0q7anlA6mKb8RJ+7RDurD15d4Qq3EpAiMNJ64D2XvAdFOOQ+bdSzOKFVBSBGCAQnuTovx7Hmy1VfNcX9OH7loA0nvcYnvtIx06luuYIY9tUX+HP+KkTEPcNhenQc6IZxE0sx/LzYZRUzpSiTmy71abILYeWQz+OXOfyqSvlShqLxMsl8oEGdg8pf9czUFtX5NaayMTDYGFC/rAeqi/y8bFxwwXlo07olOuzSEru274Rnnn9D3a0fiCGcuxann3gC0tIboneP/TBv4UouI6bUup5DEcGyab+iW7euSEpvheYZLfDVt7+ppUDUlvdKrcfkTxyLslbat6ritbmOB90k3uC5PMXthsUvWqwKCqS+eCl3ygs58JrxUXEipDLgU7lGiI6N3p2XJ1b5/rcokSDnLlqG008+CevWFejMYIcx+bdf8MfEv9CiY8u4b3FoheUer2Lqs22GoGVgoXjRNFzzn+uQL0E/cttNeP2t95And5TfSBAXnXM2/poymVdq2E4dVQDq1KAOwSiRmmFkY2Cw5eG56aab7o2fl4MtWVdaOk466TTceu01uPT0w5BX5sXFV96I9CSlUitDLLJzstGyRUs10WRDoP86X5xFwy6YvwRd9+qNV195CelFa/Dn7Nnouu8+8ESlZS8KOclvo2zZFOS5W+CbUd/g6nMG4LL/DMaAfY6Ht3AZ1q5ZhR/H/I6wqwlaNrQw6deR+HPSHEyZsxa7dNiFK54jlLcCP377DWbNXoa/lqyVB9tYMWMSikqL8ePvU5DauC2Sgmsw6ofvMWnGQiS16IDGyR4snPgb8sNBjPlxAhYvWIy0xkUYI8+aOXMZmrfdFUmeMKIFORj53WiMn7MIgfRMNM0MCPPIked9jQkzF8IlpKlJi6bYo+Ou6NSug5AWG4vm/oU5S1ajUcsOyGrYBo3TfFizZhlyJS1Txv2KyTPnw9WwNRqkSljCWtyuMGK5c/HZj3/j4IEnoEtaDoaNmYL9jjocnBs/cew4vPPm27jhjtvh8+qFaYKlpfAF/PDEJwGqvGAq+C2GsrIyNcN+Uxbeqq+KlpPNU1NTy8epq4MhIbVHbm4usrKy4lcaRn4bBvMhP3ioD7LiF1RqPmn8OgHxJionEqlFtlz4a8YKHHrwQWjagASjPjRfmUYbnfbshgMOOkCdpzdtobQlV/1Q4uGFyMgbLQW3sWf/QmbDZLWdf+7aJRj31es444KrsbbUBbe9FC+8+hFefnekWoV06i/f4akH7kWuXYQrbhiMVcuysXDySDzy2PNqiOKNIQ/gov/ci6JgFO7IWrz8BpdkD2LGpNF48onXYZWW4YUhg/G/R15FJFqEpx75Hy6/7XWsW7USf/74KV7+YARKg0l4esjLKEUUcyaMx2uPPQjLysWtg58TwjBRXnwh3n7pOaxYtATPvfI0wtEcLFg4Gw8+/Z7wrySUrliKp6+7CvnBIkycNAVXX3Alpi5ahcnTZ+DZxx9U64g4xcQTKxN5xBCV3NR8t92QvXI1ovlAkrUOnw7/DqdfdjPSAinlmU2NHNFz3OgeFQMDAwOD+oYaab+P6zhYIWFkMfz0x3y067CbXJeUK56dHmqFUWrICOxIMT4cOQb7H3gIUsVWLSqmROeCVw2xWIjK4Z+/FyEkMhvQvwsyRMmfdPr5OPv8k9CxtRdvf/wt7nrkeZx6+vF46MFbMH/6OMxbvghjfp+Gc8+5BGeddoIacNmtfVsIBcAl/7kdZ5x+LNo1T8ENt96J404+BVddei4mTZwON+dhxEpx0jmX49QzTsSVl56OdnsegQsuvgSnHncwfv5jphqhufl/t+PIQcfjP2I/4w953pIZeO+b0bjl/mdw2ikn4amH7kRGkhuWi/sEF2HSpMnoe+BpOPHEk3DZ5ZegpVeIz5y5CMe8OOaYE3HV9Tfg4ksuxpolC9SwkMoL8qBYfHyI82FSW+6GNk2b4M9vvkI4eymyi4px6iUXKLdOZqNr7cMQEAMDA4P6jGpICOcTuBAJBpGMYuSsXICQtzma79IRLq4ZXi9A8iHG7UHO4tm4+ZoLsOfhx6PbXj2kdU8FymXa2Sfige0J4J8/x+GqK+7B818twOPPvYCk5DIhbCJFITDsEPcXFyAntxCiywWifv35SE4TAiNUxRcN45VX3sQDz32AE88YCI+3VPWGxBBVL6c4ex0uvOwanHfh5bjxljsRFvcxW+6J4ueQEOeleN3cX4bdMzEhRT7x6UUwvwQ3XXohLrzkctz6v7tRXBJE1A6hcauW8KnlI9LEfwQedwRRyyvPslGcU4jSSLoiDJyKm5UVRUFuKYLuNITSxb08KxALA6GoIl0q88SExAht4hAeiUnIlSVk6Ty8/8J9mDzuH+zaqSNSyNyqIi5iAwMDA4P6i2pIiIbqCbFtfP3559iDO6Z6qHhrdL4TIoqyldNw5z0PYMBRF+DG809CQBhFSLhHxSer1Ptu9N17H7z8yn147qmb0KV9C8Bi74JbKVm68jfeFXt3b4VvP3pTrtwY8+sCINAcSaFcdOjQAF17744TTjsX1190IbyWR+3MG3WLYhfXK1auxN8Tf8cLLw3BsScNgjsk70AIDjfHU5vQcchMHLq5g53NIRG5EHKycsUyjPxpFJ554SWcMOhUWJ4U+Ju3R3IwH399N0KSV4qnnn8NBUFbggtJJFPRsWs7TPv9HRXpNatLMGmVG/v27IkUS0iVUA1+J2ML0yDZYK+NkoDEwy9x8IohLSMX6tS+CTw+C/e9PRpduvYAlySrKedoKRoYGBgY1EespxvUwjLUaqIdSoMWfvjxF+wpysklase2OPJfX9RGDGNH/4hvRv6Mi6+6GR2at1Hb6ecUB0Vo7KVgL4So5qTGSM9ooHo82FHkU+LxAw1aIj0thRdCOBrhrdeewRsvPIYWjVvi3kdexDPPvoRu7Ruj017dcPK55+OMM87CiYcfh2BxGMlN2iItwP4ooHOPfjhwwD7o3LkL/vzrb+y5WyshN14kZ7VRQylw+eDyZyJLzQf2IOpNQvMGLnTZYzecePoZ6LJbR/w05me069gJPonHF++/hbv+eyXatmuL3ffYC15fAI0aNkBJ1Iv9DtxPTaBt1qQx9j7kSJx11a1onJGGBklepCULKRLm4fH6kNEwk9xDxY8yiHgzkNUgE+xgUekXt5decw3yrQD69uqFKuvKlsPJSc7RwMDAwKB+wbVq1arKOoDd/PpEfU7JSZeRmN7nQ3/2SeWjXTgzeJ1l23v37o301JpUTgW0rx0LFBK/HkEsjMKyMiBqIyMjQ/VIuOGNT3JgyuKpE7lxDQ4SN7faHM5JNVf+kEs7HxN+eBNXDPkbI797F43F/eWXXIJjBx2H4044ni6UawXxzkcrcdMwMoKonHt5LeSAnw7zaxsiaEeQxFn+Kr4SN/HI4RPbbQs9Entug+vh29RBKUKlNtKTK/WC9VcrKkwx3EeIe71wFUTn64GohO3lvBnLVlv4c08hD68VU3EjJvaW26vix2cwmg6ys7PVlwiJe0uYmfNbDly2PVG+G7NaZX19D1wuu0mTJmrZ9prkZfJo7TF37txKW/kb2dUO9XIrf2dJXafgcVdYm4atalFPtignr4tXooDEjV6EK+42wa/aJIv3xX5DZkeEijeVrDtJ9DTJma2GJco/MOKBGcdJJEkH7yvyoW7GjVyJnODyo1PvgeiQFsRxAw7AfvsPQHrzdtj7wCOUOyVlLWYB3dNoySu+IOeaKpBcaDJC9zRJijp4xI1PxZFrkHjkHfp4QfdxsqKm1/K92RKSBKjfvRNqTNxz0EXcxQuEc+T75p66jIslVpQHl/Dn27fdklMYQW77r0iQjlRiXnHA8BxjsOWQKFO1QVSCnDdk6iuqpr2qXKreN/h3OOXcyK52cHa+Tqwfd1YoriAozyPLly9XZ44FFQnP2V7n57kEJzCyvU+jXWgFpCAn4hJz581Bn759yzew2xAUl9kBQAkwrqRlEWnZW1KgwkV5crQRSEpGwO2ngMSVyIXKXMmG8yY8ooS50im3+6c0hRTIFQmIL0Z5CjXwuuFh5rMkbH8ySmNe+IUgeKNBCc6rCYSErRb20k+Qc275zzDFXtgEj/pckwi+I4+cWyQq4scT46RVZnCJgUQzIiSB8ApBYKzo3oJfziVOKp5eFUevxJ3xZ5r53PXBOS8MV9wKC1ITUx13Sh7iQsVp/RdNBswN7Fg5sYfFYMuCazQ4PSEbW6nVV4XBnpCmTZuq/EgZOBVlIowyrT0WLFiA9u3bx68MNgTmu2g0qvJhs2bNynuca4MdjbgwrSRdhYWFurzNnz9f0lDRm8FudfmBywoiQkUoisVlhRCRFnJUlIrLiih3yj274ulX/lavXYVevXsjNSU+D2ID2CFIiESSitQtLXvGNyJa3HKLKStDzOOGX0iIbflEWZeqfiPYUumLQ0tkFUYyUuwSUdUhRIVFcCAEMZ+E40ZAZCgBI+KTcC0hAJShK4KokBLxLcSEhIGTUy1EPRZ8liYkrBaTokKEGAcxrpi8wDiZIEgESCQU2Dshz/JZLgR98s7cEfjtsISeqtLiU2t7SKyFZITdPiEdZSpuQq0kauJPCAjJUkgKA8OtDHmipNElafNISl12QK51T4hX8oYl8WZ8PVaShM+oSHqEDDkoLS1Vu7wyA1ZX2RtsHhz5smxScfJYW9RXRVtUVITMzMxyWRkSsnngkCBJnaMrDP4dJB2UFfPhxi5WtqPJ10lrOBxW15XmhOjE6H4OKja2itni9Yh9zB3fR4ZzDKrBzDkz9ZwQaeEmgqFVBW3qfnGmLHRPgSJicqV7JGwUFxeoORENMhood/zjGImL4xyql4IVPwdqOHmVlZmfnECFSKhweM1A5baShZIxL+KVn80hFYGEx/fBeNDQrxMW/Sm/6icBzs34A9VzVCoYju55YA+NhiYPmsjoN6+cK7+MD6+qPsB5BH/FDSeFOE7UjYoH62dXDmHdunUqnyTOCTHYcnDm3AQCQig3okVVn+HMCXF6Qgw2HdQjnBPSuXPnuI1BbUC5OT1ynJu0M4MkxOkJqVRDsfA5Osdp/SqVJAqVSpKKSt+u/Bf/VyYRVa93PGhlyt+4WhVIqtwq1XHESYNjo4ZHhHyoS8pNMpMKgD+8p+eSlPviG6Db8oovTmrKIfZy6dzlHAz6VUHGTY1Q4ToHxoUzORyQjOjXrzmDjkj5fVo6maEaaFv+JhAQQp3zR4z+11ZVYFpHBgY7JwyJ23RQdvWh4aC5hjbVplarB6o6dvnLUZQqW9A2fP+i9HbGjEfixfkRomqZ8LhG5amWA+86PQskHpxXwR4jG1EqcUXexLB3RO6rSb28pkh1AE5AqsdAr8RKIsBffYtzUDSRYY9FZaj5FnRYFdXZEXH7its8E1Ot+/g9AwMDAwODrYQaKJce8w9QoZblIyzkIyytaPWZp9y1SUyqYqfTV5Zo+UI5hlTvQ5FwDO5Ey4SSeHBoRJG0aIGaUBSO+cULSVqyuEhSUz3JT6IiKn7izKW8FMGwLf3hjB1E/szROPLEs5DHR0loHMCxbU4E1cM3JMSeWETLlo+jO4eJqGGbmFxzWMWxNDAwMDAw2HGwPglR+owTVMswc/osnHna2Tj9lKMw9J13ELYD8S6UGrjLzgRhAUWrcnH1JZfj8MMH4qRTz8TKtXl6lkf8KxSygtmjv0bvPn1x4OHH4dDee+HVdz4BqQu/eOGaGV7hJuqDFNXFJjRDfVHCeyF47AiWZxcjTMJBomFzwXWXWvKdxIeTVF3iLubmih1CSCQcD90JGIPrr78av4z+WVsYGBgYGBjsYKiWTfCjTZ+7GN989zPuf+BpfPbeE5gxcyZyiqQtL8o5rgd3cnjg87XA7bfej59Hfotue7TBb+N/ZmeEqH/2FFF0NtIieTjkkEPww0/D8dUH9+LrUd9rEuIK4YuP38JVl16Eq665E0uW56hepNKSAjx0/5248aqr8Ml3YxF1+eFlUKESDH3padxw5VW46T/3IreErm0smP43rrr2Mlx57XWYMHG2kj2JiBXjni9BIYukRfXjjRgYGBjs7KhP8+WY1mpJCHsBfHYAGUkhLFv6D3JK0+BLbojMzMpfvuzcsJHUyIVWHRohEi3DD79MR7tduvFDWyFiHDJh94YHlouLlavvhjBpcQThUAzpcjHn548x7LvRuOOJZ3Hx2T1x9aVXI5QLjHrnLWRH/Ljt0SexdvFURKNhuENi/94r+FZIxm1PPojDj9oVZ59zMXJWFmPw/+7B1Tc+gMEPPYW+Pbok8A23vEB+QcNXaIZjDAwMDAx2PKxPQkTJqYmRkRIMOOhgjJ8qivH2e7Fnl85ApDTuqB6Ayj4UxPNDnsHJJ5+M4wYMQFZ6JoQvKHi4norIieuF/DTmVxx3yvl4dshLuOfuuxAQvxN/GYNWLVvht/HjkJ29CstXrcSCeQsxY8I/uODCi9C4UTNcc9UV8KUko7TMxqjhX6Fnr174ddzvsCwbCxatQE5hMdp22AWffvA2pk+fgVJ2w6in6o+GnV4ZAwMDAwODHQ01fh3DLz2K85bh029H49xr7sMLQ55GwdqlmD5pvNytL61uUe6BDFx1/R346svh2K9dFr745B0UqzsWfJwQKsayg9j3oMPw2bC3ccGpx2D0j9+rCbyWnY40v42S/DUoKE3FDf+7ES3aNoFt++CJlInfMkRdyQhKMFGXG1bMjYaBGMpyS1BWkom77rkfzdq3xt2P3YvenZrii2Gf4sufJqs5KdxgkK+OC5Zx7xrNmAwMDAwMdnRQMdcnVEtCONSQlN4CBeuWw1W6XJr9USxathYub4bcrScCEoIx848fMerrL2C5fJiwLBeu5GQhHza8tu6L4He2tqtMbdxGqRw28EB8PWw48tdF0Gav3RAJhXHuqefizNMvxFlnDEKDZmnIahbDO6+9iaJ8C3c+9BTc4SjSUoFOfbsjb81qnHPmaTj5rJNw5ol7o4HfBW9KGo4/+Uz06NMfa9fKO5Dn8Dty7tXi9/kknmYoxsDAwMBgx4Tnpptuujd+rsCJIuzq9/q96L5XTzz4wGCMHDkC+x94OA466GB4XRGlCCtBLLJzstGyZUsE/Orj1AQ367mucr+uIoZkrwvvfTAMb7z1ETKbZOHqa69CWsAPKxxRs0CSkoQElJWgxJOJbt26C5lIQkmZG5kNM3HAQf2wYlUOnnxqCD4ZNgwTJs/EAfv2w4B9+2Lk6In45NPPMOjkE9GkeRscuE9v7DOgN/76azpeeulVfPbZl1iwcC067toajz5wN4a+8zEKi4O4+ILzkZnK72cIF9blrEPnjp3RrEkzZbOjgMuK+yWfcAdFgy0PR75cdbG+tao2FcXFxWqpexJ8I7PNB5dtb9y4cfzKoDZgvmM+3Nhl23dUhEIhXd4Sl20n1Mxc1cVvgdvQc38Sqr2Yx4OIbcPjTlx1U8PZyr9P794iwA1PXqX/HULEaqE23Vlkg4uQ6U9zS0tKgailJ+pyLx2uBwKP/CUuKCZn4t2rvr2tAovDNSJbj/7SyKXWcY+KF/UtL10oN3qbXC50RnnxHsGvZpwOLJ7vMNIsh7OseHIyJ/UabGk4W/mTiJhl22sHLpdNpekQN7Oi76aD8uOy7Z06dYrbGNQWzIcbu4HdjgiWr39Ztp2K0QW3yysOfHCLI1uUJRco83C5ctF3jrtysLzujIU2TkA0KCyX4gVcdkwvEiZwkZR54ZNf/b2MY8S2OgJCiAOPT2QswetH0J2EzAue0jicQz01MR763Kkk9SLvO57sucBbdZuEGWw+WDZVj6YcKWNjNmxYGTqyc7ZVN9h0mM0paweWUxpu5sZjfZAZy5fDH3h0LVq0SGkwRxgUQtVzKgzHjV4+nPepSCLUgup6xeoVagO7FGndxgNUfmqC6mzZkeDwCYm3k2GqtjQdwW4zlAsx/twdRKbscnQ2V6uJ8au8ZrBJ4HAM5cv8yTxpZLlhFBQUqN4jyot50shs00EZcpNKMxzz72Aec/IZe+Cob9k7wM09N0aX7Gh5leWLRCQYDCqy6lq2bJmkQSfCIR2J5xQGzwne0kYLjwE57hcvXYw+ffqogkxSohzWACXemm/XeZSVlSlBOtulO9iYjFNfQXk5FT7nhFQns0SZGmw8uB04KzVnXojBhpGXl1dOQlTFaMryJoONVk6i5xxBwsiyerCeS6zrnLqxQYMGGyWzHa2+ZNoYZ+pRVdZWr169cSngBmxVoOaEzNZb+e9Uc0JqQElJiSJgZKyJMIWtduCcBU6+YmvdYMuD8k1KSlIk2eTJ2kHqQWRlZdVIjA1qDzZaFyxYgI4dO8ZtDGoLzglp3rx5vciD+fn5ejQhfm1gYGBgYLDZMCTOYGNQIwlhNuI2/jT8IoQf7mpTA0zGMzAwMDAwMNgI1EhC2KXmChViwfRJmDVvBbILyvTuscI1aKqHISIGBgYG9RnsCXF6Q3a0+QoG2x7VkhB3zELAKsLX3/6IoR8Nx7dfvoGhQ99ESSju3OQrAwMDAwMDg81E9SQEFqyiVZg+Zymuv/NR3HLdueB+KbPnLkX92crfwMDAwMDAYGuihuEYG3CFEQqFEQlx/CVJ7GJYsGi2vm1gYGBgYGBgsJmoloTYXL0zuRV6d++Ae2++EHcMHoLJ/0xHkwbcwM7AwMDAwMDAYPNRIwkJuxtg0DGH4rH7b8A119+OZk1aYc/dd5e7+guZREM4QzQ8JhoDA4NtDy6mZz6VNDAwqOuofjjGZcPni2LpqpWYOn02fvtxBLrv2QOZDZuphcmcL2QSv5ThCuI8TTQGBgbbHiQf0fhWCwYGBgZ1GW5+QrW+ATeJRUlpFKvX5SEjIwWDTjgKXo9ept0xVVFfiEdN6TcwMDAw0HWkgUFtsH5PCPNOzAV/IAW7dd4DZ5x1Ho486kg0zAgIYymLO6geVbt/ecUHVDU7OlkxBWzzYOS39eHsCmtgYLBjoL7Vi056K/WEOCBJiESisN0+hG03bLnnsSPw2mG5U+HO8cf73EvF2eguEXRd1ewMSNzgzzEGtYPKMyK/6vKLwebDKZcGtYcjL1OOtwwS60eDDcORVeKmsDsrnPTxyHzimj17trJxlIJt8WjBioURtT1y7oZIBj4rQlcoiFj0LvY0JB4iPAksLzcHPXv3RHJyMm9rSP7jKbMhj5w/4swdKb/juK0K7UhDPFa6jF9VniJbZUl55UTbJ95wfBJOOBVh1A6O8mRr0xGoKWy1RzgcVhsXETUVOCPPTQe3yObmgJQhJ6g6+dWgZpSWlqpNFZkfjcw2D8x33JyMu8FSjjWVcYMKcONEzuPizrJO2a0tdjT5cmdvki2n48K1atWq8hSUFzxOPo1FhHL45MILtwjEL+SEZCPopQoXYiK+hIZo92I/d+ZM9OrXFxkZ6VUUPVW9uJQwbPHnEbcV5IFu9BXPlK2ckKhwciwPbrVrr1jKhQqRloRyRPAoT1EvTbmIg/aMn7OVeYV7eo25GK4D5x79009iOOuD236TgGRmZlbKAEZxbhiU15o1a9CwYUNV2GoqQEaWmw7uokvZciddFnijBDYM7qLbqFEjVa7NUNbmIRKJYOHChejcubPJe7UE6zuSENaNLVu23OnrP6a1sLBQ1VOJmli1AJSBFERXMnwurxhR2m4hJG4hER4hJG5uZ+cRYuKTczmKvccjNlJwSVaUhnext0TOhVFw6zsNfUay4NgkntFE5R4HfGy5tGHJ3bAYx42A/KDcyDNiPNHQ1EY/M9GGZaByOSBhYfzolzd4TcJDv7zv2DvhrA+nFU8wszjGYMOgnBIVo5Hb1oFTlonEPGpM9YZIlJnBpoOtekemifJNhGNvjDYE68X6kv+YVofsr59i0Q0kCpaQDfZ8eJRO1hvX2SQktleOlpASDs8QFKAIUn6VGwnSgldzEQmMhELRgzhhqCAVciOuiPhL45WfgBh5tFz7Jaxk8a/JC8NX4Iky7JLxyD0JXeLr5o6/4sOSezxTMZLwdbzFqZzwvoYoQbliuAoxj75S5IQ9J3wAzw0MDAwMDAy2FhQJYau03Mg1CYMvFpSbHM/ziIKnko/AI4bnVOwWWYZ2rRS80Dl9LnaeWFTpcQ7BROERt0JKXLbQipAOU4gFyYot9wi3PNeNsHqGW/EECUWOjJw3FparqCYMfK5YWgm9pXxGRA2tCPWw6VZixWcr31ywKQo3yYU8g4FI7IRe6DSQLrkkrny+gYGBgYGBwbaFmhPidI078LsiyF/0NybNzceAw09CwFUET6gQwz75GHmlQI+DD0GnPfZEIMLBE1H08jt79izs1bcXGqb5sHruVAwbNRmlsQAZBi64+AI08Uex8M8f8c34aYh6GgkJyMAFFw5CVqoXbqsMa1fNwhdfjUBJKBkpmW0x8KiDsUvrhgjlzMLn3/yC1XlCJFyp6NK7Gw4Y0A/fv/Um1uQXoNSTjPQ2XXD+oXth3ZLZ+OancShzZ+CEk0/Bbq2yJGZBLJ43Gz9+OxrFwmxSslrg6OPOQIusmLifi5+++QbZISEivjQcd+wg7LJrM2EqwnI4F0URrfVRUlKiJtVwTojBxiM7O1tNAuScBaJq/iOcLkqDjQfnhHCCOOVrhhdqB6kH0aRJE9VFbPLe5mPu3Lno1KlT/Gr9Mm5kXD2YD5s3b14v5FNQUKCHoHjBBNM4BXDM2HG49c6H8euUuSjxBGBHS/D2sOFYVRzDrrs1w0OPPIX8QpICDnyw94Q9CxSaBGeHsWLqWEyaNhP77LcPmgSKcNghx6EgvxC/jPoIk+etwd779EXJ8rEY/NSL6nlrZk/CwDNuQWqzPRXByAguwOAH78eaiAu5OfMw7u/J6Lrv4Thw//7Yvb2QhHABfvzpF3Ts2BEH79sPfTu3RTBnOa67/gZ42vRAvz798PHQl1Fql2Ha1L9x5TX/RcN2XbFf/17IXbYAjz34ICyJ67QFy/DLn1Oxz74HSaUdwJNPPSqlJT4cUwMBMTAwMDAwMNgyqNRMUsMxYg468AA89shgJGVkICotqXDhasxasByDzr8G+x9wMLp26YLxv/2qewtUP0gc1NuxMBDNQ5MWrdCrR2dcePpxWLcqD3NmLYTbDqJF613Rt293nHTCYfh94mSUlUbw0lPP4syLrsGgU49Hn70H4KwLT4QdiWDurFVI9djIaNgA3fvtjp699kSbls0l0hFkNchA3z690adPL/To2l5afX7k5uehU+c90X/vHrjjjlvgj5XgkYefwVnnXoFjBx0hYe+N6y+/WEjPZCyX1qLl8yMzIx39+vXFIYceiiWrVitCpeHMHzEwMDAwMDDYGliPhKhuICuIlNhKeFCk5lN4i9bAl5QOpDWGx9MEXXdrjbKCZeLBr4gIe0O04UQOG2W+CCIutRcvFk+ajPTkhmjfrit8sRT88dP3GCzE4OVPRuKaay6DO+rBvFlrceQR/VQcOPsjlpKEXVu0RtH0+QgE3Zg3bQYefvgl3P/QC/hn+jxx4cbKJbPwzLOP4+77H8bw76cguXFrXHTJBXjhf1fjzoceF5KxFu7cJZg9c50Qp+MQQBliLh+SUlPRqxEknH9gSRwXTf0DQx64Ey+9/CoOGHiyuGE6OFdERcfAYIeFKssGBgYGdRiVSEgFhE7YXKbdDW/Mgs/vQkmoGLawCn7eWloWRnJSmjgLyzU/b3ULgeGaIh6x4+e9Przz6gvotNfBOP22l/Dxp6+hSTOPEAwbHXr0xcCDD8e6iZNwwP4DYLtCEmgxioO8LyGQCPFzFo9ELS0ZUY8HLdp2wIknnorTThmIDrs0VpNJUxvvgqOPORFnnXoi9u3VHvAl4/zLb8Szzw9Bx0wXLjnnZEwpdYPTa8MS36iVJM+S+HlSEUJDpKdmIOxyo3HnPSXsY2AHi9GxQycmUMiJBxF3xcfFBgYGBgYGBlse1ZIQ1RcgiphfmESEWNgpjREtLUTR0kWIhUJYtGwZ2nfprHsMxFV5TwgnH6nOEC8uufxy/D3lF/zy+4/ovnsLwCqAHYsgs0lz9O2/BwYNPBQP3T8Ybp8brXZtjfGjf4WLH9UIMVi7uggz5i1A6w6tVc9EaloD7N6lMTp1ao8G6WlwWWGkpGei3a4d0GX3LkJw0lGcX4CctWvRqm0rXHrBRcjIaIIipKJd60xMGPcDghZjCIn7KszICWEPib/bisGf3hxt9uiJ448+Et99/AbKLImqpEZPtzUwMDAwMDDYWqiWhLAjIux1IeL1odQdQCizE0457CC8cfvVePS2O5HRKAutu+zGD1/gibnE8GPboJgwGQzcrgDCbr8QGCBFSInHEnZhh+F1C2ERkhGW8AddeCpGfv0VVqxeg+vvuxdLp07CLVfchJtvvBu3P/gyDhp4LDp0bC6MIKo+11WLmKnYAUleDxbPn437H3gA1918Fx4Z8gnmzJyGR++9BXfc9F9cePVd6Nb3GHRs3QmvPHEzJo//AlffeBP+e9NNuP/ZITjo8v+gaVoaUsJRuOx0WLFUDOjXB0ULx2PCjHkIyTM8TIchIgYGBgYGBlsNlZZtr4Alir8UeaUupGU0QRKHTEJlyF2Xg5gngNSGmfD6A3BH+VWNeHfZmD1nBnr37o209CSgLA85sWSkp2TCzzEWIhaFVZyNAm8DNBA3brsE6woj4t6PJI+N0rAfedkF8mgLgbQkpKc3gF8okjuai9wyN9IzG6hgfMJyLCuCnJwCcN8at8cHl5ClJhJmcUEuQhELIQto0ryF3BMyIWkJhUJYmxeSZ0bg8vmR0aQBUiWsUCiCgtIQmjZME7phoyw/G3ZKE/h9Lsi/QnWfj5pPdDcP5hPdrQvzie7Gw3yiu2Uxb9489fWig6pl3Mi4eqxcuRItWrSoF/Lh/kJqdV1JdHnucBKulizzuFVPBwcxolZUdZmwRyImSp+rk3K+iFoZVX41CZmJPn36iHJJZ0hi2G8hR71kagXkPBaz5FlySzKmLX75RDf0GvLCK+COu7eiUXi8nN6qEQ9Rh57gTu1hw2hInGO2XijNxRVVBTp0uU5wH5Vzb/xcvKnnxi81lAd9Wh1IQqISN0NCNg0kIampqXqzQ4MtDoeE0JjKvnYgCWncuLFat4Awcts8GBKycXA+ClmxYkW92DuG4B5s3ALFzcQ6xgHXPXVzMzshC7YYshG1FLrHy6mn4sCDmLSwXC4rPjGVn/bSf6I6l3OxU9YJRgubu88KyRGi4IVfjCYgKpsmfJZCAqIyL63iRt0WQ/cV9hIXEhCGrVp+endbdS2GcSYBUWEJFAHhfeWZRKXiXCHutiajnIi8nB0iE+0NagfKi71JBlseTr6sDxXZlkJiHWjktvlgDxzzIPNi1XrSmPWNk+ccWW0MqoZV142D8npq+vTpctSZxdle17KiqveDR9pza3D2glgW3cUDkyO3vxYRKKUdDofQo0eP9XdG5Wkty7Tjaz3nwmS4NDwJTQJHkWteiCn3kHBzQw8Vp4ogJWADPsrhpM/p6jaVV+3gyI15iqC8qpNZpfxjsNFgGeawgrNBlCqvRqb/CuZJDl+Fw5x9ZrCpcPIZ8+C/DQWaurICTj1IeXEHYspwY+Tj1Kc7AphGxzDe0WgUrtWrV5fXThUVFSutCkVB7czvRfjLHg/HnTqq0xhmz5mFvn37qrH+8ntbCOpblWqCIwnh37ZGcXGxkkt6enqldG5MxqnP4HBMRkZGpd2IDbYcOBxDhcrhmH9TBAYV4Bbq3Mqf8kosx6ZMbzxIQJYsWYL27dvHbQxqA+oSzgmpD8MxTCvnhKjhmLidAhPuGIetqGuykDh47nZxKMUNj1u3tjxebunPVtf6/reEkeD0+EsV43Jv2efU1jDNFOKWJFr1CcwfRnZbF045NKgdmB+d8u3Izshv08D6cUdqndcVML8x/9UHJKZ1vRRvmnJggZXCK38bDz5vA8/cQLCbqtCqe3ItYlOOypWU43MDvmsbuMG/wpCYf4OTLykjKoM6IitGQ723GuJTza0aXO5YkERsnz7bHQPVvPZtik2vS7Z3zHcOCAlxBMn5Hpb8yrkc/dEQLNuNkDsZUanT3GQuckvdl2s7ZqtzdS3/HkV85Qa38Y8VqXU91LRDq1heMs/Ekdhw7RD91a54iHFOSUhNeqW9nqYov+IH/MpFvNCtsme9qlZXFRt6ZRzEil+6cL4IbAkrVqa+mrHE6LpOwhH3PKVbrv+hokm3fCrdOnY8s8vELdd11c+lP9gSMyuoLhgm70VIPtQzGUaJmIhcks/ZEopavF47tCiFqHpuORhBFTDD0yf1V6HyrReqvKTfvQgtJtKS/EeZKakwH1jyvsSObuRNKHuXXPN9UcxK3uUIy/0g9GwluWMXyTEeulyWPydSKnK3Vf7hW2JM1Fk0qMLnl1t0W55ndiCUZyc1hkkZUFaSunhaNSRlsTDK4leUMdNJH3Sj3cmvVaLlKL+8p9+LhGeJxMQ6/oQ4xI7lk7f1lRzpQowqPHTJmzo+BMsZ36m+lNCljDsyp0/6rwi/Ary3RRAPiGVQl0Maxpzyiar4MT6qFpFyruoDOS2vH6xCddRy4Q9TE1VypQw0eIepEMNT5ZBXlhjaU9ohLS/llPKRcOywukv3jjzVRUIYOwRY/7NcS2oYbZVO2vNX1bkROWPNKzasH3kmdW5ITmmn5CN1O2XDUGjJ8slwtBjoKqLzLKcRiNx4h79KfpK36VfdVxC5Spz0m5Isx1UyeSVx5BnrDu06pp6n4yp35D7DU2Eq8I6OQQV4XdUY/BsqkRBV3OUleqXymvf3BDz34msocaWql82vTEoLCvHoo49i9erVid7UPS7uRZ7AbDLv92/x0DOvqNc45st3cPSxx+Ho447HicceiZ/GTlAv2pLfd59/FKcddziOOu4YXPmfwSiRB0XF1303X4NTjzwMxx91Em65ZwjK1FuXjBPOxtMP3Y9BRx+NgSccg0eefUU/VO6P+OJDnHTMwTj66BNw5DHnYOKEv/HH9x9j0Ikn4OgTTsQxxxyDN97/CIXFkoY7/4fTjh6IW2+5E2tzSBskCxbl4r7bb8FRxxwh/o/Ccy+8rOIJIWPvDXlU/J+EY487EyeeeB7WFbHgeOS5FlZNG4fzzj1b0jAIxx93NIa+97HOpPIz8rP3cd5ZJ2PC/BUqu+bnFuON115DWWEYK5auwZNPPqkm5tRbSKFeMmEETj/jDHw18heRt2QiuxjffPYpxk1bpfRWrLQQzwy+G8cMPBpHDRqEB4c8rd+LVCIfvvoUzjrvcixclqOCIwrWLsHZZw3Cw698gqBVhqceuhVHSP467vhBOP20c5BL7RAuweN33oSBx54g7/s0XH7N/5DLvBwuxgO3/Vfe/yAcceRAnH/xVZi6MC+h0tkBwHSoDk72S8Yw7qcfca7I7YTjTscxx5+O4T+O1pWqyP6dN57HO8MnCDeI4LH7bsHhkoePPPYMnH3eVcimo2gBnrzrRrE7XsrvsTjrgosxae4K8Wtj0u+/4fTjTsWRR5+OF159D2ERkhUtww9ffyll+hQp82fgg2FfS20Qw0svv4Bff/lFxS0WLMbbUgYGHXM8jpPn/e/+x1Agz2IdM/aX73DCsYdg5Pj56joYsvD2B+9h4ZLFOlnqRx8cs1koD4AnuvbSiiWE3LXLcOapJ+MwKfdX/+8+lEbD+OCNV3DaUUfg2IHHY+DxZ+KrL7/C/J8+xXejxqFIglBytfLx0nNPYGauVmNFRUV4YcgQBIX0Tpk2BV9+Mbz8uaQgbKJM/Xs8LjhD6olp83UYQryLFs3AJRefi4EnDsLJRx+Lb0b+DGlSKV87FBQpDck7f0Xe+bE46ZSz8cPYf5QIQiUFePbRBzDwmCOlHA7Eo49LfcjGnchl7DdSd592PsZPnSFuJc15y/H60KFYUQJ88c67+Orrr+INDYE0HB6TOmLynKX4+MMPcfKRh+OYo4/BESeegfc+HYbsf37FmWddgg+Hj1fvBEIRv/r6c/wyeZUqKeGyIjz3xCPi5wicInX5mGlzxbYUzz8/BDOWxYmgEJufh30o9c11WLBEXq6yi2LUyB/w408/VclL1RmDmsB3UA6vx6uGGL757hvcdu//EBQh25IpfGJ+Hz0WRx9xJHxer1Q2Ftzc2yUOviTutaJ6ByTT5a+ei/F//qXu5Sydhq79j8THw4fj+SeewPknn43Pv/hFsoEfU5dk45KrrsfI4V9i75ZuPHT3zcixXZizogA33n0PvvphGEK5S/DbL6MkpCiee/hpUSIufPT9d/j6vbfw95hfcM+9T6DUC8xZXYSDjjwJ33z7Jb4b/h769e+MguVzccRJF+P9r77A998Ox1VnH4FvP/8EK8It8cl3I3C4ZP758+bDFVmD2++5B8WNu+Oz4T9j+Duv4LePn8PDT38hEkrC7KnjceBpV+Lbrz7Eod0a4dFn35f4ByROZQivW46s5h3xgVS+H742VBTj23j4kRcRZJyWz8e8BXPx8bvDEJTcH40EMXv2bERcYRSWFmDKlCn1nITEULh6FaJFBXjosWex2BZi54pgzsI5WFRowx3KxmOPPY6ZobYY/v0IDH/jGSz48RPc+cSbSmcsn/Y7li5big+Gj0SRCi+E8T//jEYNmuGPOQtFV0awYNpUDLrgNnz18VAEIsvw2DvDxb4Es+dOwdnXP40fv/0AzQMlePOzyRKAF6vXrcWdL3yI4VK5vPfGi+jdvqH+LH1Hgqrz+GNj6cps7NqlDz7/+mO8P+RO3HPpSXji9W8lM/qwfM50TFu0VERZijnTJ+HMy2/DiM/fQPtGNl7+cKwEYWHxkgW47YlP8OXwb/HeW6+gd6cmGD9yPO6++0k89f7rGPndO0jyFWPGooUY/cM4fPD+cLz0waf4+oNXUJyzDvNXFOPvWXOwZNUy1V36zltDMfqPiXjj48/w5efvISpuHrrlAdXqXSl5oTAvH6+88DpKRMN4fDbmLVqAshDbrFsbjrKIYP60eejb6xDc8cQr+OGbT3BI7/YYJfXfrKW5OPeyG/HND1/je6kLBg3cH6tXzMfcBUvgl/zoYbs5VoSp//yFfFGWii6I/cyZM6W+dGFt9losXLRI2ZFkcZ0lv+TcCb/9CpenCV5+7RMlB3gtWIWLkJyRJXL6Ei88ejU++OADpXQjjKPUH3AxdNa89FCHUbYS7732En5dnox3v/xOFPtTUiZ/g7dsKZ586jH8U5COT6XO/eb9oVj5xxe49YEXEY65sXLZROEd8/H2h59hLZKkHg5i1rw5irD26JyK0b+MVD0ZlML0mYvw+NMvo3WLDMyavxhnXHA1vv3uO4z64iOcd+rRKMyeiXDOUtx/3z2Yy+o2Fsay+bOwMLsQbiHaLz49BAvsjvjy+zEY8vAjmPfrN8Iel2Pa9MlYUxbSHYpBF94eOgwZgQDGjhunero4NLBkySKsXLJUypM4Ur04BhuLSiREdUnK37HCSl976Rn41QRMjzhyY8ABB0pBHK0W6OKko8oTj1xqTTJVuqTi8lmlwke4VqlchkKw3F5V6Fp13A2/j3gf337xAdZJDrK8aVI4uXapD0cdsD+K8nIRjkbgkQLrZUeDhJXasDFCwUIUFuRg0sw8XHTZNfBJrP3J6XjjqYekshuKhaKB2NXMLfC8bpf454NteGKl8Lh1TwdsJtWDRlkZiEhreemKddj/oP2x996dUboyF7n5ZTjzsktV2MmNsvD6W6/jq4+EPOTmwpJMyzhZElBG0xYoLZHKhsHZZXBbRSILebjcS23cHJ8NfRpfvPUcFkhT0vI3wDHCykMLJ2P6vLko8gUQdXtUV6JHSJtHSJ9aMa7S3JJ6BHm/3J2oa+8+6L/fgfjqXSF98v45tBVzp8IqtjBHKpXzr71Gvb6kBul4/rkn8enQ91G0Lk+92zOlklm6ciXyWbnkrsakP3/DgEMOkXfGfCutrdISycOSgwPJ6LrnnrDUqrkSvsXnMA970DCrKUoL85lZ5flBIdkxlWeYZ8ur+R2yftFDGawfJfui6a6tMeLHH/DZB8NQmpPDUisKL0Xyn08aq1IgudaO34/GLVuhtKhQvZ9YJCztCi0PjxUTXbAG1996JwY/MQRNGmRI3o/i0gvPRacWqbjoittx692PIbOBC4GMTFxx+cXo0DJDwrGlXEVgFWVj2BdjcMNNdyIzwwe3Lxn33HgNfhwmLdycUkTk+uADB2CPjBKMGz0GIbfES8rW1ibqOnVSpDn0FynGK6+9hxff+BId2jVHksuLM049Bccetj+8HGqRuoA9/mxvIZAuekhORG5sYbskz3GYyi1ai3yaWcb55Le0rEzyIbet0M9iFcVmDEpysUqI7yU334Zlc2eK8l0rli4Jg8siRCFVJ1xpjUQOLrW3lkeIi6ps1JvlUYdX98DUi8kL4/13PsYl114spBJo2bwZrr/qaqXUp06bj4tu/K/U2SzbmXj0mcfwyVvvo3gd82YEBw8ciML8Usz6a4rItVR0jGgnSW6rXZujIKcQRSIqn0h+1I+jce6l16Gp5KkkqRMCXm6mqmNAxeSRfNyrXx+cMOhEfPzaR/KORbbyzIjXj+DaUowbOwHnXHa26mFt27oNrr3qShEr6wdLoikPFFHPX7AAqc2a49oLj8HcGUKQpHLgNAI1kZnKjwVMvVsag40B6+lKYCeui0RCFKyLpU0J1Y2oCDjm8yqFy4LEP41EwctR/HidsUwFr6rsVavAE0CH1l5YJWuQJ7Sehd+OD9Z99OVIdOjYBSmSI7NXr8C1V1yKA/cdgEBWSxx40IHIl1ZEqa+1kIgmUhlKDnAnISMrDZmeMBasKZHnRfDSs4/j4AEH4vCjTkVJgRAEyURPPnI3DjvkJBx4yHGYK+72HTAAPVsHcMIxJ+HGWx9CflEY+blRpKY2QkOpL3VKXMhs2w4pko78dWsQkcz/2ODbsPeBh2HS/JW45qpLhDxJivxc4lnt06szvMS9QVMPMl35WLI2irJYKlo2aYzzjtgL9z/yELKjUrT8PpGHiF08OGuu1F+wUgkj6EvBWWeei3+Gf4zQ2hzJK36pXLzIXhcSOQfQtAV3QxbXQtoatGiJDMuN3OWrpNKw0axxKkpLCzF3Xg7WLp4n79GLrGaNxL8HPo9fvdAH7r1DSPShePWtj3DsIftJPvQhWBbE7bdchf0OPApFITfOPPEQcRvEqqULcdl550o+ORbX3XQXsoNCJuUVqaGhHe5dSSkVUh5zU2vy2ocm7XZFihC9srxskX0MkYgIyOWHHbVxxx03o//BR2FtYRjnnnKM2Mewbu0aXHXx2dh/3xNw1WVXInv5bKwpKUOLDu3lLYliFb+ka8XLp2JdiRuNWjVTypoETrwjVR6tVEK0RBTHMhQGU9CmbXulSm3R1A0bpaFZUgjzly6XCj8Z/oAPV57QE5+8+46qI3z+QFxxV8ieV47ZEmDI+qsYiawQpWWrCrBLl17w88Wr+z4hDMXwRPJx7103Y98DDsbBR56MovwSeIWkODOapFUldRlVGZtyOlz1pYjkG68cVa1JocgdtRq1ZWHlrNnILy1Dm26dcHDf3TH+158lPK+QDw/+HPcrjjzsNFx47X049dQz0EiCd7MlRA2qsKUksLUQw/KlhZLHpPHXWM+103rBhZIcIbixJDRtKo0wZSd5pWVbNJD3ULhipchMGmjSqDvpmOPw9sOPIByRhq+QZQbgb9QSzRo0xxQhH8hejHlz5+PSa2+R/CiKREjk/XffgQMOPEj0wGnIy6Wi8aBU2Nw5556PRT/9hNwVa4Tg6l3bFy3Jl3zoE1KslaF+43Im74kUntduacyOGPMjuh14APbslCn5eAWWrC5Wd3Xc6V6dSAA6BIPaw8nNlcDKKSotlyh7I0S4nHTqFcO6jEKuWhlT/nRjsYCxFSuZyy1uaM8WrBTBigeVxISp+qHIatkiXHbRIOzapTP+KbRw8XU3IlMektW4E5579kW8+eJT+G3kaOE1XviTUhEuzEO4hF2R4pmBh6RQiwJr1FDa055UXHL9Xfhl3BiMGv6pKKMUeXAy/nPT3Rj58+cYNXo4OjRribSGrXDZQ8/g74nfwx/KwZtvfihcohih4hyE1KwnwoLNBdpS0pHMPWskTdffORifvD0UYz97F64UF8IkaJaNMpFR2KsrHaYUESFs0opP8nP/YWHS4mz/M89EmpCdD59+DrmidCM+TnjjwyjQegxVIbPHKhV9OjfGoT0ycddjTyIfydKgLEFmQJRlUS6Ky3RG5RwHV7AMdlIKUqXWsKNhuBq2xu67dcFvX3+KUdNno/MeHdHMW4YkyWDCpcWjF7fePxijf/sZH338Jh657WHE1hYjEMjEfY+/jDeffwKjvn4fQTZLbQtNW7fFS+9+JgrgGzz/+GCkJ5FoOnHdUcC4MtJuWFKpR7lcMC/FPlZSKqTaLWXQi4Al8mPXPlv4QqDvfGgIPnjtZXz73lBpL4gHyZ7pQqKfffs9/DTuK7z4xgtwJUvDISr1g+qPThL/bNNLeWHlYIc4/C/hJUkjRp7OaMiLY+udfV6e1ADKwjkoKGDFL/a8z42e3MlokZWp6u9iUSXtDjsOreW5z9/xAMJSDklCVG9jAlRytiAU0WGZlnS4pe4rKpXyz9atQE+6l3otqRHuGPwsfv3tF4z89jOkZ3qFhJQJ6WLqlBMgJSBikzay+CE9C4WFZEd0b4h+LyoweaDQNGlAfTXiV6SnNET+0mWi4Npi/KRpWGf5ON0Affc9AN/++AnOOKI/li2bL+VCfFPczlBMZZHUMVB2ks+SRZVzWD/kV70/7H2LuUrh9+VLHspFmZ7oIogiFgoimhRAUoMscedFWMjBSQMHoFFsDR5/ZhiCViY7nSSvtsOFZ56KL95/AvPnLURao+Zo20rqe3mey5+K2+9/GGNHj8bo7z5Bw8aZCHmlzvWkoMsuKTh5QCM8+vgrKIo2FflxnzLOywmq+cY6fgQpMn99SBUC5S5ei1nTJsHftA0W50le92dhwvjJ6j7zrOpkp0dleFHV6FANqgclVAm6MIp1TIqQSFfzDbGTjK9mEdNCTOU/saI/VVt75NovPsgzJQipvNOkkuNWZeHCAtz65NvYvfd+2CVdqjBRBK++/g4WLJiD1195GClcT92SLMGhHF8GOnXfG/t1bIlxY8chq1V7NPPnY8rfv6tWVlgU0GvvDUOLXXZHx0xpQTEXKZYUVd1+7LsMSibxugMqcwlPkGiXYdLfE7A2t1DcutGzew/JnEnIbNNRbXK35O8ZqovUEnLz1JA30aZTK6loUsS/tGaEObdq2wY3Xn8t3nnuaQQoB2lpk3D5Yywy9JePl9/6FG337I8e7dLgppKUljy8DfHyE3fi95FfYNbcXOEuXiWzeg+RoVcqfn49VSoCOevyGzBl0kT8OfYn4Q4xJLVojPRUHxaMHw8vV/EtjeCVNz9DW6msG7dqgoC8O+6AfMaxB+HvUe9j2Khp2KvfYfBLPogGOSWSLU83kuJKoknT1qKUAygJheV9uhEWy07dO+HE44/Gj5/9JnkmSSo5UZkRUXzMSsyOjCbjuiNBESYda18sAl+UNb2Uh+IQ7nvkBXTr3RVprZuLnRAslvUohyypHnxo12E3nHv+efjkg5FSRjhk4hdCEVQKlWq1Qat9cNLRB2Hoi4+hoCQiRCOKvybPgp3ZGacc0w8fvfMiSsN6JcQJf/2F/GJpMUq5tkUJZGa1Rbf2mfjtl+G64o6U4tNvRyHQtivat2YPSgwerygTcfvfWy7BT798ivGTFyIkdVGMRIotXVX/bPl3ohpWlEVmaxx5SD88M/gqrM0RpiUZYNo/M/DP/LUiKxc8UQ7viQfGX9wzlyWzpnHi5MoSAtcAK6b8rpysWLEKAZ+kTeoBbsjpUzmKmSuMopyVePOL37A2z8b7Qv7++ecnLJo/B+uWlSIWYcONFRlw2MDDMHXS3xz9ZZYUMGSp1fRFnUaTzh3QfrfW+P2rr1W2LAxG8dukGfA1bil1awbmjv9d5S1+SPjaUKk7O7ZFo6YNxK3Uum7RI5LMhx57AKO/GoZF06cwqwqpBrrs2QoFeQvw9Fvfoc1unZRUOZzqioaE3EpgQlpVHpOX5ZP35JYGRpk8/9jzLsG8WdPxx48/SL3tRrsu0mhp3hiTf/xN6Yk1eaX4+c8pchagJpF868O8BcuwaPEy/PHrWLz+zifSkC7Ct28+jzWiM2yflCF+bSkR0FlT5QKDjQBf03rglx8W0qWS98kL1GK1hYTERLGrBUaEbHDZdkKXA3nhPFFWXpS5UpCkyw/CrgDefPZhDOjeB/vssx+6H3kqLrz6emRKQXR7GsLlzVBjqEmsApl5qM79LoREIbAVO+iAXhg/7nfJEH48fNeVeOH5x7Fnr77o278PsssiePH1d9FUopQkla2HrQtWVCRA0rIL+dPx0P33ot9eh6BXtx546YUhKC7Mw8nHn4A+nfbEdyNG4egTT0QsszFuvPFmPHnnjdir+17oKSQpOaMVHnvibriTvIgKG6Zik+jgzAsuxLq5M+EXgoGYtPDsTPw4/Dsc2Pcg9OndE8XuNDz+wlBkSY5OYle4EA62DBvu2hD/ufo85K8JidADkmYu8KYXRqq/kPR7kuHzSitIxOBp3AVPP/EEls+bKspNWufJmaKMbsYHQx5G3732QP99DkZxJAUvvfas3BPF5MmUrOJHx5YN0Kl1OjIadULLXXspksf8EGGN5Q3grhuuQZ/uvXHCCWfi3IvORVpjaQWplfpKRcFFcOIpp2Hm2N9hF1tYsWoNLjj5MOzVrS+OGHgCps1ZtGNVKyo7McY0Qo6FJHz1yTvo3W137L3/4Wi1W3fcff/Nog09kvYAUlUNIArPl6KGUdmYOPOCizDp9zHIzy/F2uwCXHjSQPTdszsOOfQI/DZ1DZ546A4UrJuPPlKee/fYCx9/8g2Q3g4vP3s35s0cg1777I3e/fti1C+/wBVIEaUhRNMt5MLbAE8+cAtG/zQcPXr1Rq/ee+H3WXPx9HufIEOKSRJ7Udl2kXLVuHUmHnz6LixYmqOII0mS6j2Iw0nhZoGyYrD6ShSOqENXJs4/52T075qF/ffbFz169MHtd92DlMYd5IEx3P7fqyRvdJH47413PxgmdUwann1kMPbp3g979eyHH8dMxxVX34wvXn8EfXp1wH9vvAlnnnmp1Iepavhl6CsvonvPvURu3XDumWegTdd98MhTT+DRhx7E4CfvRd8eXTFp9DiRV4bUwn5w1LfZLh2R4kvCuB/GxfklXxpV5g6ApCTcc99d+OGDV9B7rx7Yd8DBmDJ9Mcp8Wbjtzrvx6cuPo1f3PdGrz77SOIxi6Fsvwpcq2sCdhGQPibEU1V074Y4bLkfRqoVIkmRzBBEZPpx34ZkY/fcSDNhvgEhKd2O7pe6//ZYb0LtnD3Trsz9ef/MtUQUZSHFLk0T8RRrthkceuhfLZ05AqpR9kuxrr79OGpZPoJfolSOPPQZL1uZKQClyLwDLFcZ73/yIo44dhCEP34P7Bz+K5x8bDHf+EoyXRmtQ3unjD9+H7t26o3//vTFhwkQVDzW/kqzEYINwrVq1vFpJ8YVxPphHGDwzvvoqW05soZe6e9RWrUblVsycObPVVv6padwZNSys04eA3FdTtjhWSvLCLKW6qwgbFiehenUbS4fCLMfoJBQwubQ5idDrE4are1fYbnOLG/oor0Ek83EMj3cqLMmP/Rw1UY/lnYgkyiVswiuZ0hLNp4ab5BmqE8V5LM/FsT7IM6NBRLxpqrfDZQWRU1Aqyi+G9DS22jhPRtzJUc0ci7d1GFQ0EoKXM2wZGEmcPCwooSTJJfMnhxeI+kZEuGx7enoaAgGRjRBPy5Usstbtvpg09yKSb8Ly3ryS5XxiybFXxWlj0sIWWXOcXUlMKoCokDlObONQSlj8qdwkLSJLyC/75JgXI6Js2ePCT8ltkj9FoG2E5N3QPfONJRW7j4GKO1syC0/1W5F3Kvec0d8d4V1RvikpKWLiuxSz3Eia+TVGLP5VGwdImHHDUk59zJuS7rA0OtgTyJ2xg0K8k3zMyVEEw5Jn/bpwMIezHBCqfMTYOKEPt9jrEqNzNX/VHtvqnCRCh6DttW/2l7KRo999ROLjJTFXTsIISas25E1Xvah0yThzaNcpqBXvaPPBZdu5iy7zlm7ICCy/qh9YdZH+6HaVRM7mcCobEYw5v1lJZ7ZRKWKEmEW45hK7+zlcRaOlzrykG1pKUlIPMd9z6gk7etQsBc4i5pNEQVrs0hWPjJHax0siwi8VHSSc1imwjMybNxcdO+4mEZd4Szl1e6UxF5MSybIlaVJ5SOyVYMrLlM47uhc9LL8p6v2qr44oFyEm7L30q8pTJChhC8tV74i5m3MP2WutdQDtGJaA64ZIY4XTaTjh1R2ROMl1WN416wJ+ucR3oEYgOQ4m3hkCywvfO+sIJ2bMz255Ludase6hfmAZYDxiDETCSuQeTtLihw2Cy180a9ZMyXBnh7OVP6duKKElCk6LTC/JrnfK5csWO3ZrsZLgX1xI9MZqxJLipDaUYw5zCYtVBISQV8iKj5mG95QPQiolaaXyqA3B+yxyLKJxd3LLTQJCG27PL4a9COrxjjcFr1wyuziVFI1SSerxzpO5VTevWS1yyJcVi+rppXMH8XDpR93wpip3ijR4JG1JfpU52VWnuqwlTB0huqoIyitMmvHVnUY+RX6SJVC6ZO8PZVgfMlt14FcPLORwpYqcSSn1W7fdyXLuB9Un5w1RdMxxJJ4kEJzg52QNyaCagBAOASGkQmDGZp7mpDMOfnF3Zb3zs1hy2I8ERBwo6cuD6UZ98SXvg0E6b4Vfh8Vd7YBgY0HSyzlU0sr3SMZn6aBhLo1J3iW3cLGsSl7Wyl4gXnRPJiUREAJSkX7lNy5/JXqWRTlUDDBSWjT80+69HMZQ9xyQVtI9hzFJQLRfn6pblLXAD78QkHRxqwiTuOEZwfZx4jvaUuCeJ/roUYbzXJhfmC84VMQJpsyjVD4stly+wJYYUvdEeENAMkKonk4OKbCMi2Ljly5qbEHqRipAuP1CqHV6lRyZXzl+wMYMhaUUpChvtqDkHbI2TSQgdR160r3EV/Kdy8debSmHkv/49SHfYkwRELnPQkoJqKPOO2xKQgiIW51xhg3rWebOeI2u5CBCkgYyxc13ob/i5CRXJU0FuuJCiJQ1LyhWldu8SVJnC8kWO78oAcZH6Kb8CiFRekuXeZKLgBrK5ZAx86wldyROSp9JWZJ36la9UhICCScVCsFD3OicvWE4X5vWh96Tyl/W8p0kCCwRLilZzAJK2Qor18LRjvjSy4cSJCORiVoSsMWCpFwIeMJnqeexcPNEVybKqIyU6CjRVNgn+Khyl60ixo6suTIcNxU/YtR5+ZVzKSfiP9HSuaGOzHj8ZVz5HF152uInJpVEWNKvGLi6o432qM8cqCGs9cAw6yeYl9hzpHZllmsavme2Lx3xE7p9rSmAkw/Uj1g47ircSyhxDcBfRfDkj3scaXUot+lPDOfp06h5TBIASRDH+yu9p3hYXB2X7nYkwshC7sS1+rynQRcV8iPiV1SWSuJOequkez0xOM/gkTerOKj0EF7wjfAZzo31Aoy7otF5gM0Q+lHvqhr3mwvKy5GVanyR7KqGguRVvnv5UzpT7qvWvBiPGJUCsVcdoeJddJjqyWFIKjw5V1taqFO2nt2qRU5/1Fk8Mlymju4YmKoa+Wy5wXjZbnkXvMeKlu81bpw8WdeMA5YbVYrkqOSkfmlDRR53p2Qudsqfvi+SjrunWyUhWFo06pJ6n3dUnRA/ZzBqIrRj1IHvj550PU6j/MTtVJ3Oci5kT38JyrqccZV08I2IM/XFlNgzHLVApfIXB4NR4EvnMUH/bSQSy+nGEhG635EM08oj6ylVV82cNV3uiGhJIuRl2MK8+dmszc9JERbxR9VYJlk611sIBrncNd+bqF9xb/HlyXVhYR569eyFQHKavCYfUiwuZ87OqhRhnlxKii9aFI/KAPKSlZwrC5tlTBupaqQkclY6syNdaXthrXq2EcLecHwYRa5j7FGRC9VjoyckqmItrWAOg7BU89m2h0ty0z5JwpHAJYNZYuiacaoMea5EUsdQBBfPoIyHUmBSk/jZkyPCiPKbcrqR5wUszY7DrmQhKmXiQ9r70qqKcnBXQnFb0gJSnwVIay6u6OoD+L5ZudJYkSh8AU5e5uvhMAoJgbwZvhN5P+xUjUpG9eoupPg9ka+qnZkjmD9URzZCVBi0kWsOt1BB8I7OJXwu84wHEU9IKvOIhCP3RclSEdjuKPxRP3xSwzGnhuW9MI/pvKffdVjqF/VsRmSjIJ4lAk7+ZdQdGWg4J7zL0LdcXuDaFNxBlwWdxY1HPs95ItPO9FFuEcmXHpEPJwJG5D14xC0NZcthMZYOvgdFxJRchHyzYKowmB79HlxCzCNu3bOp34VXwpHw+E6lfFqiSKMeTmTVcaFsKQs34yEnzhAYy6vtKRWinywiCehny3uylTKQFiv1sRypzB1ZVpbrpoEyYy+pU0nyKSy7zloybkvk6eacGalf5OiPsuz7EfSw9R0Ro9MlhV4Z+va4CuVXZGFzWIfydYthaCIHyYfsKeFaFJQ981zMHa+f5Npv8bN/r5QD5t0IAlGPyMKFkFc3hCrgJDzRrkIelM1GQwlUnajLmqDv8t3xndODjhkVdklJsRpyZUNDBaXuV0DHS/tRoOh4xUDLI886l++CMmVJEnux00siaFKg1mZhHU+Xkuc4n0jBRTdsXHBiKusYKeEufs0idb+rSO6QgPAdSB4Uox4rhpNeI0KQmB7WQ3wHXs4dYZ6WK+o0uuP7Zb6NSr6OifGLR0vVK4xvZSh/yteGwa38OUSxMdDle8cByxn5BuPN3kfXqlUry1OgKq34OWVGwsCvWzgk47W9SuisLC1h6HTpUkpC+5gzayb69OmDtPQMlYfcSqHwnrqQoy7M/wpxSlcqbDkqZhuHqrTk6Njxc2Ctbngj4cULEdFOmAHFXhUohsZDPE5yrQuBvqwJ9MYipCoSyYTsduNVfjEXtgIaZjRQz6IbHhlrXRgJ8azCFn8qHhXPjkdH367TkLRIAebCc0JF2SmqrNQPtVv8tJIw48nU6WXvEd+5pJ9BiR+6XLduDTIyGiJZiAgt1KRn+VNvXclHD7/wrdKHVnJywQpHBc6wBeLWZmtRTlnZMDD9DG1HG/rj+2N8nGewW1/np7CELW1sXjAvS+biqQov7p/XOs9R+5HQMg+wshMrtlAFulxo8BmRWBkCrhTxwhSUIOpNkSe5kMy4xKNO7qzjFr+WEzWcKVCVogq/ItwK8AYN79FoPxVHkW92NlJTUtV2/np365rB3sT4m60IVoFpYyUsVowzkxJ3wEvn6Rq0p3z1s5R9eVhyUi5UWjJcXqgANSg/5ZagBB3lo5VExT0Brx0k2tcAx/mGnK5duxYNGzasRgHE46vKMK+ZeiowKjtNhKoNW8WbbuVEKUptpWWn82Elf8o9Txw/PCdJ0TZKsrSWa8dfuRcFuqqQqfIuqLhPG8pWu1FvsTxNVRGPg9xUilydO3A8sCzIuSL9lbKHKBioOSGdO3ei7fooDy4xXAbH+GlQOqQBGgzdiQVlx3rFiRvvaXfqPDFIRo/XUjfw66rKofG9Jrh3jmLl5FA+idbavVypOoZ3aARyyTV4lFQpi7g8SfIJ5Y9eqDukXmLPOd+jKlV0T5/xOlF5kfA5N6lJkyaqN25nBklIYWGhSqeWWtzo7kC+WJ6L0EVA7M52FA7vaqnGfciLVRvbxY0OhS9E3NAPLZQn/rDQahf/Zvh0il8/Sxv1vuKX6l2L0bGkS7ngDcfIczjKx5D0dcV9HTrTJtd8AE38XnVGp5RgJuJR/IolZxnoVrm21nFWTxQLsaGlvi1w4hF/WNXbdR4skvHqgAJRpmrsnRuJoA/65bHiHs84Ic8BgyJZZKuQlbWqJMWSU/Z0XiIBFF8qCP6I4VcSJATil3mN74QVBi14ros1/erzmJvDdnTHZ2g35MVeUSTqvvIU969c8k/HXYXPuDikSo50TugDfx3DEGwEpOX+5FOP4KADDkLRmhV458OP1IqucW8KOp5xJN7YaOgYJ0JlQfWADQccz7XVQMdO/ZYHQ7kQfDcqR8RBVywBji+BnNCtmuIZz/oV4J0E/5Xu8R3o8kvr9bIarx1TC2xYAho1tybjDyp/HhPDOQZyFLsao8EbVEqKOGvQKl5jJSD+XLHUZxX5THFjueITla1cq7l3cs7o6pKZCK0Q6ZZGuaO1As9o60DOyx049xwL5zwRvNYlS0E1yhhGPE/wR4zi8ko0FeleDxSAMvKTYJx3zpv6OcqRGB04bfUdhu245bVzJn9xLypIWvIn3lChrwr5x88S46BIv1OX6xRoqklbumHCeNRelZXcVTPa4vmBcG4r6IQoUGLlUI50vBLdq+EJPmMnB9PoGMq3GvBVs5uRlU1YdYkSUanVOazgkcLFIQZdx/FHzHaT29Z5MFOlM43OKKqVF0/qhrFjZ6KKCpmFWpNHNSHM0ZxaIAKpEoUQVFRZcqYyBQ2zVpKcxQu71A7OHbUGjQKJAcmErl645oSCOCfx0F9DCR3gxEo12M5gGIITAd7n8spcXE9XytovTwTqgews90oFLs9QRCIBJD9S0zMOHJZg/mbF74RRHo4ExKFIfkjOI2OrWuiKNOnWqgPVwipYgpRUF66+6394/LHnsXIl16WJhyce6d6JCnsaGXdee6QJpYY4xF51omwSVMTiD+NDeCScY1Xw/WiotDv+lYzjkYynjwRRvyFGbsMRpDeGrt8iwTfE/MRwuSNpRZziTxJoO/p1YlDhKgFK+cVDqPipBNowlvHob3s4iagSAdYoFVaJ8WYvLmNcUT4I8m2SZsqS8qAU2drmsTzpJDwKtK0I1cnD7DNmDyDLlW7RS75VeZEy1NJXwcTP2Nun+pmVpTyM4cfD0u7ZY8QY0W0FKspCRb7aeFTEpALV2RGJ9jzWmGP+HVXeUa1Q1Q+vxbhj7GHVMtV2OhdyGQoOcDpw3p+L20Uk2Nc3qJxLpVNuKBap/AN2PiKxCIIezmGQ7OgKqcW33JEUcSGiFDuOZ+pWKasZkXbVl7IDg0lhx7taMFwyVZmcqeLNz7N4X5Tazg+pLLl8vxhWVWEqdFVqaLi1Nikqv22gYqZ0uNCcnCnZyHUsKPacQSPuJKcxDO4VQ7Kh5/aIOxfbHdou6BaJi5WqbPn5nS3+JU9yyXa65b0IiYkiRmLYynSVitFPV1UPHdEosHCXyjOjiohElD9dmbLR47I554lx84ryF2ItYXssLsPP0Bi2FyUSP9bEbBexYlZDMQxe/HIZEg6zMEcwP6iZ+KxLAn4cOfA4HHbUUdj/qIE4/ugjkKkfK2CvTJFEUY6iBDiUQ3GphiUdlMd9U6ECUWc6JD6PS1dTnvJWxDhfcmh3HDvXREEpHIsLdJWJ5ESmSvHQf3HcJaUSVe8QYe4kLf74Uy30DYZD8BsHvjPmAS5maCNFpMzw5e3axepNMQ5OrNWV5AF+AFvxDC6VrUXM+3zritrSCz/D5GpeHD6M5xmhfupNqrCiHEJlWsSZBMD7+nnbGywHHH5SWzCKjN1S10iCRC6se9RdFgg5YWnzI585WSdZWys5Mf9w4zf2ItGObpiPy8Qh37AeepT0x0rEo9Tr4pLSY5gulCh5qGvKOqYboG4rjDCjwoepG1KSRXgkJwxXxSBSrN4qZcn5LuoZAtUbrsJSl/UIIhOb8xLjW03QimVdpMuaSOd52rIxzzwr9vzMWNmzpqx3AmPKRUZSCzpKlUe/z40/x47Atdf9VyqHFMlgUfz662h06dABXXfdFT/8+JNa4VL7oNB2RsFJZpLKeNqfY9CyaSO8/OH3SpHCrxXlzoxygiWF4vUXX0KyPxUpyW58+f149Xkzq++n7/kvjjjyaKwscCrzGD758EN06tob02bMUjYrF85Dn1494BelfNSRJ2B17jrllnOMVJ2mwKo0gssvuQjnXib5TcorP4VkHB649Ub03Ks7Zi3OVzls7rx5uPq6a4WIOJ4juOHyS3DOuReCq/mrDjsaCZLhf/nJB2iUxrgnoVFmI+TmCJni2LArjOLcFTj+0P3x4JMvqpA4veOLDz9Gqi8VAakUkjwe7LpbR/w2fQrOOecU7N23P+YuDKrPMblOxLrpfyM9ozkefOx5labrb74en3zysWhpL6694gpcdeV1KBC9d+jAgSgoWItzzzhHrXFCaS1bPA/pjRvC73cjLSkZP3wzTtLLew6oHDYNWjLim5lUycPCmqXL0KRxM3g8qejf/1CUKc0sdCCUizMHHYX/3v6AeguqroyW4vKzT8G4qcu0AooGMeqjF/HS0HdRLP4UQQtnY6DIzu3Pgi+QhC57dMXff//NQCtQmIfjjzoWd93/tLok+YiIX/69897bOPGkk9UzSUIH334z7n30BYasEKNEpYK+++YbMfC4M7Auj3QiimnTxmPPHr2wLpvURDKixHXBnJm4/aHnUZq7GgMP3g/e5AwEUtKxV699MVfyjSIwVgmeuedmuPmpvZgGqRlYUcjdprY/+OUud9Nu36EdUvw+nHbOhciR5BWtWYdjDj8UPr8Hffvsj0XzFyn3N1x+BZJdfjRqkIU//l6m8vqLTz+BQFIKMlIa4etvftF5QN773XfejqNOPBdloVJFoSnZYUNfQs9ePTF5braQB42ff/gOjZs2x7cjfpT3IS9d/mdNHIcu7ZphyNBPFUHkOv133n4LAl4PUpKS8MNvMyU4D95//TUkB7iOTCq+/PI7RWkINYdOZ8b6A6Y5EsQd/7kKJ511oa7rSP4lp73w3NPY54BjsWw5NygkJLdHSnDJRRfi0EEXIr+YtJCob0KLkxAHzmSYCRP+wohRv6Jzxz5SOadJ5SQ1fCwVCxcsxR+j38IPo3+SVmumyoSumF+MtIZZYSnfOwlE0eUvm48Jo0fgmCMORYnlU5UWW1GqlO7EcNZLyCssxdKyNOSXFeLPnz7Fzbfeg3VrS/DS4BvRskmmVJyd1LCBLZz/s08/krzixgG99oQvKNWW7cWKNfl4VYhJSbAYAzt1wJjRf0hb1gfL5UVYfS0kwpQWbN6yZViwcJEovAjW5ojmloqQn/By98tmTZvi42FfKmXC1kLEknuqd6IYRXnTMeOfuUhKaoRFy4Pqm/8KSEvPE8ANt96GkDDmGb+MxD5dWmPimgK43SGsXT0LyY1aY+zv01HIJov4PfGMc1ESiSEk7/77L7/A0Ufuj86dWyBUVoA2bdpg/J9TNQmT8vDlJ+/jmmuvh2Wz9elGlF/5RMigbGSmJaMoJw/ffz1CFTDLIwrYxwX3ohj3yxicfuI5+H3STITDZZg94y+8/epb+GfKYjUsQ8OhHjWXexOgyyBjJAGJHCf/+jeuu/R2jBc5hSI5orBuxa8T/xQ3RSK/hSgKezBvcS7yuBcMi79dCitYhBJXmlY+QtrYKxqypJWm7vNFFEnd0AbjZi1HMBzEzBkz0aNHD7oux8rFi9X+PdMmT0Z+NCpVLgd4OSAQwylH7INY4RK889M/+Hv2Uoz8aSzOufjcBBIiLe1V2Rg78md0bdcG8xYtUr0Du3bbE/379MHXn38lxVMiE8nHD199Cn/bnkhJT0XHTl0wdkEhCsuKMWfy79irXQPV58Ll4QOhEtz+6GsoC+fhyXvOxHW3PiHt/20Nvh2+WEpDm4hVgOy1Bfjtp5koy56ONE8UUyUvLF1ejNsHPyrxDeKyow7DjyO+w4J1Beh51KUoC67CWy8NxpDn38bC1UWIpqShIFiCsV9/jMfvugHLCvJw/0OPommL1ujcuhG8ZaIIoy58PnQo0oWQ79WrL0LuNBWb38b8gcVLijDwwEPA9WLY27V22TT89vO3OGDfg2F7MqQcigjzctC5W3+Ewuvw3acv44Uhr2PlqlJkC5lbXVaCqWN+woPX3YCFRZbKN/x4gVlwp9MLNULeazSM22+6Ea3btEVWy3a6/AgJefW5F5CZ1Ri9u7RXdZqjPr76cjjyCwrQvkVjKfPiX+zZ/OBpfQF7LVlHloMWRB9hyjdcfqFUSvyEj59KpmC/AQeoRcPSAhlSGbmpYwSsUip3IKlMFzdK2BtjakB1Th2z1eByo0G7Lrj4uuvRgBvUieJk3lBf7+3kxYqLWnEtlIz0ZNx+85UIiNJulpkqVaYLUWlJXnn7gzjhMKm0hBmQ59tIwsmnnoZTzjpRjZDE4l8Y9N17b/Ts3BUe24K3gbRCpXRxETK2kvRXRFIg3UF8+f3P0uo7GEd1cOPzr39QXfBkN0FvEo4feABWjPsEMxasEKWRIjpeFD4fKmRk7Lc/Y8/DT8KefXvhpy/fUnFROVplDKnipcBzlJ2X7dq0kpaiEMnCtUwFvvniW+xzxvlo0jwTI78Zpf3Qrx3EuukT8ORrH+KKWx9AS1+qBJWMQw44AMvnjFF5YOm6HExbHsYh+/WF3y7R3iRNHjWxzQM7uTmuuuB0fPrC3Zi+ohhl3F/IFUMgsg6fffE9brv/Bezevq2UNxfatG+H0w7rgmmzp6NMAuK8DJ27VCKqAe0d46Dimh3vjCNLpSuSh1G//IZzrrkP7Vs2hlfk2W+//XHEvv3FhY1hH36GAYPOw667tcbXn36tpxWwC0nSoRZ04qXLEvIQEev489hSlnqBfySDjCufp4fgHATxyYhfcOpJR6FHcwtffveb2DhDYT6kNmmJex+8DyNfvgfvDX0XZ1x5Hzo0zlCzDDhkwgGJUeP/RL+DD8JJfVvhZyEpbMsH5O/Sk4/CZ++9iuV060vH2F//RP+9Oku8QmpCcIDLBkiEqAAYI0vtTCY5Q+4nSz72cqVMKwPN2mRWkuC2AZ9IqZLNaRPwp+BQyfut2jSTW1G10q3lT8PuvbtjQP99RCZuZDZqLuQ0oL6aOG3Q4eAmNG1bNUfM70NWo3Rce/VVaonzJk1ayftgL54fd99xKw47bH/1Ol1cSsDtx0nnXYIjTz4aLsmzEWlwsrzsd+B+uOjS82FFOTygY9e0zW649L/XIj09hlJ570GJtq9RS5x75qkSZRutmjVGSOToa5CC6265GZkSt4ysTIQl/qkWV7ZlSlVpVCneGDlTCW/+33aCz4+HnnwCR+3dFS4rFCfxflx29bU49tjjpD6KSvERuQgpzp83HV/+9Asuu+UOpErB058yS55Qw9T1C5VS7JAQvZW/NA+lAmJL1+vlPJAoiqVF/PHXP+PYY46WvMg5AexkpQflTZ8noOr15sDJzIlm64JPkGpRtKpXKjalX+oJmA04B4LL8iexbSS1+stvfIwrr7lYKhtx4EmDR1r+KvMk5CCun8AcYalJpCIwF8eWLeTlrMHfy1aiX9/+CKiw6Y2/EVhr5uHl14ZKIT0exx3YHW++9T4K2eUkt7mMeKvWzXDOoINw8fmXSP6LwhPwq0WeItIqfPeND6RivRj77tsbo758Tw0zcMKemsn3//bOAsBuYuvj/+TKutRdqJeWAjXcneJFH/Jw5/Fwe9iDhz/k4dLiTqHFtUUKpbQUKHXXdddrSb7zn9zs3t1u263wQXfn184mmUwmmXNn5pzMTGbkOVjgo5FKhKtq8fp7H6Bjz94Y2rcbKlasxJuvvo099t0Hpxx7KF4d/wQqvMxqhfDkU8/h3Mv+iR69uooUopL/M7Bdj65YOH0icvOX4qvpv2HA3kciJZl5g80olFk8AlHMUV8Ghmw/ECcfvR9uufEWRMVYi0YlXKwCVdVRbL/TnpJ+Mek4RkWM3XZJUazOX40qXu7GshEah3KP+QTqKSSz+mgth8qxfPUapHfu7YlE/gfkn42aNWvx5KNP44ADD8GRB+6BZ/53V50MODskrSH100re59ubmseChxxk5/dj3vy52G3UKKRl9MYZf79A3tg51oABQiheOR//k990j313x3FH7Ilnx78mb/yMjL+J/DWSMHyXPdHbH8H333yLo049XhkgatAeH7RsDV566y2MPfNs7DV8IL7/bhqqpe7mpPK77zUCplWG2UtzMfPnpcjI6ozdhraXzFKNub/9hpFDd0BWVl+cddYVqotOte6KUcw5Yf71r+uRkd0e/7nvERxz2EGs8rcOnuCb4+Io44DHHHTNrc/C6hWFIpsABg9o7+ZjySNWeQm+nPkbRu+1vwqXzIsko9/z4NMYe+xhSOPULJRbTQUeePRJnHrepchMS5PfMAwrGpZ7yAuF5AV3wDWVXER+S47T8lJP5cdyy0HaasSTwGeiT0hqfa4jxmASXpQnaiK45T8P4ozTTkSK2Ocqk4Qr8MT453D2Py5DD3nZUDGrxG0OicbE5v1jHP//xO8rZS9FzA8u3sFWJY6gUr8vdaWUI2WcRWrxytPP4cyzz0P7Tl3c5SICKerrJx9n4W5lqHqmMWrUubw5cNIiCrDGlAKSMx8vvf4s0geOwF677IIsSzKkvFmIWS1h/owf/f8BpY1FXYiyCNCKjXu3TFjV8O3FUl1OqjCzJpTK7cXn30VJykBccsEJ4ILZ/L05QZE3gRRXKOYVypYXmfFTWMbG2UYXL5yNq6+5HAedfAE69+yijDlWb6p9QirKZTM/R7SWb76/YdL0+Vi5YhVm/bRIDJmwavkP+VJx8OnnYUTvfnjt6cdQbpXL26yD3+fNR255FaZ/+QF+/Pw95K5ags+//V0VfHdwgy2GdDW+++Jd/PPqy/HzygK8PvlH1Vrx2ZTJktQYfn7nJayZ+QOWLViCaYtraRLhkynfoKTNjjhw71HIdvhlWFCew48u7dNx1B4DMOG5V7BoWT46jhipJp9iXctCpLo/lCEiUpDwtYE0nH/NjWhXU4JvP56IMF8zpYbnLJsL5y6Q0HElYPtQVmKiWy+RjRzy65jNy2e8ir+B+zRsDUBSGrLbZYnhtEx9kMSfk1PlW5LSqTNmqJ/89w/fxrIfpmDN0mX45vdiiSJJTVWdZLtvtPyt2WqljCZ1LL7RCLYfPAjfzpyJmsoVePnFx5AWjAvCqsXPX74vdooPb30xBd8uXoEFc+di6bw8da0tv5D67e10nHzkWTj9tFOQLIqUxiu/POL98pf9hrVr1uCb6XPx1pc/SZ5YjWmf/yLnUqSyjuK880/FzC9/xHPjJooiPh3ZKhv65Jl2wvTfF6KycileHP8gsvklLdetkrdMTsR29b0PIq+8CLN//RrXnHoB8pZwcfw/F9p7HFC7dOZUXP+/93H8yWegF5ekEu/8FfPwz6suwA7yFt1/SB9kipRqCxfixrufxsBdx+Kkg4a5uj4WwpvP3IzkTm1x4sWnSx6zpQwb8PvY7igyZTllQBVY5CF5ml2n7u/JrS2n+OMRllw5I8em5E3TdluA+UDR2nz8+5EX0Xvk0fj74cNBG4S/3MRXHkfYn4yz/vFPFSfvwjLeulDSVNuowYkYHfm9KAdx7FuVOokD3/3yYlRYUISffl+Led/9iE9fewmz5/+K1z74RA1NjqoB64yndcCxf+tNLhVKNK6U/NVrMHny99j3kBNx6EF7S6Usb7jydkiFwgzsirqFwdqBhpbU5pwJ0i/7TGW1lDBVibY4WO1R7XArFZFUWGz9uu1fd2PxkuW48ZpLxd99G2ZffEQN8jNVywYHMPJa00lSAzwjkjH45rVq1he47ZY7cP6lt+CYQ0cjJOc49ECpSspXbNjXPv8dx5x+BvoN2QFDdz4Q1511BN587kEUWUlSkSZLrOLMTDx454WYLRX1qlVsUcjHh19/hR2OuwiDh26P0SN3wJlnnY7HHn8OtaphQtIhhd3yJePgo0/Bo08/ibv/cxOyAzEEi+bi+be/wKnXPYJBQ4Zg9KjtccTBe2LKpEmoWrECrz75BMaefCzSUqTylbfSCjMVNaKEI74kHHrCOXj26VexauE87NS/raRBTB71aq8SJeVCSUfN0GhR43OFzkuPw8effIzKUDs57ivlZzfcesPpWJlfLvnJh5Ur1+DF72dj+wGDkS3XqsX1pLJSBqEb3SZA09Et0jEqnGAmjpT7PXXHBViwbI2K7tsv3scH776EVz6ehhOv/R/6Dh6CkcMH44KzTsQHr7wsPx6VkA8pkZBawZUKq1rkmOy3oewMpjfGGUDZohJSKouGTS3S1X5NRTVenPAJLr72avQdMhzDd94X5xw4Cp9PehPlcqmlPj+VHe6rtZdUI7R6cnb9UGF+PmUGdt11N+wwbDD67DQaF518EJ74z+XI58jwpF4YPXw3zPnoIUyf/zuG7r+/PK48mMTFJYFS7RqVi1m5qYHAlINY1QFb8mqM37g5CEUcVImRFBX3/w4fhxt5VmIYIfw05Utcf8u/8c8Lz8Gee45WRbB08de46eabccSpl+G8Uw5DKsOLu/6G+9G7e0/cdP0FqJFjP0pw87XnY0FFFv51w43KMOAXSZxI0m9F1W8UU4aGBOanoFF2pbNNyf0iht52OAonQEMtiAhbPLg0vTyoLyVdyneB+sU4IPuG6+9Du4y2uOX6y9UXO4ZViXtvPA/fL67AdTfejhTx4zgbJXb1lzlCLmw1SJm1w6jmTN02Z3RhOZQsLoZwsDYi77OWyCcNqd364dKbr8TQ0UOwXZ+eaJvRDv06d3SNOsqfP0prIjc312nsCnNWOCtnfuzc9d/7nXkF5c7yud85Bx9ykNO223ZOp27tnc49+zkff/mDszZvrZOTu1auyXGmTJnilJeXO7ZtN3DbLpazfM5MZ3jfzk6fztlOZte+znFnXuKURRynorJKpbWlErOi8tdyli5Z5HRr19Xp2aW707l7V6ftgB2cl9983TnvxEOdPh2CTtfOXZ3s7oOdx19/zbnzP7c6fTpmO906d3ba9ujl3H7/Xc74+650enZu73TtPcTp0K2vc/jxf3eqLMcpLCxxIjU1TnlhnnP9VZc5KwsKnZB7a8epLnbOOOkk59fVIef22+5yPnzvPUcykuNEcpznnn7COfjkSxynZJFz443XONNW1zox9yLHqily9jvuPGfu0kJ5dAlvh51JH77jPPDIfU7UiedDu8ZZ+uNbzkWXX+WUuT5ClZO/dL5z2ZX/cT5+abzTv32G06H3QKdz167OgB2GOu98O9U559J/ODOmT5NnqHYu+vslzjPPviJ3dCTPf+X875FHnNpIzLnhluudd999W3xt5/67bnVm/iTh5c5OzTLnyptucsacdTVvJl7lzqxpXzrZnfs53Xtu5/QfMNiZu6qSIXmpnJc/lL9NR8/mwaAiWuXyi4ucqtoaEYPEYVU6X0140enYfTunW/cezpEH7+0sWfCDc+5V1zmrPKFbkpcrc52zzrvWqV672LnkxMOd7t1HOl07DXb23mVX58VHr3f69e/rdO4x0OnVo6/zzUevOscesZ+T3XOQ06lHd2e3ffd2ZsxfrJ5h7m8znGsvP9+plP0qFbn8XIsXOVf+81onN6wkIuEkpB1zpr3/sfPiyy87JXLM38hypHA5tc6dN1zqzPp1Vn2eiJQ5h++/hzNtcY6bFQpXO/88fX/nkXGvq98xFquVLJDr/P3IQ5wu3QY5Pbr3cfY/4DBn8fI8OSlxRguccXdd5GR36eJ07dXV6dM923lr8q+OGJd15OXlOZEI798YT7IbgEE2wXm/E/OpVVHk3HL15U73ju2dXlLG2ks5Oeqk0533nr3J6d4p3enQc6D8bh2dQ8cc6Hz73TdOj/bdnR5despvsZ0zaK8DnYnvPOn07Wo6beS36C718sDBg51XPpjgHHPUQU6fbm2dLl2kvpbf/rVX33Duvulqp3fnNJFRZyerxxDngaefd954+01nYK/OTsduXZwO3fs719xwl7Nk/gxnxCCp97pkOm1793aOO+NMZ8rXU6Uu6On06tLL6dCpu9N/xEHOWy8+6mzf1ee06TrQad9jgNOhRz/n6dcmqt940YL58pelk4luJYQqncP23NkZ3CXd6Sp1YJveQ523P/3Wuf6SfziDO7Zzuouc2/fu7/xX5B61Jc9KDl+2bIlz47X/diorw0pSq9eulfq35cuMtkFZWZmku9IxaHTE7ZF65I2Oqz9yUTrTZL++vDWwiQ+cFSKMmLylOkayOL69cCCZjUXz3aX8MzIy4pG0ACgZvrHLmz3nxPA+vqiqqlJfkGRlZaljkanabpvEE6WaaiWtsuHS4+qNjUnnrvJzgzEU5/Vw8fovOTcDxzjI+49s1Ro/fH/i6x5fB7iRl1j1ji7yLC4uR2Z6CgLJDMO3XwYQx5tx1CnfBihs9inIc6m1hOS1nFGx15pdFupBGCFfd015v5WHDMkrMOfaDPC8wPFMfBfjm5wH23fc9hz3+wR3aKWg7s97yhWMT7UEuQOv2Y9ryj6DcqoJLoLKWxjyrIZauYz3ickLueyoshITybjh1Xwq8t7Jh+X4EoWSi5/vTfEvTuQqpoXhZV/NCyHEN80mnhIUlxQjNTUNKUnJ8miUrzhLHloi5O/DmZE5c4qaGTImz+l1q1rye3LMBxMnv4WKj0kSL25UctQfDvflPw6bFBierTcqLP9QHqw14j9AXUISDyQikbllssU1qiTknuOvQ3nLs8SbC7gRdaa6/TgTrCNvmWolU7meT8H5KYK8l5ff1DPKrkTHuDjWRBSiXMuuBdUOp56OqOcX1j9tO4lHuD54elOIR8VGLzX2Q8TCpnrDT5mzY4pBovKTMOfKExpscePzimOmYbrkOmZ9Pz+lkisoWRYyisUbFOp+Es1xXfIbKxiW5YuylV2KTDYqj3CP5U7KIn8R1XLCQeCSH9jCpHBvJcUyJtmXEhT9wG4cXicbtWS/yXwQwKKFSzCA07bzGuLF0dJRlaX8HvLbMJ+p34N5kumXchiJ57u6OkmqBK6NxABclDW3cC26dOwp17nhWiqsrxOmbaeE4o41jDhVD0lm5EqSzN6W1Lws+A4rDYpPBMRprOvmexC3bSvi9cCMoypVqawbFSKx5JTb9tPt/YDcuGlV6eKpBmmW6pG1pmBLxcOvVJh210nFJX6qT18Kmdu/LDlHGRiUEfucxUfyEGH5slhKme1U8yMrSbmG0XNKd9Z6Kir5w0yqrD9mVneadXVO9bOK46guqYgNuSZJznJMCqNxn9QNSngrdTuVKNep7K8qBXEcyEl/dhFIAUg8Wzd+Q07TAPHgJ42EWcBdp8i9G1d8VYi/rdSjFwP/0jEi2RNHHeIZt0pIEgVjcWNaH0zduo7RqKh4KL8hDWX1kymjjifkvCgzKhi//FOGFW/OwZGGmAHKoJJjyl3+MznxJClU3OqPm466U9yhLJQ8vHMqoHtYR0JkPC//GY4GW/1U7XTMD+555QQ/6yMWQv42fE5GLMc0qNzpueLhuRt/DPdy/pW45aWJvwx/Cf4e6pHFJeKV5XXLNOPYAO6NGjr+CE3508XhLh+VyVJriKiuODeAI0aqegp1GE+fB6MW51OVL1PI9Lh1FJ/dLabiJ1YYJVWXHLWN/yASVpVnOamW3Bd/rzzzWuUnzyR7Eh9LjhuPikL8aXCrRU0lBFFli7+/Ciq/STBeUBg1XWuB5UfSz4HhfhGNSnrdz+ejaa1+kzpY9CQ/84Xf52NdwZf+li0w6hdvLipujTVrV6l8xdylqm8voynF4mZK19FLLhTH6o7H/IxTlQPJzMuXLVEL2KWlucOV3MzcMgmFQqqC50qliUswt0y8AtHM31OZ/Y2ROOKVKzMdLeC01FSpRKXqZD6LZ8g6eOgVYMG7M9viaNA0fhIW2sRF5DxUOPFODM9QvF1jo3JD0MBQ+Zz78mDuAE93XIuqn9XzuwHqw9HHHRvjHvOE5+RYlIy7PpM6kgeSGNVFCVUUZRmPrx7x8G6SiLrYvVl5eblavM5dwI4GY1O/iYu6pbvbDNz4N+WKPxOKxJ2inHjP3jTFxcXIzs4GV/hULXpNyOzPq9Pq05CYz90lDDYGw2w47c1n/b8/B+8zjwdsrlYdwIpVq9Gze3dRDfLioeTW8Bk8JdTSYKooB7beuq8FhOkXx98r4fdTe/QWWXgry3IBu3bt2rVovcLWD+rPyspKt7wtXbbYtT0ko1AIdNxX3y3Lli6mJmZgUzvtDXnDUuGBiPoETEQtrrAgX3XHUDGTP6/A/vFwuWWSlOQ2Ims8+Juv73d3CxXzRU1NDYLypuSXN4D6Ufn1qLfvJsog8x7/NYYVM/81xTpPJMFU9E0Hb5KG8dOwYIN3fHCtepyGkakj3lR2aLDwWClDpTR4gcSmJtqRNwJ5GBo2nCNCKZX4ujoslDymV8PYGQddY9Rd1F5tbW1dxeZVZi25PG4NmCdZd1FuG1IAWo5NU2eEOBH1OXZpRRXatm3j5vsm8muLN0KkTNe/XK1HBvwj3omyYFe/9/LQkmE5oh5lOo28vPql/OsFJWKMW2x1ApJj1WTIXSVmwh5WCSMHCxfMa3ljQtZD4zEhmkTWNRLc4lZf0AoLC5XsaIjUZbnG1AevQynmhAu8IMpAiOdXRZPX1t+K7yjrv3FTxCsE7xKJnx1L9F3nVo2i9R6rPlw8QOLzEo7bUMSbywWGXCd+xYZlzLd6VmSc+KqlVvZbmw2PCdFsDOZe5jTOQQIxSBYvXY6+fbdTmdjTFom07HzJ8smRkhumvsS6eC0hnTp1avFGCGGLLctbXUrrq3dXLPVNxRtAzjNMa6vnWID0G9HmoyqlTRBfouHRmCaz3nqCM+y64Rl4Q3cgcnbDAZrHRuOoD8A9z7ms66PZeujyvOVoCdajZbFxvDJXb27xWJx7go52nFs51/klFFQ2OHntInQt07KtT2/rpSkZrOtXn29ceOzmnsaqnxOaxX0aR5NwrHbr/niOuF0jboyeXyP4LI0vE9wnaeQp+Zh5ed23FjcMW/0aBBe8w8RU1eHepGnUhfGrG8XZ9IWJgbjvOY3m/4PGeW19ec/1dwfENmYbz698/Dq91zgtTaUtrjPdg7pS7ZVs+jf2I6wvW2urpTJCvPdAbtnv7sRiSA6HEIn5UGOkI8qZDqMVSDJDiMaSEFVfOcTACXHAMSSsyNftvN7GkTRaZZI+fmIJd0lxenu5q1VA1cyl3R2EJfGUQZh+TqXkEVcuhEtWGfx2NRYGIiVy3kSEX2HY5Up+/JQwJHKL8FLJX/zKQeUdTp4Uy1GTnXF9CpV/5F7s6iK2+lyXAqfkK+QeMVSpbgwaIZL/3DkG1QeFasI05UKSq+lfBcfi0gLuBGnKyOCS55xT1eakTfQlNEvkecVF+U0vvyXmNlSq8nUVI+UA0aikRXZ5e44Icp+Q8bjLoNGPMXLGVlWeDJGWXYFqCUjZKZiWGP2rZJ9PxHByrTh+caS6YqwC5c2J3dRYlLiQ4xt1TqPZekjOYp4UuOyBVypUaXdqUCr5TZUdFa5UNrZaTJITnXnZmgsaMt9zMjqVrSWTGnIVc7R4bcOwfLLAMRWSQqtKyacu3ZbUM7boRNlVowSZ+Ei5XMWPnCVc/HLDqZWiX4MailD8bUtqLEtNFafKNVek5wy327asNh/mE0m8/ItbYdyWlZbg1RfH45rrb5PMliYCjeC9iRNx6okn4IKTx+DdSR+j2kiFrX4gyXBKUdC1LIpWrcEF55yLQw85HIftfTB++PEX1LKgtZrsYuD+W/+DIw/cC7sN3xFTfl6BsCjLl8aPx36HHoI9dhmN66++VlSxKE8xQqIla3HKMWNwzN/OVoV10bylOO3Uv2PMmCNw2SVXoapCDANlRNBolQIrBsrkV57AtTf/h+pcZaG33nwD/7jsMoQiYZx00sn4fur34i9hw6V46JFH8NX0VTBiEcz9aTrGHnsmDj7oMBx20BjccuPdCIvFEQlV44N33sS++x6Mgw87BPvsvRv+e/dTqJKS7sQ/7Zw17SccffgROPiQA7Dv7ruhV9du+P6nmbji8qvx2Udfulk5aOPlF5/HixNmSo1bjCMl7M57Ho5DJd5zzrwIq8stOIXLcdj++2L3A8eK/4G46uqbkEu7hPlDnvGW667BnnsejDkiB4UZhROqwvuvv4ED9z8Ehx98EMYcejg++nCWmmkWYRuzPvwEO2w/HC+8PNFdSp9ODDZl2LTMYqb5E5n762ycceLfMGbvXXHlVVcjXwpuSPLoJ2+/jNHDBuDJF95TLx9OpAZ3XH87jtp/L+w0aDBmzi9SLR8/Tv4A1553Ks65+BqlYN3Pp1uGQlVlTlLi1Fbhi7dfw54jdsQDT7+tDLBoTQXu+NcdOOzAfTFy58F4fPxE1Mqb1iMPPYIDDjkIe43cE/fedr+8NFn4fd483H//f3H4oUdi7epctT7MnB9/wrFHH4W99jlI6q77EA5zLhjvnq0LZYR4qMEwIoOammoEU33o2qufa+EFIthtz/3w+kuv46k7L8bX3/+ESjMbsfhEOcxwLa4hhG+mgWxcc8Ot+OLj93H1qUfim68/h7wPq68jWlhq14OBXfc7Fh98PhH33XwC7n/wf6iRSqrvdkMw6cspeO+1lzD13TewaHWhBLXw/OP3oWPvXkjt3F0ZIenZ/fDAw09i4qS3keqrwLJF8yXDiVwls8RUn0wUwWg5fLa7hDhPUbaWGLVRMTyi0Rh8bFExpGIzDdHR4nxJYh0uwmNPj8PfbnoSH34yGV9+OBFH7zEclhnD55O/wauvTcT4Nz/FZ19MwRefvIfSxUsx+auvVbsJv9Ifvvs+mPTZV/j8s4/FyDwHJx0/FsN26g9bzfPtg+2XrRGBX57BUvNnVKNT966479lJ+Oyz19C3azvMWFACw6xFr/4D8OiLE/DVpGeRIjJYlu++7ZQVlGH2jN9wshhlP/86UyouSa9TiddfeB5Tv56O8RM+xseffy4G01volt0x/ork4NdZq+WZLsT7kyahVPy4tD9bjvjtgXolZZHTaLYSbTv2wMNPvoCPPnhOcn4M89dK2autRofsZIwcuaMUlwz1tm77HYw98SK8/8kEXHH2GIx/4wM4YvSX5S7A6NHDkJae0nD+ixaDDSNcg7ZpQUnncCmP7hQUftGMBxx9Lj758jO89OQdeGPCJyiqcLDD8D3w8aef4X15iX/tyUewuLxQXlgqsetu+6Ffjz5I5gub0LZTL4x/7TW8/c6rqMpdjMrKYvGNv2y0skIuVVwC1AuiBHr17IoD9xqKgFGjZilMi6Viuy4dJSPGsKDMws47bY9MJ4RkqSRpfLQ8kTFFNtp36Yp+A/qKEjJQaSQjmJKsZnZsDeaHi4O99txBRBHEuLdmYK9dhiEzFdhjv32QJVnHMQMok1f19lkGvp+1CFPnleDyE49EVqxWChvQtUMSOndIlgJWjt8Xl6FrV5El85idLI7a1UbEJ4aGr1It8c9eEtuRSs+XCjtgg6t/qjVYqHxtC2qpfDMZ035YivTkJOw3sguCZrX8Pn7sdsghkh+LMeXz73HWObejT2cuH+VDSmo2Tjxse6xcKQVd8ivf3ixLdiKVKP3lB7z+wVf4592PokPQrR7YqKc+mZUK2bCjqFFWeFD2w0gyKiRAG/w2fwXaBOT9UAwknxOWchJFSU0aFi/PRZZZA3l6zPh1DkbueTBO3X8Ifpk1A+UiJ6doFd7+fDou/c9T6NlGro9Vw0hOxw67dVeTFlVXFWB5jYOTj9wFbX1F+P7XZSon0imjmBlPGf4azdahS9dMMURMFBQZWLE0F33SgeQ2HTFyv/3Qxseuea4MJCVJyvr2I7pxDw+Om4Dh23eG32/g0JPPwqDtuki2VAWlRcF1wjkfOLLbYMQB+6IDZ22OcWVhKYopWdh99EApl5xFnJ01BtIy/Nj/gAMRFKUYFl1ZLfVHp9RMHLT7aOw4rK/b0xtXHl37tkebNBNrcvKRW5uBpOS2qowb0STRqfVfyLUGWNs2RAmJrRuct0AUAY8tH1asXI3zLrwAE95/B906dRJhsX9dKlY1KQujiUu3paAmcJA0xWqwaM4MvPvdTzjk0KPBD5BbjR4QjTxv9iyc9rcT0K5tNoYOGMIhQEoudk0hXnr9TVxy/a3IChfjPXmj/8+jzyGQzM9COX8jUFNdhX/ffAsuO+98HLr7HiI4Mz6Vtk91MzDbWGLgTXz/Yxx/8sU45eTj8dgjD0sAKeym5c7azhlU2RLC28qVtdGI+MuxL6gqg3ffeg/HHjIGXdt3Rl7RWgkUQLs2otQ9fAExIRxUlBUjwKjkt/P5pMK0I/I29wXOOf9ipKdyjdiwPJMl94tPTCaVr89nwuRFviSsWZOHf155FQ496CDst9/eGDG8l3qGhYuW4YKLLsZpp5yM4449Cr26p8KpXIHPv/wcuxw0Bj16dkF1Za0YQWIsMTuJgRWSar2moAR33nAV9tpjF/ztonsRC1di1oxvUWYmoX33Tjjy8EPw3fe/uC2R7I7iM1FmzJOqj6aR02g2g4qyEtx03dW4/oZrseduu4sCVZ3z6pxPlCi73N3qzo8vPvwYZ512Kvbbaw8M7DNAvRtwXpuAlCV+kNrSqkVqNVdB0iigTEQWSj7clTN2NYpzCnDHA+Nx0zWXIjW+aHFtWS4eHTcOdz/5DDompbovN3IdJ3lWukPqsOriYlxyySV4+O67cPDonaQe9KvuV6Nu+uTWgyvjBFwRc3r2AGJSobM52JKM2K13Pzzz3PO47orzMPHtd1BeXouoCIwrgdb9SC2mMnRlwAp/4awfccfN1+LUf1yDvv17w8+uu5ZW2taHpH/74aPxyoRX5Xc/Hdddcyvy8y35nW2Mf/p/CNsOTjz9bJQsnIOpX3yICy6/FBdcfzve+/wr/OOmJ2C07YBb7nwAb776NjJqizD5uy9V/7LtGbciY05sdPARJ+O1N57Am++9hqsuO0cqQnftCkPuU17mDghlE0Z5eZm8fQE9e3VGcUUVyqVQH3vyaXj66XHo0rYNrOR01Vq1ZN7vjJxmtPyzsHpNLbp37areWNQkZXYNvvj0E+Qm98O+++yFTHAAqw8xqUxLywrVtTRmSsrZ8iE/eMRCpy7b4a4Hn8D7bzyLubO+x+oiCSOntus7BA8/8Sye/u9t+GnaZBRUSSVUvBrTf5qKfz/8OE675CpM/eZ7fPX+BzAyO6Btu2zM/W0eUjtsh3/dfSfuuf1qhIIZUsXbeOvlcXh/yhT87cwL8Mzzr2HWtOmo5shWd0YzcerPBlw9ahIgFV6jWT8Z2R3xn/sexfjxD6OyohhffT9HippUcFL22DVqi9aksc96/qAxJ+H5N17D5WedgvvueQaV7JuWOp/1YeL8oC0Fponr46jmU3kRCslLB1+43XQaCJWvwJ0PPolDT/4njth3KJJ5wgnjpccfQ4ce22HMCUfDz+Lr+OV9LgC/yMpd0iGAtPbd8fjjz+Olp55A0W9fYubvs1R3sSUKRo2Xa0WYagR+A0fxchuAaXH9AaCqZjW+/3YyqiosrC1ghrSQkWojKK+qDMvs514nyLbObcs4UZQtnorLrrgOV90xHgfuMEA11UeCkv51TLeWhfd1SklxKS7/x+XqA5Bf5uYhnBRARhpw/UVn4aMfl+Kyf16FoGjiNruehG9/noeP3nge/7v7XzjyqENx/38uxneTXsJvP09FRaQWs9bkITMtU3XTMLOoNwLbD5+RLjpWFXVBto6YDjEuG5+KM8YejldfeRZ5lRGUFFlYOHcRRvXIRPeBPZCCEF67807USA1ZLM8bSsmQqzvi5KMOwK03yvP8Oh+hcAhzZ8/Bfyd8itG77oYMVZ0C1Xn5uP6aK/D3Uw9BWpKDWnkFKTfScMRhB+OZx+9Bvhg71eXJePuD77DXyL4chQZfwJQKIopgpwz079sHs7/8UfwlvoAY7H4bPYb0QUDKy/KZy/De5F+w46jd8PbrL+KVtz7F++OfwpM3XYzV4QycddbROOXQIZjy9QKxkjIQikg5izr48ffl+Gz673h/0ut46e1J+PCDSegRnodZv8+BmELxwsU/4uKbBi4BGh/eb6jRrA9+FvrRhx9JGZGyEkvC4pw8ZLdLlXpdLOkaW5RuR/jLSxCLOVi2ejEevf9ByfNBfDd3BWIpBlI5PCJUKeU7DWYkgmhYypYUZLbeceE8ovTCNqoLIqIPa/mezn7ikBgHgUwEagvVF2uOvLAce/KFGDxkJxx71MFsOAXCJTjz2IMxr8CHi8+5FGbIRiXfHwwfasqkTpFyWSxVRqW81Lzz0rNYuWwJSiXe+ZVV6CgVa7pE0dQM0i0d3zVXXX1bfN8lXqHFxPqLWEno27sP0gJhzJzxC1588RXMW7hYlM8VaC9vngFRHZwjn5QWFaKLvG2qWTATaVRBbjPIcy+eNxtL5JX3u59m4/OPJuGXX2aJMtsVPr4l2JaalbIl4s3Wl5SSgrlz5uCll17B8pVr8MjjTyIzEMPMH75FrZOCLz77BJ99/AHCvgwMG7idGBQObDE4QkYShg4ZgmS7FuNeeAUT3v8II3fZHWPHjkWS30BNqFbyibwZ+EyEaiMIZnbB0MH91fwh4VAY6ekZ2GnHHTF052GoranG088+j2nfi0F4+RUY1L87/GIMHXrggfj5p5/x3IsvY9r06TjtjDOw26id0bVbZxx99CG4539P4ZP3J+LXn3/GQ089jz7bdZY3EdaIJlauWIFVufn49sfp+PTDSfjs8y/QoXNfHLrPbujYsQMefOJJfPH5FFx6+ZUYPmw7LtmIsrJqDBq2IzplpiApKRU1VbXYfmAvlFaHsf2wYWib5kNyMAO2VNgRqxL77X8g+vXsrpoaO3XpiNrKEnQbNBS77jQEl114Nh57dDwmTXgTi1euxHmX/AORqkIMGzYUe++1u7pfMCkJ7TKkhAUy0LtXN9WKsyESi5k3bbteVqD5VFdXq2nbua5Fa4F5JBqJ4rlnx2HCpA+w+94H4Mgx+6I6fzX+dfOtKBclmptbhFUrF2HfvXfHj99Nw+tvvIGVObm494EHkCXZ686bb8BPM2ehIuxg8uRv0Xe7PujasR3KSovVtO3qzc29mbuN89dvpZNX6/gz1pSX4qabbkFJZRhFxcVYtmgR2mRnYvbv87F6bS4++PBDfPftt8hMMrFixUoxLEx8+vHH+PSTj5CalYWvv/gMr7z8qrysBPD115PRpk0GenTthMcefwaffPYFDjvqSOyx++5ICvhRWVEl9Z8YdX95+Ww5XION5c3Iy2m8lL87Qtfh6qVi3XGRMS7WRXNWLR4m1iFnaOA/v5yhEcL9JQvmq2nbUzNoz7VU2DRnobo2rL7c4IJX7iRdLQtOH6wWGWLS5DfnipAqX0ja+VtzQCY3lAXHeaiWMB7GojDlOraUqWC8illH3orU2CE2d4hnaVkp0tPkjUsMkTq738tXEoaLuPJ+6oCwT5Ar6wp8JLa9ubG7sH2Do0bUor3yaFxWnwvBGZIOUyKLx1J/L0GlTaLgOtFuDFTzrmdULghI4Loz3OFgGLVyr7qTOLkZx6ZwV/yZPibQseU9UHZNLrerWiPkJryxeh1kyaKsxIOnBG5iIsOgitJWC9q6F/DelloJlV1IbvfV+uFpL0hJSUndtO2a5sHpsjlt+zovUS0Y245J3pICIy+cMSknzD+eCRaNhuAXpWk7kv+YtaUgq1ypyoFsqSRV4eZVEdmXshAfuyWBsGzxIvTpP0DFzYjjV9exLRgh6sHjcHyaWw26xgnrSMIxZPyojivmqmN3o+ocxkB5KpHFz7tXqWhEt7pb+rGMM3xeXj46d+wo4f/q8tlySktL1YuS6RoWrnORStIx4ZNa2jIsRMyYaiLn0uucUIVGBytuVu0xkzUmpecuG94SFXI9TJukmmmmYdaC0+sWMlGAotVpkXOZaRZC9gvTDFFLe9MAITRMbKmEOAGPFBzJJSIqsW4tkZM4ZYAwfzF8vF2WfrGYm884wIsTdXHgFsdF+HxyPds7lQEiRViME8dPU0CulXjUHejn+qg//IKL+5YyQBi/GCAsw641w0zudv94jvcxYvBxvIfA8f80D5g2Xs/KgXdn0ADPyPM4bKZRzysh1O8uFS4jVbW2W4FzQK7pk0Kl1vsXA13SYvvi6ZZnVqPf1Vbi53Xi+IhJIl/e2aChxXsQuYdf5OiIgRPbxD5i5ksvb7bsMrn1SJRTa5GZaUq+Z1mXDM9WQtcgd9MeCCRLfvZJWVAl3jUhmMmZb7lV4VjWmTfZIizHnHyQZYoDy6l56VgQpVywTkl0f30aPiPLKX347Ey5GsAetyzqluwXPAmy7vSxriBynlJS18UdoR9fLiiOaIzf4siLh2xZF7VkPAPOq6eM5UuXqjTzgAOS1MRIkrFoeIidLFteJW93VBRyHOYnW+y3lzARqYhNsaY5gDBnbQ5GjBiulmj3iNe32y6iPLyxMjS6oqYoYb7xRsOIRiKuFeeZuNs6dT8USwUPVKZQh/zdWUW5i1PxWGSiwlJ5Mhz36eP5UqmLsSqFUA2yiitRN1Yfamsi8saZ7L6FMS4jLH9pFMgbmYiT4ZTMGbW6n6vvidviwLcuGiYceqqaDsRf8q+E5ae//MTN6yZkO16SGEiWRKB+OxpINHLEn+lwYSq4z+eRPSMq+T7elaHuwzTwYbhUOeVAf3liCe6I4cVTfnVfiUfKAucrkWpYnsmN3zWCmBAaW+5z8lmCUhj9/GZPnikmBgsHgCsjX8K7cpV7MBkShI0w9chZN2rBvb8Edq8RvK4FrqLLFi2v0GvWT1lZGTIzM1V5pmsNMmMplhyn8qTJVj0ppxw0zvKjjGUViCM8VIaXDWerYZl2j7mKtBsDX0zFWJFjlk/b8CM3vxAdO3cWfcIwbgyJ/NUNEa9uYPq8ckVYr6lUs6xLEMpAraYtMnH/0Y91hCtX6gzG5JZRt05ykbCup5x3jTTq4NLSEmRlZLTolhDWS7FYTHXHKKN0zcpVknRB/rqjoilINqhHJQMF5ZACkn31U5iISaXpF/ODlW20zghxsHzZCowcNQLp6Q27Y+ory20NSoUFiwXSzUiuInMQkkqexhpXDFaW3F+8QDUHlgf1G6ukuL+28mMrAN/6pQLyy5uOUqBSsBiQb0hU0DQEVO4QWVBBx9RAU75d0UhQQVWc7l/OyFuFtLQM+ANJIj8JZ9SK4mVlR6Wr7iz3louUAcB9Vn68j5sHlUJn5aiMhTR5JsbNlhuG5r7kUzXzCE2eKJLFcI75xKhm3I4YP3KW4dkN4mf+jYdULTOqIqaRnSJbuasYFH6pSCkHfjYciCbLsYSW46i8SVp+KS1iIQRiScqfb4IhP8sPn5uGCZ+Gz8bnohHLykeCSZqSbHlbEoHG5E2S97F8FiLiOMCVDUJsEeKoeqbKbaOph7+DK1epwuTATTeduzolu2O4QiWNEOZRzYbhysNc2ZnyohHSGmSmig3zGPOknay2rOuZnzyF6b5EsLwwqJQp7rMssO6XPMkXDb6csFy60zUYankGzn/Rq/d2cNhCGs+XiWyrdaaqg6TgMUV0NEmUESJHrCOIj63AlI7UN2GpKgNSL7D8K7EK3FD2qh5Qx+4Jat6ioiK0b9dWtUC3VFi+uIx/TU2NqqOaGBPiCkbV8yI4iptvdNyjuNw3YioAfrrFD45Y3TpYMH8hhnMp/3TOpBGHcWyzsqQUYpLFqFBFmcgRW+TpXVnF9QEgb04taCl/JkgS6ZoC7GwQD74NimZXRgj9lWKkAqRhIvlA/qriSOUdR+UbKkw2RapKScWk4iTcL5SCliWySwqysyNe3amCLKgM44bmCgw8zzh8rsZVBZkhlWLnHpW0OhW/XoUT40E27h79uOMpcRpQ3NKg5C/rtmDQj8nwnkcFiWMoqZCA2qM0DA4qca0eCctqxI2D8N7cpeTcpuz4eeXrCpH5yk03/whyWswfdUh/LzT3uN8goDiG5MsC/fke6oUiVKhsCaEh0mJa6v5g8vLy0KFDB2WEkKaMkJbwstE0TKsqyQqVyviBW+zcA7d1RPZd68Xdr7vK27q5d9HixRjQf0Cdrwg0vuOyLcsyMdVMBUtjPa6PB8N5R14oFSLxRAJrc3LQpXPnVlFu+bLEVpEmU6pMjnimYfOwqmRpkIii4Fuk6keMKyEPVolNSnUbhwJyi1Uc2YnrrJaHJMob76MO5LdXTbDcZYKVIJgH+AEem20ZTIQhO9y4ypeehNe6+ypY3BE2P7qRcZ8GC/fYjCsRNMhDbAFx85mKW5wbggYFL3KNo7qIFXKg8imNY4bzwsbjrgtLtU2FQ39B5W+mnfteaPFTNQd92RrE/fhGGTVeZPE4GL24+JHAPUo0bjAoY81Lt3u1enuSm3jlJ9GYIK5qEKdkSRe/Lr7vxqTRbAluHmqQk3hQ5xHPlw38EvNfonPx8m29T8th3RR7eyzbro9H4pEXSvk1DFbHerxbNG6N2AhmIL/D2fI4bS2HC7rBaICYTljOUgXxywZ2V7iZseW9JTBd7ngAvvASKhjmEldVtcTs4qVMNTKKU4mtM+HZCsCOBiUXtlzEBUIV6r7D83o21YriVSPlGQPDk7hho5C7xFtPVCuDePNMfcOtG5db9TEcc577EDSE3bi834BKnOHlWJ2SPxy7ogaF0V/CuJaEHDb8zRiDeyf+5TURuZ6/uRuVupb523G7n3ioWkF4T/WljGuyMQbPSHD/qqDKudBHrmGkKt2SLvGizNimRJkyROOrVMVPp07yj+cIZUUjit0tPPb8NZrNpz73uTTMkRti/SGbd/22RcPUrj/tiTQvVOvDdzXnCZFaLLEKo/qJludjeUEFktt1k4qX3w/E5OWvFlUVuSisMJGe1Rk+mwudu8qC30936dIVSYmfuInEt13bRJRGtBirVqzCktUlyC+z0K5tuvpSNBLhSgFoQfMwyK/vVKFw7WosXJGP1fK7t+/QVsxMC6GCVVi0cAXWFDtI6ZSh5rCoKcrBsuWrsTqvAkmZ7eAPiDKtKsGyebOxNrcEVUhCWkYK/KFCrF6+DCtWrEFtGMjMylRfntSEqhBMMhHgWgw1xZg/bxlW5pahIupH+6xkUdBijki4ojWLsSqvAGabDmoAZwAh1BYsxcwlhUhOb4e0oCj0WBlWFZbASs1E3q+/o3DNcuQV5CAnr0RcJTKyOsh2BZL9Qfj9orTtYnmm5Vgjv2tB7hpEjTT1rCa/R49UY9Hs37CmoApLCqvgT05HJn9wPgx/cG7EuCkuKsT8pcuxMq9KmamZaT4ULVmIlSuWY0VuHkrLatG2XVtJq4PcgtVq/FAKy4UZQt6KlVixeCUKc/NRKgZEUmaG6uTJWZsPnxlEMOgO/otGIygqrESqmgZffh/VF2+jRO69aP4S5JeUori0FunpWUjyibGnDC0aOO48IexrZVNny+1C2LpUVXGcUtoGm8G1LJuLgZKSYrRr107tN4WWZdNUVlaqcZWtQT7hcFiVN9cIkQRzIIz67EhOLlowFy88+RB+mLMcu+x3OHxWSDnTqsHjj96Hn+fmY+eReyPJrJLQrrBanBEi9X7Rqly88OLrWJ2Ti1feeAWDBw9Cp47tlRFCWo4RIj+SWAkPP/Q4Vq8twpPPPoXuPbugR6+OuP2Wu1CwdhkmvPUsip1s7Dh0IF5++mn8tmAevvziK1GoS7H77sPw7rsfYNq0mVj0+7cY/9pEHHzEcVgjCv2NiZOwTOT33ruTMGrkKKRnpiNUG0IwkIyAHcZnbzyHJ9/6HMWVFhbO+AlDR+6AlCRRqtECnHHmOZj0xXQMHnEourdLEgOwBpNeeQrnX3kXov50jN51JwRLV+Cu/z2H7jsegGkfv4e5M6fjqiuuRHkwSxR1CXbccQfccvMt6Cq/W4+uHfDZhx/i6RfeQVFlCMuWzcf7H07B/nvti2D1Utxwz5P4YtocVBYXYt7MyXh3wjsYtPsYZGeYUj4opRjWLFuB//73Yaxcm4fVi+Zj4cI56L/9YJx/1gVYsGQ5Sqqr8Oorr6J/v/5SHjrjpptuRFJyEgb064dvv/wADz35PMpqY1gwdzqef/4NdO3aG9v1bIe777of0YiNQYMGyH1s5OXm4uknnsfoUSMQTGb7SwwrxcC6/c57sGRFoRgxq/HJxPeRv6YMw3fdUc67ZZdoI2TT0UbI1kQbIZtLazRCwIGpdPm5eU5BXp6TuzbHyV2xxPn109ec62650/mt0HGW5xQ6+WtWOHOmfeqcePhQ59a7H3XmrIrIdWviLseZMmWKU15e4di208Bts/DZa6KOVVktO5Zz3e23Oy++9ZYTlaPyigpJazlDtRAksRHLiZRWManO/54a71x1yw1OyKl0SkorHCda5nzz3mPO7sec7ZTGHKeyOE+uqXWm/zjdOfSAQx0rXOqUV9a4UZX97Jx82hnO178UOE5FyAmFa5wqJ+Jc8s+rnKk/TFNiLSwqc2pCElFNmfO/K05wXpswSe4kyK1qVaYpc8qWf+rsPGp7567HX3aenTCTjyXPUeC8/b8rnH9cebOz99iLnFkriyWyX52rr7vGmSa7Mcty7LUrnL369XG+XZzjlPAScedccJkz4/svnVj5GuekY09y5i5cK/eR8HaNU1AkzyGRf/fKPc7ZV93krOAFpHal89A9tzm3jPvaYQ5wnLC4SmfksJHO559+64T5QHbYqaksdipiEWfssSc7kyd/50hszrjX3nCeHveyE5ODiy67zPnk84niW+6cf/YpztfTflLPxOOfJn/jDOwxwCmuKnKuvelG591JHyn58F5rVi9zbr7xTqemqlaOIyr8RRef7Tz0xFNOhdw7Ggk7+UuXOWP3P9JZW1orv0Y9RUVFTnV1tWOJPDTNIzc3V34v/noutuTDxk5DKAfmqw0521m0aIFs69GybB5r165tNeW2rKzMEePfUcMd6CRbuJ/oigUWDPjQMTNVjn3gOikBw0ZBbg4eeeQRHH/cMTBSASuJV9FaY7+0+/bAbnNvfACd9x30toklCa/EmjW/Y/Lkz/HV1IXYaed94mMCWhLq15efMIqyirX4dPL7eOjR53HogSchCckIOpX4bsoPePC5r3DBaWcgXX7uQJKNH779Bi+++j72P+JsmMFsZKYkSTRhOBUViMSADt07cAV8LJ/3MyZ/9AFW5teiT1++5btfUznsXkgKYPe9x+DBW67Cmy+8jvnFNQiK2BEKY8qkyRh73hXYYddRmP75a6hVWcmWvOggpXNHjDnkIEx59RU1S6vjl7d+/ijMhqYFn2nDLxY2p1DyIwozUItUpwi/Tv8GldlD0bd3V1SuWCjpmopf5i3g7fD7z0WS5j2RzR+YJKdh1933gLlqBYJqgEgtatYsxLICYNCovcSC55iQIFLS0pHhhOELlWHezGn4+qspmPjl9+g1cAcVDcuBP1qBwmWLsLooE0MHjVR5CFYqRg3vi45Jcl1hBaoNH2IOu/lCcpLzpkTl2pCUQba6hRAuWYpvv/wVYw7+G1QvVCCIjr06Yki3FMyau0RdRREpJ7JQw1/U584azdakrqBtwHlhNJqN47bhxp2qsLiv4FRlBvxS19ply/Ha2+/h2DMuR6cOPeFYhlTCDMgrWENTc8SrwIT4tmnYHCZG2PLcIixevBiH7TgAa5cvBjug1IDNFoWkx+fD2uIyrFqRg7OPORAr5v+KSsuH4toaLF0+F3uNGoRffpnHdZwQrrWxcMFSDOrWFoVLfkZZSAwKTmwRq8Yjr0/Fnnvth57tRE7itXxlHgpWrMbwTmlYm7NWVLlYMWKAqNkEDRMjjjwWL7z8Cspzl+HB68/GrEWLUFwVw/QZv+GUww7C8B6dECnKwfwVRZJbM2DKrQK+DJx46AGYJcbJ59//imozHVFJgpgb8psF5FFoPFP9u3BGVX5Ra4ixor78kf3ayjIs+vEjnHPueSgoE5vDDCFgptRdo2QSs2FFbcnrPDZRUVmJqqpqikrCyYOo/M50WIhIWtasXYWpUz4F55XZZdSOqmhwVtZYTITm5yRYkm4aL8QnpojB1Zf8avZd9Q2a95kyS17dlzR8InkOeUEw+TmbPBaNGNeQ8cOxxY/T5cdDeo54W41Go/mroqrXdXErPjUbnNSLC2bPxAuvvI4TTz0HJ449H7fffCvGj39BwlAZS1huWhySKDOAffY7DOeddwn2Hz4EP037jqsktDD441E1O9hp59E4/9wLcd6pJ8ob/SeoiITRoWsvnHnu33H2aUfjg08+x9q8GmS274izzr8I5512En6Z+hmWifKlCfDgPfdi9qoQzjr3TCRRfEl+HHbkWJxz/qXo0z4TP//6m4SSHGPwmxLJWLy1aPTtd9wJV157FQ4YvT1mzJqOBTlFeO/rX7DzgAEY3rszPprwBt6a8KGETxLlK2/3dgDdOmfirn9fg6uvvREVNTFw4lGqcEcMECpw3sNV6e6H5FYgDYN33Bl2yUIUFZWg55AdcP7fjkCb7LaIybUZWT4smrdAFQiaF4haWLhoOTI7dXTjEWXfudcAdGkXxJKFCyQMWwBdNW+ZfkTNIA45/HDcestNMCtKMGv6LE4rIiEs+JLTkN2hC6KVq1BStEZdw8Hga9eUIK/KRt+uHZBkx5Aa4FLhnOgoSe4ZZEqViHic3LanbMNYvmyO8qNhVVMawYI1VRg2aKCE0Gg0mm2PJo0Q9qJwljc2CbOC3nHv4/HLz7OwYu73eH/CQ7j5zltwxnnnSRUp72MOndcl41aZLQJ5U18+6zs8fM+dmPjhZLzy1XRsN3iwqAil6twwLQYH1TlrcPv1V2DC+5Pwn6ffQZ8dRiNWnYuLzzkfX3z4DZ594R3022EgUtOB26+5EB9NfBvj3/wIqR0Hon/HVNx/y514/pkJOOLAPfHplK/x/W+/4otPXsW4px/BpA8+wVfz8rFdvIsiaqhVYkQpl+HVx+/CxLdfw5tvf4DPf8/HPtt3w1cfvY+xN72ENZVh5FWyG+VzjHvoXhTnLJWX/1pE/RYqRFf33ONAnLjfrvj58/ckv1JVSy7knBuSgR3Jv/yV+KlxJAhUGGlIadsRx++RgXvuvgET3/8Sn02eJsZHNvypwEGnnIZffpyMZ//3ND6d9Dlee+1TfDn9N+x99P7KKLGMFLlBV7z21L/wyL3X4sV3vsSESR/j3gefxurCCIK+ZLlnshhV6bjhhAPw1SfvIF+uCwWSEEI6AimdcM6xe+Lpx+7HB59+jklvvYabHnoatzz6ArolW0i3qjDju28x8aMvMOGTqcgvr0Vh3lJ88Snv8y2mL7bw2CP/xgvP3YNn35yEzz/+Ag88MR5DxpyBtm1Tlemi0Wg02xq+q69utJQ/EVvClMozs0NPdGjXQdRFyG0qtkV1pKSiXZfe6NgmGwEr4losckFRcRG6duuCpGBSnSnCrTvXwbaIg4y0DFTXisKrqMaIXXbEwYccgCSfH1YL/DomKTlD3tlNFJeXoXePXjjjjJPQPjsDbbPaydt7Odp16IZzLz0XXdqmoWO79sjNLUdaZjYuuOwipGdxivAUjBy1i2SRCCKhGqQnBTB8yBDJFxUiwwj2P/Ag7LbbTqqFJFpdi6CcT0qRuDr2xMo1hfIEJo46/HAM2XEnpGVkY7fdR6NNih9+MSoyO3XCwEHbo2+f3ujQuRd69huGLu2zRPH6sPPI3TF4x+EYMrAvMmgH+0z06NsfA3fYAekBPwKGga6du6FPj+2QLr/nzqP4hU4H1RriE8PhhJNOQ7/eHZCWnYV9DjgQBQWFsKIxWEEDF152Mbp1TFMK3s3LYvj07YV+A/qjrLQM4WgEe+61O/r26oKunbpih2E7iJGWopbuz+zcQcpDT/Ro3wmDBwxGZnoGhsgzpWa2Q2FRqZQlC0edMBZ77TVKPWPnDp0ldjGYYmJEWRa2HzAAbbIyEQpH1TpFHdpmYTfJg0N2GIrcvHw4kRoMGjoEY08+GOns2ZGrPdO48dcx22oJ/P+EX8dw1WH9dczWgbP2ul/HaDZGYr5qTV/H1C3lz9G4cb/6Aug4qt9bTYktFaMlRojqynYMtXq5SUXMZcq5VobCwIIFCzBiZMNp21uWGN3mfY5zCNVUi4jctWNaCrQxOUGq2pfflvsRMSh8jl9UveQDNngpCVCpxX9Z+fnZDcKsErOj8HOF4ViMGck9r4LJHxYo11ZVlBYWITkrTS1ix6Y2Do9QMHq5lCOMuDy4T81KQqIib0Ocu7iYh2rtUGOTJGpHnlktiOfCrGnIn5gYFIHkeDuB/HhcltHPtW/41HwmLg+s1uF21LgLJpyjtcNi/NAwYkhlZxNupSBwcC3P1MpfrpuRZHCNF88gVZHKXSQMVyF1R2/IbTi1mIpAzf4af2xJGdtq3Enw69YLb6oCioZVHwxnK+ZzsYw6RkDuw/lTXLzHLC5JmLZd0tNEbJpGcNp2Kk0ab5otZ9GiRRgghrQH60vN+vGMjhxO296lS6swQriUfzAYZJ3uVuyJlTsrQUdqSkcqdtsRBSD7rDht1s6SmexoVCpmVoLuVzD8qob/WN1RdC1RfN78nT5+cSDy4fL2yp9pj7ttGc8AUUhecESBBnzJYiBIpUxNLMmj8qs3QOjhzp1L68GnFLv4ydu3UqR0KlIJT9HUZQoO6RQzwxKJUjEr48Z11K3ENRES5psRNaumb2d8XmC5LQsqsySdq5hVYIVS8vKnzgAh8kx+k/HyDgLDKAOESMo8hS1/pGgo5c6zjIuO9YJJQyh+hl/fJKmZYYPqnOsYD1tgkiSEN5uphFaRSGzyn2M9vIRwqCxNFRG4nOBJ2XrUB5PnpJHDVkY+v9zfcOWTkDr17OpqWmCUrZcezUZpCWX4r0RivajlunE8GbWGBSe99Hl5w1i4cKFs3QO2btiiXOkceSuzbR47anIuW16VeSwhVVgaHuFwSNWPrEDLyyswfPhwJMe7KBimRcHaXH33KPrTcleH9bMpSSkd1781WK8e7mTtaqceJZ+GMvCOEnMD800wWJ9PvHMbkl5da4SgvisXPK/4z6JQfhuKaAPQ0KTzjjwaRlcforl4MdVfVx93na94ca8uLfHjpkhMb1NwEiC+0Se+1be48riV4Yqe7I5JLMNaZpsHFWlZWVldS3FTctSybQjzHWXCssvWgU3RJduSLJkuNnhwq+wKsTWMvLy8uhTUJYab+OeC9W+H/MuWD1E+Es4zRtxrDCxcsAijRo2qW96+JcN+OxY09t0RL72bknG2fdz8sS5ey0LTUFb5+flo06aNGlPT3LySaISo/JlIXOwbU84bwzVC1iXRNPn/pEGaE9hYOr1VdOmYJ1tXvtw82B3DPEnDrUGrsGaT4cvs0qVLG3THaDYO5cal/Dt27NjiyyyNDxqq1AENSptXYRkmrRWfckoYCQLhMQspm9/9Pj8CfnnjEqcGmMSv97p3WqrjgD/VWiQKtKUbXFsb5g/Kr3Uabv9/eGVRy7f5MF+yfGu2DE8XaDYNyk2NtWwFsJwxvWpf/U3AVQ50FMa6CjbBHGnwdqgznUaj0WiI1gea5tLACKl7O5VtwI7JsYmYEVCmCL8C8HEsPgepymUWM5myVyQKOl73pzRa/9FwloioMsnYAbGuWdZa4W/dlPuDSIz6D7xl46g995fhL/UwGk3T6BZiTXNpYIR4XQymbAuXLsUnn01BtZGuZrlcvWIBnnvsv3j80SfxxqRJqJXKkJ9Nqm92bV/dYMEWh12LOT98iUefeQer8itdu4vpbvVljNqwKbd18LoSPCd/JLfGnXfcyL/xNZvqvOgbu6bC/n+49TxMXEIazV8XbYRomksDI8Try5vyzde47qZrMXP2HEQQhGMmY+XaAsAfxD777Yrdh+2MlAgH63GyMjo10XWLgoWIU27n5+Ti9rsfwKR3X8PaFcth8NPQrahsNZsBxZ/oNBrNXwbPANGGiKY5NDBCCDPOAfvvg/8+cAfS0lPlWOp5y8HqVWvUYJKkgA9t23ZAzPaB82V42aylZTfDECPLCuGDjz/FUaedjayMVAR8Bmz1UQiFooJpNBqNRqPZTNYxQlQzsB1D0C6Hz65V8z2m2lGMHjYE4epKvPHyq7j/6fEoNZJggSupBMX53c8GW5JidmwU/PozcnLzsesRxyHIz0ltC+68UtrC12g0Go1mS1nHCCE0KGKiaGNmQC2RHor50H/ITrjon1fguluvRiAaQtHSpXJxRFxYXMyd06DF6GYmxMCjj7+Aow86FF2T2eJTg5DPUPL4c2aN0Gg0Go2mZdF0S4hSsn5Rtn41XTuCURQUFsGKmgiFoiguyEeXju0klKeOW2LLgIlFa/Nw5ZXX4JB99sGUr77AbbfejKLSam2CaP5UvIGrG3K6P17zZ5GYDzWajdFkS4jhGDCdJDFBAsq+iJqFePaZx3HbjXfinn8/hJ1HjURWx2wJyb4Jdti0tO4YSYgUoDc/+xhf/fgjpk6djkMPOBT333YLurdJU8aXRvNXhkaINkY0Gs1fHSM3N7dRLeWIAWKrZfqLQz4EM9sg2a5ATVUNbMsRZ8GfkY1gchJMq1aCc30KAwsXzcOIESPqpjJvaVRXV6spnTmvP5f95sx2mZmZ8bMu2vJvHpyamNP7c8peohVl82lOHispKVH5lGXRM0Y0G4ZLCbRv3159Iajz45bB/LZkyRL069cv7qNpDsx3oo9bzSq6nLZdLZPAhHvOg5ORxfypyExPEgOkRs0DkpKajjRRuhlt2yHoM2HEOJkZW0HcK1p6wU1LS1MCa0pemk2Hc9IQLcdNo7nySjTwtNu482Sl2Tpow3fTYN5rLTJrXM7W7Y5Rs5+a4Hq5sC0YjoWYoY7kYg5BNdVokQCFppYUF38xQryJzloyzCSJGYVp9vxaSwbaGvBTb8qrsfy0a55rDt4aFJ6stdu482jqnHbNd54MCct4U466Qrt6R3lRLiy3PN4UGsf1V3de3uA+02zMnj1b9t0DCsCK2YhZMVh2GE7UgGPJBVYEETE0YnJxVXUtgmwFkbA1YpQ4dkSis9USxDvttBOSk5PVDVoyFGJiIdM0Dy8TevtUkHTEk6eHF06z6Xh50pNpY9lq1oV1H+XErZcnNZsOZUinlMsG8p2WcUO4eGI0Gm1QRzaXba2u9HoUmAe4nH+DMSGJibERhWkH4eOU7IYYIKYYKZJvHMcHv8MWEiBq+CDFVoWev2A+Ro0chcyMDDeCOlpeBVheXq4KWFZWVgOZbajQaerhmBCOp+G4Bc3Wp7S0VHXH8IVAV/bNo6CgQJVnKgNvdU/N5hGTl9SVK1eib9++61WQuq5cFxrAHBPStWvXFl9umdaKigp3TEjcT8GMoTKH/DcNvzg5lhCWKYVS9hnYFOvD8hmI+blkv6OW/Td8fKPltcxwia4+zpbkWFF5JPprmgdl5VVO66ukNJsPCzjlqvNk8/He3LXRtuUk1o/Eqx8TnWZdaPwy/7WGOpHp9MpakyWOn+j6uDAdW0B8Uc+cEMe9uPKgE6NDfZqr0Wg0Go1mi2ltRpoyQmh5JToORg04VbAQQ8TwwWaLByLwORExPryvGuy4ORJHW7cajUaj0Wg2gXVaQmiFBfzA/N++w8OPPoqImQLH58AnRsj833/B8SecgH9e8U9UV9e44dVfjUaj0Wg0mk1DGSFeP503IOvTjz/DPbc9AMPJQsxJVy0ic39fhof/Ow4vv/wKHn74YbRt20ZdzGEg7L5xzRFtkmg0Go1Gs7m0hjEhHkxrg5YQL/GHHXownnrkPvj8ATBIsKYYX3/zLQ456ni88fJLmDHzd4QiajlZOe8aHw0NEc9pNBqNRqPRNE2TRohjR+FHlRgYMTXUwyzPw7SffkJ+TRi7jhiBl196HfMXrZCQ9QaHMjnU5fV+rtNoNBqNRqNZl3XGhBC2bnAOEIff5wqcCSS9Uw8cfuJZGDJqd+y8Yx/89N0HEpDdN7bYGjEVTqPRaDQazebTmr6OYVqbNEIU7GpxHGWA+DI6YLsOGSiY9wOs6gosW1GA4bscIKaKDcMxYdh6ch+NRqPRaDSbxnpbQiwziKDPJwaGAzspCxf9/UTcfdU5GHPgvujUpQ/6DhwuITlzqhghqkVEo9FoNBqNpvk0aYTEjABSew7DheeeibZOuYQKIL1LP0z85md8MfVHXHrRaUj1V0lIQ/5bcOLdMd5XNolOo9H8/6LLnkaj2VZoujvGMFVLSCDA/houUCfHjoNwNKLGiXB6dp/JUahm/VjUVgQr+LpBvLL1nKb56KnF/zgSjRDKmFOSa7dh55VfnR+3Dl751jQPyou0hvyXWO+ruiovL2+DOYUX1BVQ/jN94MK69DFs+ojwHBsLFizAqFGjkJ6e3uIzX01Njaq4UlNTG6w1oSuw5lFcXIy0tLQNLhamK7DNhwvYUb6tYUXrrUVOTg46dOigFtTSbDkLFy7EgAED1L6uF5sPF7Dr2LFji17DiPmB9TsXgmV5M8R4ULU9lSqtscZbBuZyu9zaHB8iLiYmiGwQqQ3LlZYYIg4qKyowfPhwVfG1dAUSi/HT5fqF7LxCpgvbhvHyBZespvFBea1PZi09D/2RMH96C0RRvpSllueGCYfDynBjvUe5cavZfKqrq5GRkVH3ht84/+m6sh5PFsx3amn7Fi4bpo/li3mC+w1aQjZUUXmCcRyjriXEtGl+iBFiOFg4fwFGjhypMl5Lr/CqqqpUGpnWRFp65tlasCWEstNL+f8xlJSUqKX8U1JSWvQb1dZE6kG0a9eubiVTzeZDBbNkyZK6lpCm9IGuK9eFcmI+7NSpU6vIg15LSIOUKqtkPc5Djur8TMN92+LWUHOKuOESr2uJTldSW05LN1T/TDzZMq9qmgdl5pVvzZbB+jFRjlqmzYNyak31opfWOm1KD881B2Yrjk31spcU3/ieRqPRaDQazcZRRohneNQZIVYEKdFyRG0btUYAQYQRkH3DljCIIAYfYk6QI0Pia8ZINLLRZohGo9FoNJrmoowQrxnSM0YCpokfvvocl/zjSjFCklFcmIexxx2Drl07o3fP7ujVoxeeePYl1fqhbBA1QiShWUSj0Wg0Go1mIzQY3OB97THz518w+ZufsN3AnRE2UpHeoQvemjQBOTnz8eu0F3DKqX/DCSedLSE5s2oUli+qrtNoNBqNRqNpLg2MELaEsEVkxIgdccEFp8DwObANIGanwLEDMOwkzJyxBkeMOQDZGVFIaLlKN39oNBqNRqPZdBoYIfXY8KFWTsZUL4tjm3BiEUQiNn6aXYjtevVE0OC07WKGsBfG7ZPRaDQajUajaTbrGCFsCeFXL0HLRsAy4Jd9vxgjyWYt1qxZBie7P7p13g7JtiUXRyUsw+sF7DSavxLeOC+NRqP5KyNGCGcGbOhMcX6Hi9JF1FL+diAIw3Hw6UfvYcfdByAa9CFqBMRPDBGHX8jwOrFWlNNoNH823iBzjUaj+SvTRHeM+vAWVjAdHdpmIcmJiBUSRSgcw8+//Ir+/bvCNmxxPjjsi4kbH9zX1Z5G8+fDFhBOja/RaDR/dUzH4RzuDV0UPgR67ITTTj4BHZ0ipDg18KVl4+kXJ6Bnmw4IWhwL4sDiartS4dniWpMB4s17r9k8tOz+ePSU+Jo/k42VcZ7Xrt61Rrx0ixHCA9cRBzQsfLDEEOGS/mwVCTkBRLlirijf5FgUAScmvlw1xpQL2KMjR+y3aUUDVL0Frry+d93/3nyY+bzFETV/DJ5stYybB8svy7S31WwZzHeJTrNhYjEOfxCF3AqWBEksX8wbxurVK1UOUZmF/zxDQny5Ui4/w+WWZgnHf8C2YJnip/xN+GmAyLWLly7ByFEjkJ6e5l7fguFS/kwzVwxOXIpeGyLNgwuscQE7ymt9S/lrWW4+lC8Xr+Midpz7RyvVjVNYWKgWsCPry5Oa5kFFygXsevfuHfdZF22YNITllC9mRUVFaNu2bYs2Rli+2F1cWVmp0m0sXbpYmRq2ZApWVo5YHMpZDsKGCEYMDZ8TgSnGBwegRqIRMUJsZZggZiIQ73peWZCDESN2RmpaquvRggmFQiqT0AhJrOC14mwezHxcNp2ZcX0KUsty8+Ey6jRAmEc3JGNNPVwZOzMzU8lK570th0YdV4Ndn7GhjZCGUB50LLvp6ektOg+yXmLLTzgcVvtGbu6autzg7TD5nPuD38k4IgwDYmk4YrGof5YK505UZoKf6PJo3sL5YoQMbxXL21OJsrLKysqK+2g2BVr7zCdUlKSpCkkrgs2nuLhYtYTQSG7Jb1RbEy6h3rFjRy2vrcTixYvRv3//+JGmObAeZD7s3Llzq6j/ysrKmljKXzn3L9UCR4T41Ge4ng8d36p4mVgw9OFXMSqWdRVJS0UryC1HvwlpNBpNPdQrrale9PRoE2a/a4SAxgWdyMTn+CSg7Bgxcfw811Cf6Kpldek4QkQrZo1Go9EIWh9omovbhiH2hRoTopwYFHYYqbFCROwoqoMpCAVs+M0wUF2JQCRTjROJGRwMwuGp3LojezUajUaj0WiaizJCaLSahqn6Q03TQGlxMV4Z9zxuvOF2RBBEzKnFzzNn4e+nnokzzzoOL7/2GqIOZ0xVV6t/Go1Go9FoNJuCGCE0IMSMEEuEhgj7pCIRC20yu6JH98GAnQTTCeODSV/ijjvvx1PjbsGPP/2Eykr3OogxopxGo9FoNIIe86VpLnVGiNslwz0TXbt0wu67D0E0YCPs98NvpyE7zcDyJb+isjSAzPQstMlKUV/QqGtpi8he3dZzPK3RaIJv/0MAAFG5SURBVP4UdL+8RqP5q1NnhChHy0G2/DjXh7CaF4RfxvhDNdhlz/0xfe4y3HPv/Rg2dHtEQrXx62JymVVncChDJO40Go1G07pgK4jnNJqNocaENIb2g8+JISB5KGABVQUr8PFXP+L0y/6Fu+6/HXm5uZj9y+x4YAnAr2Y0Go1Go9FoNoEmjRBHfYYbQQRRhCVEoENHVJYsQ7R4ESqrqrFqeSEyUjrCYjOJkwTTdied0mg0Go1Go2kuTRohNvxAZg/svMNgpNo1CKR1xA033ITnnnoc/7nrfhw55hAMGtRbzZ3Kf3UY+jsZjUaj0Wg0G8brrjPX7b/jEv1BBNoNwoF77YlspxKxWDLadeiBu+/9L+677xEccOCuCCbVKvPDMTgexO2OoQHifrBb/68lwgF/etDflqHl98ej++Q3Db3GztZBl+3No7WVVy+9pqdQG2YcOcmFnLhnW/CbFmxEEZN9rqfr88kZJwqfYaqgchKG7YATufMaNq/QteSs6FVYngGnK/xNg6soejJLzIPr5kXN5kDZct4fnS+bjycrLbOtgzbqmo+3cGJrkBlXCyZ19f+yZcvUHj0oAMfhSrr1W1uMi1iMLR3ujKp1YWVLRSIHsmcgLy8fI0aMUAtneWFaKkw3ZRUMBhsseKWVZ/PgSpGe7Na3YJhWBJuPt4ounZcntTw3DBfT4iq6icv4a5ltOl5+KygoUEvSry//6bqyIVzILRKJoLy8XOXD9dWLTbGt5VOWMT5zTU2NygfGmjXuKrr0rLPCZJ8tILIjjnOI0J9L2LmGCMPyn7Jo4ulfvnwlRo0apZZo39aEsqmwkqcgU1NTG6RVF6yNQ3mxwudy1TRE1kdLz0N/JJQvDRCuoqvzZPPgys7Z2dnw+/1xH83mQr2wdu1a9OzZs64cNy7POl82hPqERghXwO7QoUOLNUK83522Blejp/Fl5OXlNZECB8Z6Etb0/B8G5s9foFpCGi/l3xKhEcKC1jitumA1DxY0GiHeUv6arYu3lD+dzpPNg0uo881dVYpaZlvMokWL1FL+VJBNyVPLuGlycnLQpUuXViEftvrQ6F/H3Npcq0pnKo1Go9FoNJtCAyPEM0DYCuJ32B1jwDJ8qvVD9iSwDQdyrLpmaHQ0NDy0IaLRaDSaOl2idYJmIzQwQtyBqWJeWDFYhWuxZOlyVPvSEKEREq3CnBk/YMaM+SgurhYjRC51/GKw+OJryGg0Go1G0xAaIo2dRuPRwAjhYBhmkHnz5uKBe+/G8y+/gZgYGP5oPl58cyImfvkTZn3/AcY/Px5VIVomYrQox2GqYpO40Wg0Go1Gow0OzUZpYIQww7AlZOCAATjj76ehbYfOsMSyiJauwMIVebj4ujvxjwtOQThai3mLl4jRwa9m4gaIzmsajUaj0Wg2gQZGCKEhEgz6kJnhh81WDjOAJMOPUG0YNbUxOFYKLLsWa3MWMbQ4fle/TjQajUaj0Wg0G6RJ64FL+ZtGrZzkMv0B+NO3w17Dh+KGS07FVbf8B0sXrUGn7E5qLIjhSPi402g0Go1Go2kuTbaEuHDadg5UBWL+Dhh75KEY9+h/8K877kZGehts32+QnHfD8q9y2hDRaDQajUbTTJpsCeGXLzZSZS+gjJCI6WDR0qX46quvMOHtN7H3XqORnZ2ixoK4w1E5uZk60Gg0Go1Go2kWDVbR9VwMfiR16I/DD9kPmSiHGbMQFcPE8gfRp08fHHHEmLppZevmC3EbRVoFnpw0Go1Go9FsOp4ObWIpf3bEmDDS2mNw/z5Ic6oR9BsYtP1QHHbk0dhrr72QnpaeEN5QX8aoo1ZiiCTKSrPpaPn9sXjy1Z9Hav4sdN7TNJemP2uR/GNxUGrMgWGbiBpRWFaMnmoBO5sL2inDw/3HlXa5lkprUi5MKx0Lm+c0zYNy48R4dQsmarY6Oj9uHlpumj8Dry5sDfnPsxPqdOj8+fOVD4VAQ8JTDrYtRkUsJkYI/WJikvjUxO3hULiBEqGjOVJWVorhw4erlTtbOm6a65ck9tAVWPPgapHeCrqJ8ktEy3LzCYfDSr7esvTrk7GmntraWrUCOMs2u5q9Mq7ZdCg/rpDKRSq1HDcO6zqvvmPZZbndlPpvW5MxF4nkM9PeoDNyc3Lqaqj6ysqdtMxdL8aC3zEQMf1qHRlT+bMBxYCt1pchDubPn6eW8s/MzIz7tVxKS0tVRsnKytJGyCZCeeXn56NNmzZqFd31KUgty82Hy9JTAXCFSr00ffPIzc1Fu3btVLn2jDfN5hGNRrFixQq1iq6mebAepCsoKECnTp1afP1H46OiokIZJKa7FJ3r5ECcmBiy9YmdYfjEVwqkLQcOB6LSz2RYMUbglzBSYD23HuuNfi3NeW/xJNFfs3EoJypGz/hIlF+i02w5WpluGnyD9wbcazYf7013fS8YmnVhnee1wFFBt3SYVqaZeURKHDOK5ygM/vUyDwukGCBidqh/XKzODohBYsEyI3WhNBrNXwdtxGk02y6txRD2XjgbpdYzK9ythQBiSFJHphNDwI7CJwfsgbIMmib16IpPo9FoNES3gmiayzomF22JuXPn4aFHHsZ/H3sWxTWOMjh80Sq8/uyjePKRBzB7zjzEnEDddO3a/NBoNBqNRrOpNDBC2JrBUeKffvoxxhx2EPp0ysLDd1wPnxPCs69PRLmRhtG774D/3P1flJTH5ALLdZziXRsjGo1Go9FsEa2pFSk+JqQeevCLhWuuuhJD+vfGnrvtipyVKxEuXo0lK3Mw9u+XYsTIXbDjsKH48YepaHS5RqPRaDQaTbMRK4LtF24bRnz4qXjaMMOV+PzLb3DksSchUJWHtORUmKnZYqm0xeB+PVBbsVaMlqAYIj44hlE/a6pGo9FoNBpNMzCjZhJiRkAZE6Zjw+9EwBlQH3jpfQSzMnHyiYcjEAyiurYMhk8MDZ+NquoQ0lIzxGqJuLE4ukVEo9FoNJotpTV95KG+jrHYkiEOhgnOFRKLRvDCC+PRf+D2GHvscYjGgEhaZzihapQtnQ2ntgbLVq7CdoMHSngLhlP/lUzrEZ1Go9FoNJotRU1Wpv6JMUFXUFiIV195Cd9+9B5uueo6XHPdXVgZa4NjDz4Qj111IW698lq06dQeXfr0gqkGo7r9MByYqtFoNBqNRtNcjJzcXLE9OFuqA8OOwfSZqKyqkjPsewnAMUwE04PwR8OIVtfCMgIIpKbAHwjAiHJIia3cggXzMWLkCKRnZMSjbrlUiXw4qx2nbddsOpxWPEPyCQdBa7Y+xcXFah0UylfP39M8OG17+/bt1Wy+WmZbzoIFCzBw4EAty02E+ZDTtrf0Cctoc3Dads7qbJoOO2Q4/RibM0zYjomU1AykpqUjNT1FKrMk1WFjmwH4M7MQzMxA0OcHQvxEt3VmMF2wthy9sNUfR+P86bVyard+58mM26bOa9d8R/SSAZuGVx968mvpJJY3k3/UDjtWxAhRJzivu9vR4gpFyYfTt7vzvRtiqPj9Adm34RhioNBIUUZMfeWXmClbmiOUg7c+QqK/pvlsaI2ERLlqt+mOMI96W+027PSaMVuX9a0lpqmH5ZQ6hI75j8ebI7PEcr8tOA9v35gz+zfZc0QhuAvnxKwYYiIUK2bLvgXbsVFbG5JtPIyc88fkSjFMKmurlRHCcSXRWAQ77bTTRpdobykwfd4iPB66ItswiZmwLgOup9C19PzzR0KZenJtLG9N01A+LL+sA3U53jIS81xiXtQ0hPLxZEQal9nmsqnh/wrwmesMr/zc+qX85RTbM1znuHN/iGRUi4iaUkT22OLht8RPAnE6d1cANhYsnK+W8ucS4i2dyspKlWE4riExA+jC1jw4JiQzM7PBasSarUdJSYkaD5KcnKybxZsJl1DnGC+OCdEy2zJisRhWrlyJvn37xn00zYG6hPmwY8eOrUKX1C3lHz+uh0aHONNkX038TT9BHjxW5+WcqZbwN+Hzc3CJG5V3viU7VlLMMIkGiKb5UIZadn8cnmz1G33zYZM486WW2ZZDGXpjHDTNh/mvNcmNaWVdFbccpOJi0wadagdJJO6nvoJpfE6j0Wg0mnqoTDWa5mJaJrtYxBZxfIDlqMX7YdfCNixEDT9iTjIsZZxF4Yg/DRJTvcnGB2XShzaK+OnMp9FoNBqNprmYMTYB8asYx4APBkw7hm8nf4Zjjz8ax590GgpLxfDgp7uxMCorivHvf/8beXl59c2WqulXt5BoNBqNpuELqe521WwMM2gF4FMtHRZs00C52Byz563FhDcm4sYrLsG/rr5ImRizfvwdpx13JjLSsxCNxcD1ZXQG02g0Go1Gs7mYhiNWqxgThuGoz2+TU9Jx6aX/hN900LlLF0QiFpxwGLuN3hUfffSp+vqFo5+9QSXaDNFoNBqNRrM5mO6AVO7Gv4ZxbNnGEAnX4oWXXsVlV1yNIL9YM21YbC3h1O4GR5HrMSAajUaj0Wg2HzPqi8FiH57jB2I2AqhBeckaPP7c69hn/wMwfNQQhIMWGM42LTX8g60fXguINkM0mr8eeqC4RqPZFjBNxxZDgp/f2vAF/KisDeP5l17FQQfsjz12GyXnLJjgok5+2KrRhF0wnLLMM0USHQeXNPbTaDQajUajWRfTL5YFDREaFhEritzCUjwz/mWcdcap2G2XkdhlxCjkrsqHFQP8gST42A3Dz3rr5g3ZkNNoNP/fsAUkEonEjzQajeavC7/Nje+69O7dG7/Pno2ffpqOn6b/hBniunfvDp/fD38wgHPOOQfduneVkLxOfVaTQOtp/tVfBm0+upvgj0dPia/5M9H146bT2mTmpdeb7EM5zv3hfe+izscDMTAXs4tFYzDjqyPWheM/Oc+F7lyoYOodz9F5K6Z6x97XNdsi3nNvq8//V0BP6/z/g86jm4Y2kLcO23L9/mdAWSm92gpklphG7ptcvt9NvOfrFkKe5D/ZU+aEj5OTSThlWsi2fo2FePi6eUMaOoZlhmRrSvv27dGhQwflpk2bFs+o3jiSbQemic5t8vbSKn8ps63imhOXW8i3RUe4/g4N0/U55g3tNs/xE3pP1synmo1DuWlZaf4sPD3Jus+rI5uLV9a3Feellfuq3C1eON/hjisAd6l+DkBVfmoAKhCqDclfMVQYJmGOEHfrCqGkpBDDhw9HSkqKEgxxDRx3eezrr78eb7zxhvJ/7rnncMEF52P5smXKuGE8njGj7qMc7+z+GMrwiR+5Pi5iCslf8TH4nO71PK/C01v+cXkc95qEKzmexQvpuHF4d7UNX11IHrvh4j5qI76SXjoqUttxW3jq4/Jw43P31kU9o9pjSjnGRmTFkMoIZDyMt/GV8asM75yEaypy4kbuIs+lrmRYJSv3nhsmfi91g/XdZPOIRqNqtdL1LRbGTKoVwuYTDofV6pRELybWPEKhENLS0pSstMy2HK40zlWJWfcT1pea9cPyypcHll12pW5K/betyZZ1f+JcY0ZezlpJQX0iPOVEXWjH5cAJzUxxVJIMaYk/z/v4h4jn/PlzMXLkSGRkZsqxxCJCZFheRaVz2mmnKSOEvuPGjcOFF16ISDgEw+ePxyGZVQwApfjcCxUxcXHfBBICKFhh1Cu0xmc9PFOn8blEf15LGoZpeCXVOOXBwI4yaEj9eeI+A7884j5TTUnQj4WyPhzPKkOJilcuUoaCYElyTHXMP/HwPEdXZ4SI7OSU+6s0xr2Gj0fbiCEYn2uA8bixAdA4Du8Zm4p7y+BS85z0jsvNa7Y+xcXF6mWA8tXL0jeP3Nxc1VJLea3PONY0DyqWRYsWYeDAgXXHjdEvGetCOTEfdunSpcXLh2ktLy/3lvJvmEFcdUk/zxxxoc61KRilKXnGa2EQ6C1v8mpHefK8gdSUVFURZmRkJGRE2cq+bdnK4ksOBvDrzzPcS2yaHHWxKnjU0IcwcCLrhlA08HZVdVMhqZY9U6KexJCyn1CQlHzcJKp0e11aSjxxZ6qte5B4zt1xY1GGk3deecXj9W7FfTmnbD3leCJ+UkXmoqL04qlz7iX8wy2Pld2hTnj3c53r1cT1TfpvudP8/6BlvWno/Ll1aCxHLdPm0ZryX2JaG5n8POEaEzzttw0ELXZ6OIiIVg35DTVpmSn+Ab6qC56+TISRx2Ix7L333qp5iU2db731lvirszjn3HNhicERjUVx913/wejRu8C25Y3N5Fub7SrdOGxUrn/IdU2FevgkPB+TO9CYYcuKG94zMrwWFbeBsB62EPAeCSpekJBsnXEkLtVK48UvxpnsOhKLVdcKkkg8HK+TOJRJJwYMW0XcqyhNV8bKi1sVin/jRpj89zEaga1Rrq/8NcJyQi5STSSyNejHsyqihvB63iIuPPeZCcPyboQ+rq/Hum8t64bRaDQajWZrUK/fBQ52pKFg2ZZq9Yg4QYSRIorTQcCuRYoVgz+WIVf5ETOpBKmco+JE8cetGsJ+QPb7rKvQJAyDqaDuDqeAZ/drVIycqHocjl+IyMPElOoTtcsjQQLZ1ZzUVfl5ejFk82xcqSsqEBbNG03oxDHFiDBjNbInz8pj/rHLJY4Q6MvHVOvnRMslLA2FeEiHcYiSt8SQEiNJGQ+2nHFqRDZimPGYz+E5teHV8kxWtfLj87pIPLEIqsVPefHRxKBTieclsomJyRWiHH3iYYfFzohIFLwPUAuROZLEX+JVEhLzLC5zy4rfvAlMSaEtqaFhx9ARkYsrBR5b4kSacjnHB7uOoRgfn9Jz649fo9FoNJrNReljD/aFUiG/M2ECBgzsh+2HDsWqnBz19v3N5CkY2n8ghg3oi4+/+BJRMTJcqKAaKimvH7q6uhpVVVXKsTXEw4rGlF9FlSjzaESpuQuvvkMpSYSrMOm9SWjXoSPatO+AESP2wsKlKySMhb8deTBOOPEkN5zc8qNPP8a5F5xP9S7EUJS7HAfutSv+++h4pdeV5rVCsCorcdnF1yA7sy26d+uDd9/5UqyXIvE7F9Nm58InwUpyVuGwQ49AWkYGMtKycPEF/0AVIzEcPH3vLejdd0dMmT5HhBRExYq5uOKaa5UBo2iQfAdlJfnYY+ftccut97vPQcQIGvfMU+gxYDRW5xTKc9WgYMUc9OnVG22zspGe5MdNd/xXpSUqJsfRhx+KzLQ0ZGVmYMB2/TDzl0UIScrz5s/CPXffg7wqRupg6ZIl2GeffVFVXYm7774bEydOVMZfTJ7JFmOyojgHBx16INKyMpCdkYqLLrocESWwMKZO/hrZqdnIzEzFuHEvgo1grl3DX4RPzoANf1uNRqPRaLYWDYwQvhuHI2GkZ6Rh4fw5mPDm8/j3zf9ENFaFYEZn/DZvGaZ9/Tw++epzlISCop998rbO7boTI3GAzdy5c5Gdna3c3//+9/gZ4KWXX0ZmdhtkibvhhptVm0XUMeGXN//Xn74Hj30yHd8tLkRxUSE+euFZVBbkiEq00KNrR6xZm4O33vtO6UmfLyC+fnlqas4KrFnzO7brNgxfTvkVpWww4Mjs6nzce9vt6LvvOcgpq8Rvv81GJj/gCThw5Hw1NW94LW6+524ceMl9KBLjqLZoIXqnl+GCGx6UBwsjLZaHnQcOwusfTEa+XJqSEoGlWlviKMXtojpgHAuD+/XB559/hbwCUeLU7FXl+O7bbzBi1z0RCCRh7ZrVuOb6a/HkG++IQVGO3IKlWPPrXDz72LOoYnxtu+GV9z5BVUUFvnz+Yfz3zjuxcHUEGWI8OGELgWSKwC+GhqkMOb/fHZdSWyOmimwd00LUqsXdN9+NCy64EiXllSjMW4TOQRv/vvpC5JbOw1mX3o4PvvodheVrJScYiEmCVG+cMjxohNS3mWg0Go1Gs7WpM0LYaOCI8gwGAjjisMOQLG/B6amZ4p8G00zDLruOQsBvIUWO1YjWAC9gawjVbnzQp8GxDRF5ga7Am++8jauvuBjXn3c0TjjjEtSYbSWM+4atPv2V3Q8++wLffTEJ158/Vq4ysTo/hCefeBN33Ho9+rTxwSdGSa/BgzBqt93lOjF22rTBtZccj/tuOhtLCsWAcJLVAFe3tcHCl59+hd1PPx/t26Tgu08my6M5iBVF8OucRTjimBEqtW3bp6uWAXYpRY0k2GY6ilYVIVJTiTGH7wb1gXFKCq78141Y9P33qCkqQFgU+j6HHYRq2V/282+irG1EbFu1E7hfClmu47Xy1zIC6LDdSOy9yzB899nrEi6Mz76bD3+wEwa1S4LfKZVnWoiegw7Hfrvvwm9ckJHeDs/d9U8smPUdCsMB1HIwhxhZlOjgvUZhxNAB+O2zj2BalYiaIYTFclPS5Hwhho2Qz0JM0uvjF0ZyIoBKrFw6H0Whrth/v6Pk9xS/lLb4z3WXY/6vvyLf7oGdB7XDi0/cgfyyJJx2zhnwu191CnwiOpqHzCLaCNkWSewi1Wg0mr8iJufFoKOi4RcdcgRDFGxBURWeevZ53H3v/fD5UiRgSN7Ki/HWxK9w9JgxSOV4BlGRynjhnihAVwnHEJW3+qefew4n/u0UnHHqcZg7bxmqahzk5BaoFpLy8jLRcT5EbT9222cPDOnbEY7Ph9qoDzUhB22y0jDj1xkYNqg/urTthSefeQEhKvdgMkYOH4gzThqDBx96HKFYTBlDPnnekkXL8NEHn2GHPfbEqcePwXtvvYwyw4+lawpRE47Al+Q+JxW3q1M5N4cfjpmEUFUUGalpyBRNHVEBHATTUmFGYqgsLkfM9iG1XWeccvQhuPG8U1FebcEIpsfTWx+ve8y/Ik9/Gxx/5P546uFbkVOSh9sfeh7nXXoj0pxa2NFyVNZUo13nAQjKsyhLUGSclp2C2qpilNbUigIxYYiBpcaMSHRpqUmIVlSo34iz04odpO4ZEDnyngZbQnwSk/eDIIqaqkokZ22HVN6EiNGFtBTUVNeioMbEWxNeRYakeecddsZ7732kunDUIkG8p3oq18jUaDQajeaPwIyIYrLUNyh+MTTkTdqOYsmixXh54g847ezz0LlLpuikKHKXL8Tbb7yGNkN3xe4jR6GNGCWGGRYV5apeV/NJPI6DX6d/hfKqGrz03id4Z8p0LJnzG9YuXIge3QagZ9e+uOaqayVcFP+6+W6sWLIMMV9UffSRkR5EUrqJtYWlGLbTKMxeuBJ333QtYrFaiOpW/8K+DFx9w+2wVy3Ar7O+FeOkFj7HwkefT0aZKNf3X3wKv/3wFX6bOw8/rYmiY4/O8mRhMRxcpU2n9KodkRSz9cJAWnIQFSU1KKsVI0RZBBYqigoR82egTZvuCFhpqLUyceSBu+Go3fvilnueRmVtQLUT8Lld082b5IxziABBx4edh/TETsO2w+tvvot2fQajQ58eKkzQnyRGTwD5a+fWD1wVQ7AotwKpWW3QJlNitGqQJLI0aBlEIygur0RWj/6w7DREKiJI5T3ksnBlFYJiJJlWVNLEAcXiyQeTP2lZ7VBcmAOrWs5JeEvuUV1aC8sfQIeOQTlOw0OPj8Ocr1/HvXfch99+WSLXSUA1Dwl3tRGi0Wg0mj8OUblUMuJE95jy9s2Z7l595UWcesIYDOZkM6LVYrX5+HTyNzjoqJNw8P67i75Mhm2myVVU4fzCQracldOIIFxdiXcmTcb1116NQw4+BAcddgJu+8cZGDG0LW5/9Facc8lF+HnGdLz56vMoDoWBpAxR2jReIshsG8BZ552NWy86R4yeldSpqPKlitJMkjuwy8NElH0GwSSccvxwvPn6u2KAZMIp+AX/e+tjnHfHUzhk/70w9ph9cci+IzFVjKA23bpg0PbbYdLzj4vB4CC3sBxPvTpRKVhDbmA61WizXXcuJ4yfPv4MqSINSQIu+sedkt59EOyYiqjPkfSGUeP345+334+C2VOxfPbPSnKERgc7TlwzxBSDxEDYCIsRY+D4E0/Do/e9gPNOPUa1tFBiVb4gBg3tj2UzPsCc339VcZQW5OGoi67DqH3HoKvPjwyjSmISyyngx8yZK/HbwsXYcdcB8LfvjJWrFqJ01Uqx98rw1oef4vCTzkHQCCDFCiEYq1DxWWiLLl0GICM8B1OnfYmYyDJUUYbTrr0Nex9xLPyLZ2D8uKdEDPJESakoqJDrkkW2bGphymgc0RZhkjQajUaj+QMwfYiJAcGuFS7lH0N5ZTV+mDYdxxx5CPbdc3fss8eeWLxwAabPmIXjTzoZe+8xCvvvty9m/z4PtrztU6kS1yCxUVZZg6wufXH6307GqJ12xKiRe+HaG65Ch3bpOO64o5XJcvLfTsO999yLie+8it59BiKpbS/07tpBNf6fe/k1uOOaa3DiUUdi8Pbb492P38c+e+6FdCShXbvO8sBpEsrEPofui3332hs9OvbAqlWrseue++OE48Zgtx1GYsio0bj4wnNhVOSrL0VuufMOLJr9E4bL8xx55JHo1LWzRJGBzl26oV1SBEjJwH333ov3XnwGQwYPxm677YdTz7gQd9x0nhgBAaR37olObcRokaQabXvgquuuw4BeXdzxI4SKmp8VKYXtg+EPIrtbW9gpadh+511xzOFHYI+Rg+E3atGpSxf4/Kno22sAnvjfAzjj9DMwZOgO2E9k+ujzL+Jvp56CoMTTJj0NV111FbYfMgw33nYPnnjqCfTp0R7BLr1x479uwHmnHYNhcl1OXj6uuOoCBMwktM1uJ+m4T64ZgB133gPLlq7Bww/djkcffxhDdhiG3XfbDaeccw5uuOkm7CCyXbJ4HobsPAyHHHUMXn39RWw/uJckMG6EkCbnQdFoNBqNZutg5OWsaTCdBz+vjVny5i9v4EHZ0syImLb4xdQXGGyxcKxk0bkc1OnO6WEaMSxcMAcjRoxGenqGxEKDhIqMEYtp4cUvWzVfhTi+ZPvkL7sxOA8Gj91OIbEP6nSfGEcGfQS5Jir/fBLKjZmdM7y/xJPw/GpeMV5CP6VEXfOI33m4RzRheG/3niTAsFG5F8dU0HnwInkY2xeTa9Wd5G/9TLGG7FA+7jAMTm1PT17moEZiT5KDoLrCfQae5lwsPj6BMloYQf39+DyuOSh2Ec+JoDgspD6IO7TXVKEoNRpkLhHxC1J6boC6LdcBMjmPiNzXEgEzJXweNyVsteEk9HI+7udexzTSjxO/UZhM+9ajqKhIzaKrp23/Y/CmbU9OTtZTkDcTjlXjwpqs//SA3i1n8eLF6N+/f/yIVR3rk3q0jJsmJyenVUzbTsrKyrxp25WuU840qfREC/ErC9nasuV0WZZoMqoofvHqOAHXkPCxTUPOinKzxYOtIoZBNUZHxUU1X29AeI4booYtuGpPGR9sVahTd/zDJ+OAWe7HL/IMEPe0qcK7Cah3ns2ijt0/6i/vQZXHcRTc53Xc0rkB5MJEA4QwLvEz5SqfHNB4YAgvZVbUwu677IrBAwdhQL9+GDRoEAYOHIxnnn5GzAMx4lT6VELULdS1/AZWHcifRvdjvN5zqh9EoA6pL76Mh/4M2VCBB9QTCV6U8a3qXfHLnwCf3pBwTIlf9t1fgM/npo3HEi5+nXun+paurQkrpM1ZLVLTfChbd94fLePm4C1ax8pfL163dfAWKNN5cOPEYnyxXNdYa4l4ixp65cxYu3qlSrWbdnnTZqZRx3xzd4+VYaJOi0qSQupdQH/3OmDF8mUYNWKkWomyXpASXu0mKrL6loR1UIHrz/KQBg9RZ2SffhtXiw3jcRGl6kXWiERvT+m6fxvG4R1x5V9VuCT96pHjMqERxk9mKSM33fRLiNzzVKxvvz58oi9JiGkzYGx0jMVLnXsH17AhPFZNIeK8MC6N770lhYULF3EBO8pmfQusNZCbZpPgAoFsBWFrCOWrlcDGKSwsRNu2bdX++vKkpvmsXr0a3bp1W69Bp8t3QzjDOJVzfn6+apHblBbMba18s3wxX1APMN3GimVLVAqYEJ6wuKVjl4xseZJdMdxxWz3EL+64Oq7s8HIU5OVjxIgRquIjPM9s1kDvxuGKsU2/YTNwExdsMhJH4xvTS5RrU8+jvijZBGJitTLtNLg8LMuGyZYgU9LGtG+0kPFBmniYbQSmcXPhbLmUnZcZm0JXUpsPZypmM2fikuBb8nu1BjggPzOTXwK6LxGazYfKlE3t7dq1i/usi5ZxPZQFyycdFTPz4abIZ1sq24npqq2tVcaWkZ+b0yAF9S0P7k7TxgJpmPCF8xcoI4R9/XVsqmyaL/eN0LRicxPXxE028b6s5GmIZGVlxX00m0LjMSFNFSJdSW0+3pgQOi3H5pGXl4eOHTtu0huoZv0sWbIE/fr1ix9pmgvHJnXu3LlVlNsGY0KawhXBhgTBc65T/5oS2sYuj2/XZxsoNsvIW09kW+kers5cX2Sa5qDfzDUajab14tkMDYwQermjG1wF4epa+rp+7rmGuNe4uGMLGIZfXHise43CjVLBdgu1W/8nftr9G9f6ddQfxc832CNujPWtON5WQni7DRD/hHvU7zWCJ5Rj81nDiNZ7zV+IbeEZNRqNRtN6MCM+Q82kycXo7EgMATsMJ1IOLl0SQRIiTrJSXmasEn47BMtOkoOgepPlB56mQ8el/hmdKGaHS8MXqRVm+REpooWwHC4lL7EYUdRKkBj1t1ErrlR2OA2ZmA28idwb0WrUiof72W7UDeOEeKCgv1rKnzhyZMf4X92PX9SqgLFy8a9FlTxP1Btk6bj2Fse1NOyt4XNJBBIeUQu2PAjX+60Ux/HKruKmQePu8VpOeuaekXtJWuVK5RAthhXl0vk8F657Vn6IzAX2YJWpM3xOdyy0ECkRfzd99K9LGycqsyVV8SlVea6Wu7zQlqezi+mtppmXxxYkfkc9hbpHnfzlnpwdlteF5USEJ3ks97WdGrmf7T4j/SNyVVjijYlMKUbxoxxq6p6a2zgJu1sKLeLGTqPRaDQtH9Pkp7Xx5gF/wK+my3jp5Tdwzjln45STT8C333wlCimC9977EBeccx4uOe0ovP7WJNT6susGdHJDnaQGfYphMO298fjbmRcqffnaE3ej/7BdcOSJZ+DIQw7ADdf9G2vyi0X1RXHM4QfhoIMPxYocSy2nT+U49dOPMHDIrnju5XeU3bFs4XxcfMHFGHvcCTjhmDE4+cS/YcnSNRK3jdtuugUjh+6I4088Cccesi/uuvMWLC+i6rVw4Vln4NelleoZKivLceVl/0BRSSF+nP4j7r/3v64OVc8fQ9HqJbjxuhtw7Akn4+ijD8cJY0/C1Kmz1bWurlUJU3tEzRmiWkJiWP3zVzjr3POVIp/52ZsYseteGHP8mRh7+MG47KIrsWxlsRgDJh646y7stctoHHfCMTh4r0Pw5RffidkQExmfin1G74KxxxyPnXfeF3PnL5X4IyjJWYkbrroOxxx7Eo4//hhJ/4mY/uPviIkt9dEHH2HXEaMw9vjjcfwJp+GH76Zi3tcfYp/9DsZhJ56DsWPH4ulHH0RFaQEuu/hGHH/McTjltFPxzXfzEDQsLFsyDxdceSuOOO5vGHvk4Tjn+MMw67elIo8gXnvwNgzcYbTEezoOGjUck7+jHJhWOv4i4nRXikaj0Wi2Aqbf4pox1KkxUTY0DZIwatcDMe7pZ3H/f27By+MekxfjEEbvcSCee+4lPHzzefhhxm8IBZNhyRsrdTFVEpUj1RTfmIPypl4bcd//k2LlOOLk8/HyWy/j3TffQPvkNDz15DMoF8WckdkO7dp2xc8/z3dVfHU1Xn5mHE4/7W+qxSIctvDEoy/i4MOOw5sT38bbb4/DGSceg3P//neURGoRDaTh5L+fh7feeRmfvvowUJGLJ16bwphgikUUszPUMzhqnhN5RisKi6/4Av3VXyOKhx9+DB2798HL772NDz54F9ddfD7+e9NNKC7llGNCotKViNiSo7zkGVNQhUg0qgyW5FgZ9tj/CLz4zouY8OabGDVkKK674jqUyW1qfJk488LL8d7bEzDx6bvx2N3XY3lJCcKBDFx67fV46/03cN2VF+Lj916X567FI/c9il79h+EFSfc7r7+Gay88D7dcdw0KxMaq8WfgsGNOwTvvvI1JE17BPvuOQIZRg0OPOhkvvjUO706YgCsuPR35y+ehKNwWT7/yFp55YRx6b9dXfp5SPP7oQ+i970l4ecJEfDjpXVxz6gE4//yrUVtrImCV4KjTL8SbItOn77gID9//qGoRsdk05hkhCQaZRqPRaDSbi9tHoZQKJ+lx4Pf5scP2gxEUZRON+uEEOsCf2h7du7dFTaQYi6tNDN95CJJCMVG6XKyNI0U8Y0T+2LYoMnZJuO0rjiW3MDnXKeDPzMSNl43B8vk/YHWRhYjTDvvsuhvm/DBRlHgNfl6yFkbbwRjYsw1SrDyUFazA74tD2H2vg9R8W5Y8yzFHHQSraCGWFJQg6vfBdmLwm0GY7bvi7xdfitUzpgMlBXLfKELqmeS6WJRPCIddT/yEVk2qRqIoLVglBs50HHH0qUgSw8USs2KvXYejS6AIK3JXqefmHKNqKlZltLhxujsOfLHa+LFgi7wMS6lpOzVLjKUDUbJqBuYsrRaDLRUGV7GF3NtIQ3JSOlIDAfjtGviiYuzUhvDCOx+iTccOqCpchTc+nY3DjjwFWZz11UzGnnvvgs5mJeatLJI0iKTDhUA4ghAfUJ6ZrSd+qxTREBASV+tkolvf/iif9S7ee30CfMnJ6NkjCVX5YcyYsQT7HrwnMvjrizx2PGosrIoSFK1YjLBpwgwXq26bCT8tQofOaUiRpNKoY3ZhV5MlhluT3zprNBqNRrMJmJZpwVbTapqqS8SHsOjbGsyc/TsmffgR7r//PtGoEaxdvRLXXXc1PvxkErLTRaFGuaBc3AARx4nAVPeMOI4vUUpfDm2Dk5O5to4hytSMhURxh+CYPkSsJAwb2Bu/f/M2Fs2biw+nTMfhp18kyjkZQVG+jhgYScG2SPInq+s54TkiMVHaMVTyM1neg1GrZglRkJal5vjkOAouxic2gbozPwPiGBb3ieSvUqqMUJ5D0gqfD2npmeB8rGqaIs5kakVQUlWhjBBGnzhOQVKqZpN101o/9wjloTwF0ycGhxNFQO4RE8XuN6rx49Qv8PL4V3HlXQ/hkLGnoEtGMuyYD88+PQ5/P+k4ZKRl46yzzlOToAWSspAcEDnz5vxsUAw+w4qhorpcjQP59Mtvcd75F+CSCy9DUV6+pNOPTz77HBdecg0uuORSzPptLrKzuuC5V1/Ggt9n4shDjsH7n36PWDiMoKQvVUSqxozweeUWfPaqGrb8OJj44Yc47dSzMHfWL3jiiYdpeomsaFrRsORvG5+dVaPRaDSaLcCMcV2U+Fsu1QuNkGk/TsbPcxbg1DNOQ4e2qeptvVf3nvjfw4/j6svOwcfvf4DiElHQosktTkMuV/nEAlFKmFOtg6umuJrZkTBsLXHnIHSwemkB0lOzxZAJinIz0Uni//vY/fH8k8+joDyMXsMGwY6KAreT0LZdR9SUF6G8mANY+YQWyvLKUFYWQ5+unSVOMVTUs7utFKuWrkJm+/ZAejtEIxZqq8rUdbWieGtC7DCRx5PwNCIUYghxYhhYFchZvdT1k1PRkioUVFjoO2CQhKVNQkXtGhfEx8GtbKGQ9NoqrS5s9HGnQVdHKFtVLLo7gG6dUxBEuaTZQvuu7XDCpVfgxHPPRCrYipKG8y74B1574VkUrVyFWT/9grQ2neDUlqMgZ3VcnkBVaTXySkMYsB0X3/Nj38OPx3MvvoDxzz2K9m0yEIuZOPDQY/HsuPvxzLjHsMvOO8pVJjruMAIPPHYfHvr3NZjy9Qz4/PJ7RytQnheOmxIOyvKLUCxGXYfu3SWtPowRA+mlF57HsK7t8d7bH6quJvjUBPdiFPnl95RnSpCHRqPRaDSbg6kWqROlyjEh7PbPK6nEK2++h6PHHIhkvx8lxRUorSzB5199jYLiCOYsKofhd5CRHhPjhMrcaw3xwbTk9VocTQI2HyjzwDGRUl2MaGEEC3+dhz3PvAljTrsMHZwYkuW6sD8NB556Pl57632kBqPo1VH0neg4GwEkJQVw+F6d8OKLj2KNGB+lq1fg0lvvxVk33oNeKeloGwsBpfmoLizE7J9X45Kr7sDRxx0EZLbDDkN2wpy3XkaVGDDTf5mHYLu+yM5qhxTaTOEalBdWo6jQRAi9cefVF+Dx+27FspX5qCjIx78fHY+BB5yC3umZSGdaFPJQ8XVfmF4/v5CRNEb8YkyZqsNGDC4TgVARavOqsWbRAhx52W04/h+3YHCanIulYtAO++CwQw/BwbsMRJakkD08YZ+NSDAdRrteeOSGS/HCk4+hNrkzbv7HyXj6f3dg0Zoi5BUX4e7HnsHeh5+M7dLTkB6rRcAMy3PUyO8WFZvPQMifhHBtWAwKMViKKlBTWYxX3xiP9979UJ6nGL/9tgAVMRvBrgNw+LGn4K2HbhMZFCMvpxjX3fI4zrnobLTvkAF/LMiEsAcIZ4uxdNsVN6oPbNzf2ZT7Ma+oQ41Go9FotgjfNVdddZvSKYYjb9MWasNiaMydh6nffYdpP/yEadN+wOhdd8b8eUsxcdKHWLV6LS64+BJ06NAWftGiDrtbDANFxYXo2qUrgkl+xCIR+LK6YcROOyASqcXMXxbgh6nf4ZdfZuHxcS9g+E4DkCLKrLqyFkN3HIL2XTohUwyH/fbfGz27dEY0VIustlno2as7dt9tBBYsW4533puEGfIsR510Mk4+7TgkicKP1lRi3rx5+PLrbzBnwRI89L/HsdOw3vBZMYwYORorlq7Am++8ioKiIlxwwaXo1CYNljzbjOkz8fFnn+Prqd8jLTMbRx09Ro2Fef2tt/Htt19j6MiRuPjy85DuT9C1asdt3QlFQ2J/2EhOSUZIDLFIMBs77TAMiIbx2+9L8N0332D69B/wz2tvxlFj9hVzykE4FEG37r3QvUePeJwW2IVVVRPG0CFD0bVTR5FfJ5RVVqLP9kOxy6idEI3F8PJbb2La1KkYMWJXXHzpuUgOyG1EphkZaejXf4CYBWL+yLNYEtf0n+fh68lTMPWbL1Ejsjn66GPwycef44OJ7yIs9uKVN12PrBRg9IjRqCgpxFtvvinpnYojjjgGZ51zihh/JsLV1WjbcyAG9u0p98hEKOLDkCE7ID1Tbqy6mygK73uqzaOmpkZNKc51AzRbH06HzC5IOv25c/PwlhLQ8to6cNbeDU3brmkaLh/A2aRbQz4MhUJq6Y4G07ZzLAK7Tzzchfy55cgIUXeGHz4RTsRyV+j0OezK8akWlLmL5mLUziOQmSpv9eoaOkNUrbt0PdtM2LHA92kO/+SqrVHbknjYVWMiJnExfnkCOeJ1ck6FjchRAPxMlB0dom7lH1tROE7EbYFgrIyfz+i1zTiyx5i5VD3XjHX9GYLP5Z51n9F9LoUYVexeYreUe8YN4+67W/4rqS0XS8BCezGcOA8J42a8fjEG1Cq5NuOXZzPZbSFnVXQSR7xrpT4+Qfm7qVDIb2CLbOt/Bbme407qPeLIs1pyP95DoCHIf1zzx1DfO7vwToydz8gWKrdTJY6cZHj+BioQ4dgP9dzcZ6tHXHYSxHuGdR5lE+G07VzAjousabY+3rTtqampcR/NxuC07e3bt9eG8Vai8VL+mubRGpfyN/Jy1iRoRFf3qLEdHPFpiMrlmAvHL/6qk0V0Jt+9RdFJGFsZJTZCTgRfz56OgUO2R1abbHkrFxUvl5l0cg0HrDJeitWW63hOjatw1Zs4hmIIOZb41BgVebOn2UEThiYGJ0WzTTFMbCpd3pvPw31XYSozhM/LA4eqVgwICcM43Lg55JJGCdPFoNwTBcxuI3WdOnK7WXitCkeTSMVYB7siQlYYTk0Egzv3Q6rE6UpGjBAVMjE00+ZtE/09xE8ZIW44dc84jUMzfW6o+jDEC+fdKRHvHKXMq2ja1ZlcPNnURR7x50p8jsR7bejSjUEjhC0hajyOZquTaORxQLZ+u984NEL45u4NYtcy2zIWLFiAAQMGqJdVzcbhon9sFVi7di26du3aovMfF4lkvigtLXWNkN9++TlRzyhFwxYMqi2lfmWXR/SnfpaXbzEE3EGeUSMoKi2GtRV5uPP1x5FiJakBqhYNBGVI8MsRvxgPYTmWCzkrq0RGxU8DxY3VQ+4n5zjmwH1n55bRyEMqg4RheV8qUYalUeGq1rjNIrgGA0Pzr5uOuK+7q2KlIeQTLxocdPzklXGpcS3KOKIBw+sZmxe3Cw2kqLwspYgxNO6Bx9Emliqh+LwSV4zpC8nlMYmH++4zmEw0HzIeH+Eevb0Hq/sbv5lrrIkBJseWj61BYoCpKGhgMd1yYETjMco9JCzbX+iv7s2vnhiHTfnxChoxDO8acevCVg8+r9vCRTiTLtPiypnGnmw5u6w8C5/NxX2C5sLCxe4YvnFyAbv1raKr2XzYtcCWEBp6RK/Ts3H4VkajOHEZfy23zYdL0nfq1Gm95VsbeQ1hvvNWH2Z3zKYYb9taPvVWTw+H5WWeBv+sn2eskwJ6sBleKR3BVIqI7+JUdKKkOO23EEFAFF4MK2pycfvEJ3DfRbejZ3ZnpagsP1sRRFvbSWJ7VIufZEYxSKjseAeVBeOtLcpPlCuVJpW8UoJqLgq5o0WlSwXotou4n/zyavWUccfTnr9cpowC2acBxNaMuHLls7LVg3OF+GwTfgkWYNeJBPXidb+2EfNDReXGl0hMzs9Y/DteeeZ5vP7E82gfkQzDziK5h98Qhe/jc0fl0TlnCK+gMcGdhoXRvad7X/X1kJzmEyhpxK8z5Rl5bSTAeU5EFkp0VCwMIA+vBqcShqOcKEfezzX83NsmxafUZ7q91pSmiMuR95V4XCnw9+G+Kz91X6aN3XNOkvvTrT/CJmGmKywsVP3v7C7QRsjWh28YlC8rMu/NXrNh2HqUnZ2tu2O2ArFYDKtXr0afPn20EbIJUFasGzt06NDAGN4Y21odyt+eBhdXo2d5M2bP/rVhDSVHVF4xpajdFgNqGks0jlJQqjuGb8MOoqZEIMpwaXUubnjzQUz89/Pon95V/DyhMKPRMRLPrS/zUdF5e4lC9cK7Job7NzEO7ypSH0Mi3jW8Q31oz9f1qY+36ThcOELFxlfLfsG999yN9595G1kiDY7gUKF5qXdZ4v56qH+WDQSVQPw93POUi2sYumwshvhDeMHWexMhMUxzwm8BLGjsLuDburKEdYW0VfG6Y9jSpGXbPNgd07ZtWz2YdyuxaNEi1R2jaT6sC7mUf8eOHVu8Mcy0lpeXK2MrUaPVwTdcvnXTAGEXAI/jalZwjRG2WlApUkGqMRXiOLEWI6TjSA6aKBSlu+V0Wo2dF8bdl+KvnHvsizsvHAeMNr7OC1sfpqFz/dx43efw7uHeR4wsOe/G68XnxZN47DnG4cqEuCaN54RNrLsY3HPrRU7Wn28c0ru6sb9H3H9DQTwSwzQnvOYvi1aiGs22CctuaxlHw7Sq9MaP64nXX9xQtaouA3rIgfIzLDUDqGVQLdM7sXVhY8Qjr4PHjf3I+sI1FdajqTDNDe854m23kK0UTUP+kEg1Go1Go/lTaGCEqDYOsUzKQ9X4Zc0y/Lx2CUp9lhqIqUYFODEU1xQgr6IcdiAl3iLgtoJoNBqNRqPRbAoNjBBTDBCOWP3px+koysvD/LnzMOXrr9UwT855YVlRfDttCr6f8RNiDgdA0jARA4V9Mq2I+i4qjUaj0Wi2Hq1tIHmjlhD385m999xTrW677177YMmSpQiFahERA6S8qhw5OSuRlJKK2ginD+M4EPbptDYjhAN0E40QbY5oNBqNRrMp0OCqM0JUVwyVqfwPBvnpbRhr8grQpnNP9RVDUWUpPvrqM+w9elcxVIIw/EkSRk395VovrQKaW+63MO6WqXe/r1mvCLyTLc1pNBqNRrOFmGryK87f4fhg2VGYpo2oE8H0OfNQXFCI4w89CFZtIb75ZQaGH3QwUrMzEDI5D4jXLeGq5NaE6oqpU8S6FUSj0Wg0mk3F/TomboSYhk8MEM7QEcXvc39DddTC/vvtg2Sfjdyc1fjhxx9x/4MP4vGHH8Kk99/HB599Aq4Z4+ri1qWI9ZgQjUaj0fwRUDG3Juq7YxxHHFBZVYXvf/gBaYYfP838EdPn/IY2XbbHPTfcgvH/vhU3nXseTjzkaIw59GhUB2zE1GxmrinSWqCc9EyfGo1Go9FsGSaMiJhenGrcUhZYanIG9tlzf6QFkpDlS0a2mYIUnx9Bk2MggmjbaRBGb98fmdEyJMV8CMT88UXlXFq2DecaWzRU1cqzCe1Arct23TKYz1qbta/RaDQbo7V9GUPEsqABwmnY5c1e0p+clIphQ3bEkIGDMGzA9thRXIqPC6k5CIUs+FM7oHObTKRYNfDb7ronBheqs/1qgTuKsF4pewLldltzDaEPl38rl3T3HtgXz4wfjwpUSzo5oDceoClaoq7dCmnyCps2Rv4YWmNlpvnroMu1prmYynKoc4AVteBYtpqmnJpVLasvu1x/LskfBNeutW1DnImY+Mc4SJXTt1vJsNWYkvhXNnWwMtwWHbtbaJjRMdUWQnJ8yuXn4ejLj8dRl5+EsReeRgG6smt8eaJraWxhmlhBsTtLd2n9MXDaZ88I0cZI86CcdAvd1sPLg145b+x0vmwIZcK81xqmbPfKWl2Zm/LVFw1yg3fAr3e9jEIBEe+YW2+finp5pAQPTHkTw3v1Q4aPA135n//UrujobVjZUEhqY+CYgw/H408+hjVGhaTfh4xwAK9f+yACFkOIOULBqosao5UtURlOHFdQ9AobjzVbl2iUX7mZymn5Ng9O0siVh1nXUW5enafZNDy9UFNTU7dAZVPofFmPJyPmOZbdYJArpbdc+NszrXTcN3LXrm4il8Q7GeIZpakM4xVSthCsqCjATS88iORgAI5tudfJf5vGCsNwu24Uf2nU48rD87mZBn4Rc87xp+DVl17Gyki5eJpIj/gw9dmJ8KtA4lq+EbvFMC9wFd3MzEwkJyfHfTVbk5KSEqUAuBInV4XVbJz8/Hy0adNGTda4Kcuoa9YlFl/Kf7vttov7aJoDX864AjaX8m8NLSKVlZXuUv4bMkKaOLFeuHTzDiN3Rnp6JliE3faDbRc+PQ0P7nDEDDuawiKR1z6YgIJoleqyyvIn48JjT3WNELJtJ/n/jeLiYqSmpiojRL8RbX1ohFC+ein/5sMl1Fn50wDRMttylixZgn79+sWPNM0lJycHnTt3bhVGSFlZmWr1USmlrnUNDrePxsN7wffgrjtdOS+rFxIHp7JLImCZCNoG/Kp7wo3TC7mtOZWCeNr9TLOkKeiYOP3I43H+4SfggjEn4pJjOSZESJCRZuOsr4lWo9FoNK0L0xKjwzFc1csxqKa89xvgZ7vsbvGLwkgWv6BSxH724Ygi5mTttrLUqH3Z7qFUsWugUL9wKxvl4n7bnJNnT+wVNn2GpNQ1RJKjhnJ2JEapuQHiGyKX1zmNRqPRaDRNY0ZFuVpihBiOD5x3LIAoFvz+Ex588B489OCTqK30i6JNRc6S5XjigfvxwH0P4qW330JIzZMhzgmIsvUjJhaIWtKfTvZpkKh5zLZVmIz4br2BwZYi9VcNQvUFOd298nZdwm4jb41Go9FoNI0wOdmYj6/8hgXH50N5rYH3P5uG48aegj79uuL2u6+E5YtgSf5yZHRrgxNPORpH7Ls/UqP8fiYKH8KikqNubE0Rt1W2SdeI+q4qfmIWbydJCK8NDo1Go9Fomo/pUxOOcdeGJYo1mJyOa665CX17d8euo0YgZ20uakLVWJO7CuUVRSgvLUIwKQ2Owc+I4l/RKNfaWNfk0C0fmr8K+hNTjUazLVA3pIGDBU3VLeMgaNjwRcrw5SeTMfbYM9UsqrvuvBMy/T589ekXeOCpcShFEmJGQEwXOn+DAawajebPg2VZGyEajWZbwIz4YrA4+IHL+XOmVKcGsVgl/jf+faS0ycIxx+4L0wmjX99hOO+Cq/GPqy9Gqrzvr54zTyyYCAyDbgPdMRqN5k9Df4mk0Wj+yoj5wYnWHZg+Ez6/H5FYFC+98goG77Ajjht7nBgYYqTEQsjJLURltYVwOIKiwhz07dNVLufbFp1b0a1T3bWy1hGvYyrRaTaMVpJ/DHrCLY1Gsy1g+h1+cGvJvygijoW1hWUY//IbmPTOy7j68stw1T+vQWl5CZ57fhyuvf4G3HzDHRix685Ib5estKya3p22DOFx3LVGDewlu7HTrB8aIU05zZahZajRaLYFjLU59TOmsuLiFyCcPtb18MsfA6YvCjtmwGf4YThirJgBedUy1Oe8bhgTCxfOx4gRI9R03C0dTjfLPvesrKy4j2ZT4NTEXKeDM6Z6ea4xetbKzYcz0nK2VMqYaFluHD1j6tZl8eLF6N+/f/xI0xxYFzIftpYZU0tLS1U9xWYMSb3rVMJl6/cHEPAnIRDwIxj0wWcGxRCRwumXwhkIwi/BkiSswbV2pcAanBtEaC2FV1dSWwbl5xkfTclSy3fLoPxaQyW2NfHyJPG2ms1Hy3DT8OrD1gbTbRqmKIK4I97W7VOxJJAlb/0+ValxMjJLtgE55bcsEVpQCY6ya5zpeNxSnZtmdyVAzZbhyTLRabYeWp7Nx5OVltmWk1hfajYO8xz1CXshEmXXEh1JPDZm//6r7Lkr+NU7EUZMDA47EheMD44dgy3/KmprkRSLwonZqOEU7k4EnC0kVBvG8OHD65Yh9m7WEuHKpI2FqWkeXgVPmXEFxUgkoo4boxXBlsE8GovF3JcHnUc3Cus5dg9yKXWi5bX5MM95S9InKtVEdPluiFdeKaeW/nLLtDJfMJ8wzUZu7pq63FGfT9g0yUzCZfnlv+MuB65aQiTzBGxLGR4xNT+Iu79g3gKMGjVKjQlp6QWYY0JIaxj/8kdQUFCAjIwMtdw8aSq/6Epq8+GYEI4HoZFHp9k4XMq/Xbt2Db4q0nlw86CC4Sq6AwcOXK8u0LJdF8otLy8PXbp0afHdqTS0ysvL61fR9WC+MDhhmexQBqYpW9l3/d2Mw94ai+vNSACue+eeb9gHzeOW7JjWlm6t/pEk5pWWbrD+WVCu2gBpPpQX82ViOddsHomDe7Usm09rGhTNsubpgXptoEjMMJ5y4DH3XccZVePjUIXEMBpN82CFr40PjUaj0TQwQjzF4L7lm3DsgLggDNMnh1HZcol/DsxkS0CiAaKNEI3mr4Q28jQazbZAw5YQZU84mDxlMsaMORLHHnsCSkoqpEYzxABx8POs6Tj88MNx7nnnojZU616j0Wg0Go1Gsxk0MEK4gF1tTS2WLF6MSe+/ixv+dTmuvv5C2Ihg5vT5GPf0BEyY8C6ee/ZZpKelyxW6BUSj0Wg0Gs3moYwQNtzS2Q4/U0vCRReejyRfFJ06doEVM2GH8vDjtG+xxx574rknnsB3389E1EmOX06njRGNRqPRaDSbhsmVY9T6Lwa/fHHEnKCzEa6txksvvYWrr7oRVnUepk37BpZh4qgxY/D6G+9g7oIlcrkeD6LR/BXRXyRoNJptATNqJolxEQAcn1gkDvx2FGXFpXh83EfYY7+Dsf2QvgjYfrTrPBAHHXc2eg8ehhE798OsHz9VY0XUXCLKaTQajUaj0TQfs34VXPfz3FBtDV4c9yyOPHAf7LfHLgwCO7s7undsh/x5M2BVl2Px0lwM3+VA1WJiOKZEopcN12g0Go1Gs2mYriHBlgwHMctCfmERxj8/DqeecCRG7zQYw0eMwJLCWlx0/pm4/arzsO/uo9Gz9yD0GbCjXGMpI4StKBqNRqPRaDSbgrE2d61aO0Z1ITs2/D6fMkYMk4vTRXgKoVgSgoYN047C9PkRNfyw5ERAjBe359nB/AWtZyn/qqoqNed9dnZ23EezKXAp/9TUVOX0fBZbH2/adm9afM3G4XTZ3lL+mi2n8VL+jcu5HrPUNDk5Oa1mKf+ysjK1joypZkClqcGtYcKyaZNIBlFGiRRI20BATVAmXn4/bDnrMyzxs5XlwmO61gQLkJ62fcvQxscfh54Wf/PQZXrrwrznOc2G4boxpDUYZ1458/KF1FfuHO50FACdj/sOA7Iy88lfEZAc8yIVhlvP8IjLrDVlNiUjeWNqTWnemjCvcV0TFjwvzzV2ms2HeZIyJlqWzYMVoy7LWw9vHRSvjtRuw85rgWvqXEtzrJu4ZZmjMxYumi9n3EJo2ZZ7wnIDcEl/BuayzIkXeZGFQiElOMKmlZ122kk1A7d0PFkkJSXVLf2taR6smCgzGiGJBa8xTflpmkckElGyTXy50GyYmpoa1T3oKU6i8+CmQ5nRUZ4b0gU6TzbEkwfLbksus0yX55hW5ZeXl1NX0pQ1ohABqM9v6/GEklgwE/fnzZunxoS0hnESHBNCI4TL0SfSUjPO1qawsFDJLjmZE95ptjYcE8LxIHQ6TzYPjglp27at6qPWMtsyqBeWLVuGvn37xn00zSU3NxedOnWqa8lsydSNCYkfK8Q+if+jQnWVquc8Ev0S37Q81xrw0plohGmaD+VH2Wn5/TFo2Wr+TLzyrdl0WpPcPD26ZeYWP8/VaDR/OVjAvUKu0Wg0f1XMqGmo6dj5JYwTteB3InBilVKL2Yg4SYjayfBbtTCdMOxYWLY2YhB/pLgtJrYfhuN3Y9NoNH86ND5aQ3OuRqPZ9lEzpnoNIn6/+8XHO2+/je2HDsaOO+6IVatWo6y0DKefejqGDhmM7ft3Rfce2+HJ516VK5QZEncajeavgh4wrdFotgXMgBWAzwYcI4YYHNREfEjP7onZv83BO68/iTtv+yeS2nTHi69OxKK5czH1ixdx+umnYuyJZ3KuVThmVFyk8ThWjUbzJ6K7YjQazbaAyarK+yqGX3wEg0k47LBD4fdFkJzcBo6TgYBhSa0WhQUTs2bl4egjD0KbTDE+aISo6+W0Hoek0Wg0Go1mEzAtw1bL+BtiYHCSMhNRsSoiyCsox3PjXsE99/wXpikWhlOL2lAtZswpRp/eveG3K+ImiO6Q0Wj+SrBLlS0h+gsFjUbzV8eM+mOwOC6VS/lbNvyowaIFv+KtSdNx+hnnonPHDHBKkYARQmH+GhhtB6JTh55IFQPERIyDSsSJESNbbYhoNH8ddJeMRqP5q2MGxPDwcRVdw4LjN1FcUYtXXpuAvx0/BgP7DVBfwVT5DcSsKD75YAK2H90bYTm2zGQxWsQQofGhB4RoNH8ZdCuIRqPZVjB9yojgHxuRWBTlVbWYMfMXjD32cBxwwD7Y/4D9kZ+fD8syMW/+Igzo3w2O4cA2vJkF4+NCZFdXexrNXwPdCqLRaLYFjFwu5S/1FUeFcO0Y0zBdo4I+XEVXsE0bQbaWwEStkQxTjBbTtuHj+rlqTIkjBsp8jBwxElmtZCl/DuJNT09vUNnrir95cCl/yk5P2/7HwGnbOS1+MBiM+2g2hp62fevSeCl/TfNonUv5s8CJ1aEGs9EaYaOIatawZScmBTIGn+UgBj+iYnYkW1EEaKxIQEvCO+JHY8XncNKyeOwtHMoqFoupfcrPc5rmQfl5S1drtj7Mi17+1HLeNHQ53jp4C51qmkdrKqdeWpk/lN2xZs0q2bqrwqpPdW3XELHV8v1uoYzynMHl/YFgzBKDRCKSY9s24ZNzEhOWrVyOnUfshIzM9Baf+bhCJOXFVTe9lWCJrsCaR2lpqZId39S9vNJYdlqWmw/fMChbrvKsZ05tHlxUkS0hlBdXeGb51mweLNMrV65Er1691qsLdPluCPUI8xyHPnj5sKXCtNIQYY8C02ksX7HUcWwxQhx3mX6xPpTxIZ7yRwwNmKhCSA1e9cmFRgSISQbiRGWw/WKUyB6NkLy12Gn4MKRnpLV4I6S2tlYJz+tOWJ8i1TRNZWWlWuGVinJ9bwBalptPdXW1auakMtVybB4VFRXIjHclewpBs3lQdjTqunTpovab0gc6X9bjyYJbvkA07uZvaVB3Ml+EQiGVTndMCK0OgX8NMTyYfHa0WLKjPt+Vo6DoCp8txof48Zhzi3CMCMeH0GfugvkYMXJnVZAdNX6EsJui5Vl0VKIUYlZWVoMCpgtW89BL+f+xcEwIW0FYmTF/6ny5cbiEeseOHRu0bGo2n0WLFmHAgAHxI01zaS1jQlgvlZeXq3QqE8ODY0IMNbBDKi7lza37GS5nBbGlMuMgVBogPKavbdjiJIDnNJpm0NTbkUaj0WhaB3w5ihshjYi/NXF8iM/2wS+OJkdMLJGIekmg0cEWEYaL992IIaK2Go1Go9FoNM2kgRHCT3RpncSsmJwxEEYSQkiFLaGS5SglHIIZSpPzBqIGh6faEp6rdcq+agXRhohGo9FoNJrm0cAI8fv86tO+l19+CRdddAFOP/0UfDX5MzEtopg2bSZOPfUMXHTxKRj/4ouIWAGwLcTtlnG/nGF3jkaj0Wg0Gk1zaGCEqH56cXvusQeeeOIR3HXHjXj1xacQDVfhg0+/xg23/wf/e/Im/PzrL6is4AU+CR4QQ8TvGiC6IUSj0Wg0Gk0zoM1RZ4R44wRNnw8DB/RDCsKIRIFgaiek+LPQuV0qliyYhby1EbTr0BFpWQEV3h2k6g5UrY+OLSKe02g0Go1Go1kXM2YEYMEv9gJHqXL+U0sMEgvfzZiD9z/6BP+9/y74w+UYMmxnzF2Ri6fGPYcePbuL9cEBqjRCYuLkGvlXjzZANBqNRqPRrB/1hUzMCMISQwQGp1+34bOimPrNt5izvAhnnnM+2mcGUV64HFN//AVnXHQVbr3rX6isqMDPM35RRghX3+X07vx0V3+iq9FoNBqNprnE+084h7sciFVSUlqCt994DUfssyvM6ijyc6qAtr1QVViAovmzkZdfgDUritE2sxssU66zk2DYyfrjGI1Go9FoNJuE6XOiMB21GgwilgXHF0CXnr3w1DNP4clnH8MTzzyOmpCDq669Au9/+Daee+5FHHP04Rg4sAdsNZBk/daHnqlRo9FoNBrN+jByc9e4poTYC2p2VNOAZdkwfH7XvKAfT/ps1d3CFXOjtl+slwBidhg+x1Yzqi6cvwAjRoyoW3+hJcOFd7jmSVPTtuuZQDcOpxXXS/n/cehp2zcdLuXfoUMHPW37VkJP2755tKZp27leE8ubpFRN1i7GhbvlunWGwYJY76+MkZgJJ+qDbZlieIhHLCpbfhejBoaoSFuTAqYRQscK3qvktQHSPPQCYX8szI9cHNDb12wcVvrrW0xRs+lw8URN8/Hqw9agQ5hWr15S+nPp0sUq1VxFt341XW7dwOxyiUWjIhy5SDwZmPsSAuFYSPxcM6QwPw877bSTWpispRMVebDC4kqliW9O2ghpHlyFmEqSFb9WklufmpoaJV/mT+ZJLeONw9bNtLQ0t1IUp8vylsHWuDZt2tTJU7NhaLRFIhG1OKqXD1sqrPdpW4TDYaU/jbVrV6vSRvOCRogyM+S/5W7qCqTBRhN6MIxsxWRBzIkqPw5KXbZ0CYYPH47s7GxG16LxVv9jZtFGyKZBGZWWlqquAnYZEF1JbV24HDgrtdTUVHWs8+XGocz4AkW5tfSm8D8aKheuStyzZ88GZVuX8w1DudF442rOLTkPMh/QCOHLkjJC8vJy1qmh6EGzQ4KrYxe2eMg/FVoMEzllG5by4wXz585RY0I4TqKlU11drVpDWoPB9UfApfyZT7wuA83WRY8J2XTy8/PVmztbj7S8tpylS5eib9++Ov9tIq1lTAih4a9axHngGh3uX9c1Ay9YM4NrNBqNRqPRJGK6s57KH3Ec6WEanHzdHaDlGCZscWzskD1wMjOeVa0k7n/XaUNEswnoNyONRqPREDPKT3JpaNg+OFELPjuE/LVL8P3U7zHlh59QEXXHiTjhSsz8/ht8+/1MFBaXKUPE5hc14viJrkbTXGiEeOMU9HgFjUajaa0A/wfIIsRrBet0xgAAAABJRU5ErkJggg==;" vertex="1" parent="1">
          <mxGeometry x="600" y="80" width="545" height="433" as="geometry" />
        </mxCell>
      </root>
    </mxGraphModel>
  </diagram>
</mxfile>
